<?xml version="1.0" encoding="UTF-8" standalone="no"?>
<svg
   xmlns:dc="http://purl.org/dc/elements/1.1/"
   xmlns:cc="http://creativecommons.org/ns#"
   xmlns:rdf="http://www.w3.org/1999/02/22-rdf-syntax-ns#"
   xmlns:svg="http://www.w3.org/2000/svg"
   xmlns="http://www.w3.org/2000/svg"
   xmlns:sodipodi="http://sodipodi.sourceforge.net/DTD/sodipodi-0.dtd"
   xmlns:inkscape="http://www.inkscape.org/namespaces/inkscape"
   viewBox="0 0 344.82299 227.03966"
   version="1.1"
   id="svg1078"
   sodipodi:docname="hydra.svg"
   width="344.823"
   height="227.03966"
   inkscape:version="1.0.1 (c497b03c, 2020-09-10)">
  <metadata
     id="metadata1082">
    <rdf:RDF>
      <cc:Work
         rdf:about="">
        <dc:format>image/svg+xml</dc:format>
        <dc:type
           rdf:resource="http://purl.org/dc/dcmitype/StillImage" />
      </cc:Work>
    </rdf:RDF>
  </metadata>
  <sodipodi:namedview
     pagecolor="#ffffff"
     bordercolor="#666666"
     borderopacity="1"
     objecttolerance="10"
     gridtolerance="10"
     guidetolerance="10"
     inkscape:pageopacity="0"
     inkscape:pageshadow="2"
     inkscape:window-width="1483"
     inkscape:window-height="798"
     id="namedview1080"
     showgrid="false"
     inkscape:zoom="1.8408629"
     inkscape:cx="172.25859"
     inkscape:cy="113.55965"
     inkscape:window-x="0"
     inkscape:window-y="25"
     inkscape:window-maximized="0"
     inkscape:current-layer="svg1078" />
  <defs
     id="defs844">
    <style
       id="style842">.cls-1{opacity:0.1;}.cls-2{fill:#276475;}.cls-3{fill:#7aa5bd;}.cls-4{fill:#cbcbcb;}.cls-5{opacity:0.39;}.cls-6{fill:#fff;}</style>
  </defs>
  <title
     id="title846">Hydra-Full-Color</title>
  <g
     id="Stand_Circle"
     data-name="Stand Circle"
     transform="translate(-17.32641,-12.820349)">
    <g
       class="cls-1"
       id="g850">
      <ellipse
         class="cls-2"
         cx="185.88"
         cy="226.39"
         rx="95.220001"
         ry="13.47"
         id="ellipse848" />
    </g>
  </g>
  <g
     id="Color_Background"
     data-name="Color Background"
     transform="translate(-17.32641,-12.820349)">
    <path
       class="cls-3"
       d="m 248,152 v 0 c 0.08,0 0.15,-0.08 0,0 z"
       id="path853" />
    <path
       class="cls-3"
       d="m 360.26,146 c 0,0.06 0,0.13 -0.07,0.13 -5.54,0 -12.36,1.63 -19.19,5 a 48.88,48.88 0 0 0 -14.59,10.8 0.08,0.08 0 0 1 -0.1,0 42.26,42.26 0 0 0 -8.05,-3.27 l -0.42,-0.13 a 52,52 0 0 0 -5.75,-1.31 46.83,46.83 0 0 0 -15.5,-0.18 23.49,23.49 0 0 0 -8.54,3 c -0.22,0.13 -0.44,0.28 -0.64,0.42 l -0.15,-0.09 a 43.27,43.27 0 0 0 -4.72,-2.41 25.35,25.35 0 0 0 -6.35,-2 h -0.06 l -0.43,-0.05 a 30.24,30.24 0 0 0 -6.38,0 l -0.75,0.08 a 47.66,47.66 0 0 0 -11.47,3 c -5.37,2.08 -12.87,5.27 -15.8,10.52 -1.84,3.31 -3.37,6.18 -5.1,9.54 -1.44,2.78 -2,5.22 -4.22,7.5 -0.4,0.43 -0.82,0.83 -1.24,1.24 a 31.15,31.15 0 0 1 5.74,3.82 8.16,8.16 0 0 1 2.56,5 c 0.05,0.26 0.09,0.53 0.12,0.8 a 16.4,16.4 0 0 1 0,3.57 l -0.09,0.65 a 0.13,0.13 0 0 1 0,0.06 c 0,0.22 -0.07,0.44 -0.11,0.66 a 17.51,17.51 0 0 1 -0.41,1.73 0.94,0.94 0 0 1 0,0.16 38,38 0 0 1 -10,15.58 c 3.35,-1.62 5,0.51 5,0.51 2.9,0.4 3.42,1.28 5.06,1 1.64,-0.28 4.19,-1.43 6.06,0.1 a 32.22,32.22 0 0 1 3,2.43 1.11,1.11 0 0 1 0.24,0.47 1.13,1.13 0 0 1 0,0.58 1,1 0 0 1 -0.57,0.6 2.91,2.91 0 0 1 -1.64,0.08 c -2.23,-0.41 -4,-0.52 -4.31,-0.27 v 0 a 13.77,13.77 0 0 1 1.29,1.72 0.69,0.69 0 0 1 0.11,0.41 0.19,0.19 0 0 1 0,0.08 0.69,0.69 0 0 1 -0.52,0.57 6.24,6.24 0 0 1 -3.11,0.16 c -1.29,-0.33 -2.9,-1.52 -4,-1.82 a 0.56,0.56 0 0 0 -0.55,0.15 0.63,0.63 0 0 0 -0.19,0.52 4,4 0 0 1 -0.51,2.16 l -0.29,0.6 -0.08,0.17 a 0.82,0.82 0 0 1 -1.33,0.23 5.72,5.72 0 0 0 -1.87,-1.27 1.69,1.69 0 0 1 -0.5,-0.31 l -0.18,-0.09 v 0 c -1.45,-0.69 -10.87,-4.92 -16.42,-1.94 -0.84,0.45 -1.32,0.17 -1.42,-0.52 a 3,3 0 0 1 0,-0.32 2.65,2.65 0 0 1 0,-0.27 3.61,3.61 0 0 1 0.13,-0.74 0.74,0.74 0 0 0 0,-0.14 c 0,-0.11 0.07,-0.22 0.11,-0.34 a 9.11,9.11 0 0 1 4.86,-5 0.9,0.9 0 0 0 0.51,-0.68 0.57,0.57 0 0 0 0,-0.18 0.13,0.13 0 0 0 0,-0.06 0.025,0 90 0 0 0,-0.05 0.85,0.85 0 0 0 -0.09,-0.38 23.22,23.22 0 0 1 -1.56,-4.93 c -0.07,-0.31 -0.14,-0.63 -0.2,-1 -0.06,-0.37 -0.15,-0.77 -0.22,-1.16 -0.07,-0.39 -0.13,-0.78 -0.2,-1.18 -0.07,-0.4 -0.13,-0.81 -0.18,-1.21 -0.05,-0.4 -0.1,-0.68 -0.14,-1 a 1.1,1.1 0 0 1 0,-0.18 c 0,-0.3 -0.08,-0.61 -0.11,-0.91 -0.12,-1.15 -0.21,-2.27 -0.27,-3.33 q 0,-0.42 0,-0.81 c 0,-0.94 0,-1.8 0,-2.55 0,-0.18 0,-0.35 0,-0.52 0,-0.17 0,-0.19 0,-0.27 v -0.29 c 0,-0.05 0,-0.1 0,-0.15 a 0.29,0.29 0 0 0 0,-0.09 c -1.85,0.74 -3.73,1.38 -5.56,2.17 h -0.11 -0.12 a 0.62,0.62 0 0 1 -0.37,-0.11 66.58,66.58 0 0 1 -15.44,2.95 c -1.51,0.12 -3,0.17 -4.54,0.17 -0.56,0 -1.13,0 -1.68,0 -1.9,0 -3.79,-0.17 -5.63,-0.39 a 56.2,56.2 0 0 1 -10.6,-2.34 0.51,0.51 0 0 1 -0.27,0.09 0.18,0.18 0 0 1 -0.1,0 0.67,0.67 0 0 1 -0.24,0 c -1.47,-0.5 -2.9,-1.05 -4.3,-1.67 l -0.69,-0.3 c 0.43,4.74 -1,15.19 -2.87,18.77 a 1,1 0 0 0 0.42,1.35 c 5.27,2.22 6.51,8.8 3.73,7.3 -6,-3.23 -16.62,2 -16.62,2 a 1.43,1.43 0 0 1 -0.5,0.32 5.42,5.42 0 0 0 -1.86,1.27 0.83,0.83 0 0 1 -1.34,-0.24 l -0.36,-0.76 a 4,4 0 0 1 -0.52,-2.16 0.6,0.6 0 0 0 -0.74,-0.67 c -1.06,0.3 -2.67,1.49 -4,1.82 a 6.19,6.19 0 0 1 -3.1,-0.16 0.71,0.71 0 0 1 -0.42,-1.07 12,12 0 0 1 1.37,-1.64 v 0 c -0.3,-0.26 -2.09,-0.14 -4.32,0.26 a 2.81,2.81 0 0 1 -1.63,-0.07 1,1 0 0 1 -0.37,-1.65 32.68,32.68 0 0 1 3,-2.43 c 1.86,-1.53 4.41,-0.39 6.06,-0.1 1.38,0.24 2,-0.33 3.82,-0.76 l 0.78,-0.15 a 0.9,0.9 0 0 1 0.16,0 h 0.29 a 24.42,24.42 0 0 0 5,-0.51 37.86,37.86 0 0 1 -10,-15.59 c -1.21,-4.17 -1.27,-9.79 2,-12.6 a 30.16,30.16 0 0 1 5.64,-3.77 A 65.4,65.4 0 0 1 140,177.5 c -3.81,-2.72 -11.89,-8.53 -12.31,-8.8 v 0 a 58.45,58.45 0 0 0 -12.88,-4.62 34.14,34.14 0 0 0 -12,-1 25.27,25.27 0 0 0 -6.42,2 44,44 0 0 0 -4.71,2.41 l -0.15,0.09 c -0.2,-0.14 -0.42,-0.29 -0.64,-0.42 a 23.49,23.49 0 0 0 -8.54,-3 46.83,46.83 0 0 0 -15.5,0.18 52,52 0 0 0 -5.75,1.31 l -0.42,0.13 A 42.63,42.63 0 0 0 52.64,169 0.07,0.07 0 0 1 52.55,169 49.14,49.14 0 0 0 38,158.17 c -6.83,-3.41 -13.65,-5.08 -19.2,-5 a 0.08,0.08 0 0 1 -0.06,-0.13 c 1.43,-2.21 2.86,-4.41 4.31,-6.61 l 5.53,-8.5 q 5,-7.72 10.07,-15.47 v 0 l 0.37,-0.57 0.06,-0.09 h 0.22 0.33 l 1.91,0.15 a 0.09,0.09 0 0 1 0.08,0.08 v 1.59 c -0.16,-0.08 -0.32,-0.16 -0.47,-0.25 3.14,2.77 7.28,4.45 11.19,5.68 2,0.64 4.13,1.19 6.28,1.65 a 87.77,87.77 0 0 0 30.26,1 c 8.18,-1.14 22.36,-5.93 22.52,-5.93 1.13,6.62 4.21,11.89 7,17.61 a 0.49,0.49 0 0 0 0.06,0.13 l 0.63,1.34 a 0.37,0.37 0 0 0 0,0.11 c 0.41,0.87 0.8,1.75 1.17,2.65 2.38,5.74 8.84,13.07 13.54,17.59 -0.41,-1 -0.64,-3.89 -1,-4.93 a 103.85,103.85 0 0 1 -4.71,-16.68 154.15,154.15 0 0 1 -2,-18.63 v 0 c 0.21,-2.75 0.63,-6.45 1.06,-8.67 0.49,-2.5 1.08,-5 1.65,-7.45 0.86,-3.61 1.71,-7.33 2.28,-11.14 l -0.18,0.18 a 0.08,0.08 0 0 0 -0.11,0 11,11 0 0 1 -3,2.19 l -0.47,0.19 -0.61,0.2 v 0 a 4.37,4.37 0 0 1 -0.49,0.12 6.31,6.31 0 0 1 -1.3,0.14 6.58,6.58 0 0 1 -1.32,-0.14 c -2.79,-0.59 -5,-3 -6,-6.69 l -0.68,0.18 -0.68,0.16 a 18.66,18.66 0 0 1 -14,-2.46 15.11,15.11 0 0 1 -5.87,-6.53 C 93,77.94 95.71,70.39 104,63.92 a 15.21,15.21 0 0 0 5.66,-9.54 13.34,13.34 0 0 1 4.81,-7.77 v -0.08 0 a 0.08,0.08 0 0 0 0,-0.09 11.06,11.06 0 0 1 4.3,-13.18 L 119,33.12 a 1.61,1.61 0 0 1 1.88,0.12 1.68,1.68 0 0 1 0.52,1.9 10,10 0 0 0 0,6.94 0.07,0.07 0 0 0 0.1,0 l 0.29,-0.13 a 35.75,35.75 0 0 1 5.32,-2 l 1.06,-0.28 q 1.14,-0.29 2.34,-0.48 a 18.58,18.58 0 0 1 11.91,1.71 16.65,16.65 0 0 1 1.56,1 0.08,0.08 0 0 0 0.11,0 v 0 a 12.05,12.05 0 0 0 2.83,-6.9 1.85,1.85 0 0 1 1.5,-1.69 h 0.05 v 0 a 2.06,2.06 0 0 1 2,1 c 0.18,0.28 0.36,0.57 0.53,0.87 a 13.63,13.63 0 0 1 -1.06,14.82 0.11,0.11 0 0 0 0,0.08 c 1.49,4.32 1.66,9.19 1.67,14.24 l 0.26,9.3 -0.13,0.07 c 0.26,7.41 0.66,14 1.26,19.94 a 0.07,0.07 0 0 0 0.07,0.07 2.57,2.57 0 0 1 0.4,0 h 0.2 0.11 a 2.8,2.8 0 0 1 0.31,0.09 v 0 a 3.41,3.41 0 0 1 0.91,0.52 2.58,2.58 0 0 1 1,1.72 2.53,2.53 0 0 1 -0.55,1.82 V 97.9 A 3.26,3.26 0 0 1 154,99 a 2.6,2.6 0 0 1 -0.36,0.13 0.08,0.08 0 0 0 -0.06,0.08 c 0.06,0.5 0.12,1 0.2,1.47 a 0.08,0.08 0 0 0 0.08,0.07 c 2,-0.24 3.76,0.56 4,1.94 a 2.07,2.07 0 0 1 0,0.35 c 0,1.13 -1,2.22 -2.59,2.77 h -0.14 l -0.31,0.09 -0.24,0.06 a 0.08,0.08 0 0 0 -0.06,0.09 c 0.06,0.44 0.13,0.87 0.2,1.3 a 0.08,0.08 0 0 0 0.1,0.06 h 0.22 a 7.23,7.23 0 0 1 5,0.65 2.15,2.15 0 0 1 1,1.46 c 0.25,1.59 -1.55,3.35 -4.26,4.31 l -0.53,0.17 -0.21,0.06 a 0.08,0.08 0 0 0 -0.06,0.09 c 0.1,0.45 0.19,0.88 0.29,1.32 2.18,-0.49 4.21,-0.31 5.34,0.46 a 2.08,2.08 0 0 1 0.94,1.44 1.93,1.93 0 0 1 0,0.24 c 0,1.6 -1.94,3.34 -4.75,4.26 0.1,0.43 0.22,0.86 0.34,1.28 1.94,-0.41 3.67,0.21 4.08,1.51 a 2,2 0 0 1 0.08,0.54 2.45,2.45 0 0 1 -0.28,1.08 4.63,4.63 0 0 1 -2.36,1.93 0.09,0.09 0 0 0 -0.05,0.1 39.47,39.47 0 0 0 3.24,8.07 c 2.54,4.58 5.69,7.83 9.35,9.66 a 8.56,8.56 0 0 0 5.09,0.95 5.12,5.12 0 0 0 2,-0.78 h 0.06 a 5.29,5.29 0 0 0 2.38,-3.12 c 0.91,-3.1 0.1,-6.4 -0.69,-9.58 -0.22,-0.89 -0.43,-1.77 -0.62,-2.65 -1.85,-8.89 -3.6,-18.09 -5.32,-27.84 a 6.87,6.87 0 0 1 -1,0.09 c -1.64,0 -3,-0.72 -3.21,-1.89 -0.21,-1.17 0.7,-2.45 2.28,-3.13 l 0.29,-0.11 0.43,-0.14 0.27,-0.07 -0.21,-1.27 h -0.28 c -0.33,0 -0.65,0 -1,0 a 11.72,11.72 0 0 1 -1.93,-0.15 l -0.61,-0.14 -0.44,-0.13 -1.62,-4.08 0.17,-0.19 0.24,-0.23 v 0 a 9.09,9.09 0 0 1 4.06,-1.74 c 0,0 0.07,0 0.06,-0.08 l 0.29,-0.06 c -0.07,-0.44 -0.14,-0.89 -0.22,-1.33 h -0.27 a 12,12 0 0 1 -1.32,0.08 10.13,10.13 0 0 1 -1.25,-0.07 l -0.32,-0.05 c -0.16,0 -0.33,-0.06 -0.48,-0.09 l -0.42,-0.11 -0.23,-0.07 -0.52,-0.2 a 2.76,2.76 0 0 1 -1.83,-2 3,3 0 0 1 1.59,-2.72 1.14,1.14 0 0 1 0.23,-0.15 10,10 0 0 1 3.47,-1.24 0.1,0.1 0 0 0 0.07,-0.08 h 0.28 c -0.06,-0.46 -0.12,-0.92 -0.19,-1.39 h -0.53 a 6.62,6.62 0 0 1 -3,-0.68 2.94,2.94 0 0 1 -1.79,-2.34 c -0.11,-1.59 1.4,-3 3.6,-3.53 l 0.43,-0.09 0.48,-0.08 -0.18,-1.59 h -0.09 c -2,0 -3.59,-1 -3.87,-2.57 -0.28,-1.57 1,-3.28 3,-3.92 l 0.35,0.08 c 0,0 -0.08,-0.06 -0.22,-0.11 h 0.08 q -0.49,-4.92 -0.9,-9.93 c 0,-0.14 -0.11,-1 -0.25,-2.26 l -0.06,-6.3 A 56.16,56.16 0 0 1 169,33.79 c 0,0 -0.76,-0.22 -0.78,-0.24 a 14.77,14.77 0 0 1 -4.63,-7.82 12.88,12.88 0 0 1 0.74,-6.29 c 0.14,-0.38 0.3,-0.74 0.47,-1.1 a 1.87,1.87 0 0 1 0.47,-0.6 v 0 a 1.75,1.75 0 0 1 1.11,-0.23 1.83,1.83 0 0 1 1.62,1.41 11.46,11.46 0 0 0 3.49,6 0.08,0.08 0 0 0 0.11,0 l 0.18,-0.16 0.05,0.05 a 14.1,14.1 0 0 1 1.39,-1.17 l 0.57,-0.4 0.41,-0.26 c 6.29,-3.77 14.11,-2.25 18.6,-0.85 a 0.07,0.07 0 0 0 0.1,-0.06 7.45,7.45 0 0 0 0.16,-1.14 v -0.32 a 9.56,9.56 0 0 0 -1.11,-5 1.57,1.57 0 0 1 -0.19,-0.91 1.55,1.55 0 0 1 0.42,-1 1.58,1.58 0 0 1 1.8,-0.38 l 0.19,0.09 a 10.49,10.49 0 0 1 5.87,11.87 0.08,0.08 0 0 0 0,0.09 12.73,12.73 0 0 1 5.74,6.82 14.38,14.38 0 0 0 6.6,8.22 c 8.7,5 12.29,11.79 10.12,19.07 a 14.35,14.35 0 0 1 -4.69,7 20.71,20.71 0 0 1 -1.73,1.27 h -0.07 a 17.52,17.52 0 0 1 -9.5,2.76 18.64,18.64 0 0 1 -2.66,-0.2 v 0.21 h -0.14 a 0.06,0.06 0 0 0 -0.08,0.06 9.15,9.15 0 0 1 -3.48,6.33 0.54,0.54 0 0 1 -0.16,0.1 5.83,5.83 0 0 1 -0.91,0.43 6.25,6.25 0 0 1 -2.09,0.36 h -0.41 a 8.22,8.22 0 0 1 -3.16,-0.88 c 0,0.11 0.07,0.22 0.1,0.34 v 0 a 0.08,0.08 0 0 0 -0.11,0.09 c 1.89,6.46 4.09,13.84 6.59,21 a 0.77,0.77 0 0 1 0,0.54 0.06,0.06 0 0 0 0,0.06 l 1.21,2.94 c 0.86,2.1 1.75,4.22 2.64,6.35 1.7,4.41 3.32,8.57 4.94,12.63 0.84,2.11 1.69,4.21 2.55,6.32 1.19,3.39 2.24,6.8 3.1,10.21 v 0.12 c 0,0.17 0.1,0.35 0.14,0.53 l 0.29,-0.44 v 0.12 a 119.92,119.92 0 0 0 10,-18.47 5,5 0 0 1 -1.57,-1.19 2.35,2.35 0 0 1 -0.6,-2.26 2.19,2.19 0 0 1 1.49,-1.37 1,1 0 0 1 0.25,-0.07 4.84,4.84 0 0 1 2.14,0 0.07,0.07 0 0 0 0.08,0 h 0.13 l 0.54,-1.57 c -3.31,-1.14 -5.37,-3.22 -4.86,-5 a 2,2 0 0 1 0.33,-0.65 l 0.1,-0.12 0.17,-0.16 a 5.17,5.17 0 0 1 3.3,-0.92 29,29 0 0 1 3.08,0.58 c 0.37,-0.26 -0.18,-0.56 0.2,-0.81 0.08,-0.32 0.31,-1 0.39,-1.38 a 1.55,1.55 0 0 0 -0.4,-0.23 9.79,9.79 0 0 1 -3.26,-1.91 c -1.12,-0.89 -1.08,-1.32 -0.87,-2.27 0.37,-1.72 2.68,-2.23 5.86,-1.74 0.08,-0.42 0.2,-1.31 0.29,-1.74 a 5.59,5.59 0 0 1 -3.21,-2.29 c -0.43,-0.66 -0.68,-1 -0.54,-1.7 0.14,-0.7 0.35,-0.86 1,-1.29 A 5.64,5.64 0 0 1 232.6,90.32 1.66,1.66 0 0 0 233,90 c 0.1,-0.65 0.15,-1.53 0.24,-2.18 a 1,1 0 0 0 -0.35,0 c 0,0 0,0 0,0 -2,-0.48 -3.34,-1.91 -3.21,-3.5 0.13,-1.59 2,-3 4.18,-3 0.61,-4.44 1.17,-9 1.64,-13.63 0,0 0,0 0,-0.06 0.2,-2.94 1.18,-16.61 2.81,-21.51 a 13,13 0 0 1 -0.82,-14.62 11.61,11.61 0 0 1 0.67,-1 1.79,1.79 0 0 1 0.65,-0.55 h 0.1 a 1.67,1.67 0 0 1 0.94,-0.08 1.83,1.83 0 0 1 1.48,1.73 11.48,11.48 0 0 0 2.36,6.54 0.09,0.09 0 0 0 0.11,0 h 0.07 a 11.54,11.54 0 0 1 1.46,-0.81 14.74,14.74 0 0 1 1.91,-0.78 l 0.9,-0.27 a 12.13,12.13 0 0 1 1.67,-0.36 c 0.22,0 0.45,-0.07 0.67,-0.09 5.69,-0.64 11.27,1.61 14.67,3.4 a 0.08,0.08 0 0 0 0.11,0 9.46,9.46 0 0 0 0.24,-6.53 1.64,1.64 0 0 1 0.59,-1.82 1.55,1.55 0 0 1 1.83,0 L 268.1,31 a 10.62,10.62 0 0 1 3.64,12.73 0.08,0.08 0 0 0 0,0.09 12.67,12.67 0 0 1 4.42,7.73 14.45,14.45 0 0 0 5,9.27 c 7.66,6.49 10,13.79 6.55,20.57 a 14.5,14.5 0 0 1 -5.86,6 20.49,20.49 0 0 1 -3.59,1.55 c -0.41,0.13 -0.82,0.24 -1.23,0.34 -0.24,0 -0.48,0.11 -0.72,0.15 a 15,15 0 0 1 -2.11,0.27 c -0.44,0 -0.87,0.06 -1.31,0.06 a 18.59,18.59 0 0 1 -5.66,-0.9 v 0 a 0.09,0.09 0 0 0 -0.1,0 c -1.1,3.19 -3.07,5.29 -5.5,5.92 a 2.21,2.21 0 0 1 -0.35,0.08 v 0 h -0.13 a 5.86,5.86 0 0 1 -1,0.09 5.69,5.69 0 0 1 -1.49,-0.19 9.86,9.86 0 0 1 -3.92,-2.31 c -0.19,-0.16 -0.38,-0.32 -0.58,-0.47 0.08,4.27 1.3,16.55 -0.43,31.24 L 248,152 v 0 0 c -0.13,0.39 5.39,-5.51 9.57,-10.8 5,-6.36 9.41,-23.68 9.47,-23.68 a 71.59,71.59 0 0 0 23,7 87.77,87.77 0 0 0 30.26,-1 c 2.15,-0.46 4.25,-1 6.28,-1.65 3.9,-1.23 13.44,-6.53 13.51,-6.53 0.12,0.19 7.5,10 10.86,15.12 1.84,2.83 3.58,5.6 5.42,8.43 a 37.12,37.12 0 0 1 3.89,7.11 z"
       id="path855" />
  </g>
  <g
     id="Stomach_-_Shading"
     data-name="Stomach - Shading"
     transform="translate(-17.32641,-12.820349)">
    <path
       class="cls-4"
       d="m 224.27,167 a 6.18,6.18 0 0 0 -0.09,5.34 c 1.51,2.76 5.65,3 8.31,1.36 2.66,-1.64 4.15,-4.67 5.42,-7.54 a 138.78,138.78 0 0 0 9.71,-32 141.69,141.69 0 0 0 1.88,-33.6 c -0.27,-4.26 -0.83,-8.48 -1.34,-12.7 a 79.75,79.75 0 0 0 -1.65,-8.53 c -0.17,-0.72 -0.34,-1.44 -0.5,-2.16 -0.12,-0.52 -0.15,-1.59 -0.5,-2 -0.94,-1.06 -1,0.73 -1,1.27 0,1.56 -0.08,3.12 -0.13,4.68 a 294.43,294.43 0 0 1 -3,37.28 c -0.07,0.49 -0.15,1 -0.24,1.48 a 135.81,135.81 0 0 1 -9.51,33 c -1.08,2.44 -2.29,4.82 -3.56,7.18 a 67.61,67.61 0 0 0 -3.8,6.94 z"
       id="path858" />
    <path
       class="cls-4"
       d="m 167.05,167.92 a 12.77,12.77 0 0 1 -7.5,11.89 2.25,2.25 0 0 1 -0.64,0.2 3.13,3.13 0 0 1 -0.36,0.19 c -3.14,1.37 -6.84,0.06 -9.51,-2.43 -2.67,-2.49 -4.48,-6 -6,-9.53 a 115.23,115.23 0 0 1 -9.6,-41.73 118.6,118.6 0 0 1 0.84,-20.11 c 0.28,-2.2 0.64,-4.4 1,-6.59 a 93.83,93.83 0 0 1 2.33,-9.42 c 0.46,-1.55 1.07,-3.07 1.5,-4.62 a 30.48,30.48 0 0 0 0.87,-4.65 c 0.13,-1.09 0.22,-2.19 0.32,-3.28 0,0.17 0.56,0.85 0.65,1.06 a 4.72,4.72 0 0 1 0.33,1.44 c 0,0.59 0.08,1.18 0.11,1.77 0.08,1.24 0.1,2.49 0.1,3.73 0,3.23 0,6.46 -0.09,9.69 a 185.55,185.55 0 0 0 0.48,20.83 c 1,10.52 6.08,27 11.67,35.49 1.83,2.76 3.42,6.34 5.86,8.52 2.59,2.33 7.59,3.7 7.64,7.55 z"
       id="path860" />
    <path
       class="cls-4"
       d="m 216.66,163.2 c -0.55,2.83 -2.17,5.11 -5.86,5.11 a 8.42,8.42 0 0 1 -6.75,-4 c -2.9,-4.38 -2.16,-10.07 -2.42,-15.06 0,-13 -2.38,-25.77 -5.73,-38.24 -1.74,-6.46 -3.76,-12.84 -5.82,-19.2 q -1.37,-4.25 -2.76,-8.48 a 48.69,48.69 0 0 1 -2.18,-6.92 c -0.35,-2.08 -0.58,-6.54 1.84,-6.56 1.33,0 3.25,2.44 4.81,5.82 a 111.09,111.09 0 0 1 5,14.53 c 1.21,4 2.43,7.93 4,11.77 4.71,11.52 10.21,23.48 13.21,35.53 1.5,6 0.84,12 2.24,17.94 a 19.82,19.82 0 0 1 0.42,7.76 z"
       id="path862" />
    <path
       class="cls-4"
       d="m 208.88,196.55 c 0,1.11 0,2.21 -0.13,3.29 a 65.35,65.35 0 0 1 -27.6,2.85 55.25,55.25 0 0 1 -11,-2.48 c -0.11,-1.2 -0.16,-2.42 -0.16,-3.66 0,-15.91 8.72,-28.79 19.46,-28.79 10.74,0 19.43,12.88 19.43,28.79 z"
       id="path864" />
    <g
       class="cls-5"
       id="g868">
      <ellipse
         class="cls-2"
         cx="235.31"
         cy="197.61"
         rx="1.89"
         ry="1.08"
         transform="rotate(-87.08,235.30108,197.61104)"
         id="ellipse866" />
    </g>
    <g
       class="cls-5"
       id="g872">
      <ellipse
         class="cls-2"
         cx="232.75"
         cy="193.28"
         rx="0.83999997"
         ry="1.46"
         transform="rotate(-19,232.73423,193.2612)"
         id="ellipse870" />
    </g>
    <g
       class="cls-5"
       id="g876">
      <ellipse
         class="cls-2"
         cx="233.57001"
         cy="203.21001"
         rx="1.46"
         ry="0.83999997"
         transform="rotate(-70.77,233.5765,203.20342)"
         id="ellipse874" />
    </g>
  </g>
  <g
     id="Highlights_-_White"
     data-name="Highlights - White"
     transform="translate(-17.32641,-12.820349)">
    <path
       class="cls-6"
       d="m 265.85,40.14 a 5.73,5.73 0 0 0 1,1 12.63,12.63 0 0 0 3.73,1.66 3.13,3.13 0 0 0 0.85,0.17 1,1 0 0 0 0.78,-0.33 1.54,1.54 0 0 0 0.13,-1.16 c -0.3,-2 -0.49,-4.43 -1.39,-6.24 a 8.85,8.85 0 0 0 -3,-3.84 3.9,3.9 0 0 0 -1.57,-0.53 c -0.26,0.07 -0.66,0.37 -0.7,0.64 a 8.29,8.29 0 0 0 0.39,1.5 12,12 0 0 1 0.23,3.78 c -0.05,0.33 -0.35,0.84 -0.37,1.17 -0.06,0.91 -0.65,1.45 -0.08,2.18 z"
       id="path879" />
    <path
       class="cls-6"
       d="m 236.44,39.24 c 0,1.48 1,2.49 1.28,4 0.23,1.09 0.51,2.16 0.83,3.22 a 3.33,3.33 0 0 0 2.19,0.95 5,5 0 0 0 3.44,-1.2 4.28,4.28 0 0 0 1.53,-4.54 3,3 0 0 0 -0.59,-1.05 0.93,0.93 0 0 0 -0.14,-0.14 c -0.27,-0.21 -0.57,-0.4 -0.85,-0.6 a 3.28,3.28 0 0 1 -1.07,-1.06 45.76,45.76 0 0 1 -2.18,-6.32 11.38,11.38 0 0 0 -0.43,-2 c -0.17,-0.31 -1.52,0.48 -1.82,0.52 -0.3,0.04 -0.22,0.88 -0.37,1.17 a 17.16,17.16 0 0 0 -1.82,7.05 z"
       id="path881" />
    <path
       class="cls-6"
       d="m 193.22,23 c 0.3,0.38 1.21,0.19 1.59,0.47 a 9.42,9.42 0 0 0 2,0.88 c 0.67,0.27 0.64,0.63 1.33,0.84 0.29,0.09 0.56,0.32 0.87,0.32 0.31,0 0.66,0.23 0.85,0 a 1.5,1.5 0 0 0 0.15,-1.18 c -0.31,-2 -0.32,-4.11 -1.26,-5.94 a 12.2,12.2 0 0 0 -4.14,-4.16 c -0.24,-0.16 -0.5,-0.76 -0.8,-0.69 -0.3,0.07 -0.7,0.38 -0.73,0.65 a 7,7 0 0 0 0.39,1.53 25.34,25.34 0 0 1 0.61,5 c -0.08,1 -1.45,1.57 -0.86,2.28 z"
       id="path883" />
    <path
       class="cls-6"
       d="m 120.79,40.57 c -0.09,-1.62 -0.81,-3.22 -0.57,-4.83 a 7,7 0 0 0 0.39,-1.53 c 0,-0.27 -0.45,-0.58 -0.73,-0.65 -0.28,-0.07 -0.56,0.53 -0.8,0.69 a 11,11 0 0 0 -3.63,4.2 15.15,15.15 0 0 0 -0.73,1.71 0.69,0.69 0 0 1 0.34,0.57 12.41,12.41 0 0 1 -0.2,2.79 v 0 1 c 0,0.16 0,0.32 0,0.47 l 0.09,0.08 c 0.22,0.16 0.45,0.31 0.66,0.48 v 0.05 a 12.29,12.29 0 0 0 3.8,-1.65 5.41,5.41 0 0 0 1,-1 c 0.65,-0.66 0.44,-1.44 0.38,-2.38 z"
       id="path885" />
    <path
       class="cls-6"
       d="m 164.63,27.42 c 0.36,1.35 1.48,2.07 2.11,3.36 0.46,0.95 1,1.87 1.51,2.77 a 3.47,3.47 0 0 0 2.34,0.38 5.13,5.13 0 0 0 3.08,-1.9 3.93,3.93 0 0 0 0.5,-4.54 2.71,2.71 0 0 0 -0.8,-0.82 1,1 0 0 0 -0.17,-0.1 c -0.3,-0.13 -0.64,-0.25 -1,-0.36 a 3.35,3.35 0 0 1 -1.27,-0.73 42.74,42.74 0 0 1 -3.49,-5.32 10.59,10.59 0 0 0 -0.85,-1.72 c -0.23,-0.24 -1.38,0.79 -1.65,0.91 -0.27,0.12 0,0.85 -0.11,1.16 a 15.59,15.59 0 0 0 -0.2,6.91 z"
       id="path887" />
    <path
       class="cls-6"
       d="m 151,42.43 a 24.48,24.48 0 0 1 -0.65,4.62 c -0.26,1.12 -0.57,2.24 -0.92,3.34 a 3.79,3.79 0 0 1 -2.42,1 5.63,5.63 0 0 1 -3.77,-1.26 4.33,4.33 0 0 1 -1.67,-4.73 3.21,3.21 0 0 1 0.66,-1.08 0.57,0.57 0 0 1 0.16,-0.15 c 0.29,-0.22 0.62,-0.42 0.93,-0.63 a 3.59,3.59 0 0 0 1.18,-1.09 c 1,-1.93 2.63,-3.51 3.31,-5.57 a 11.91,11.91 0 0 1 0.48,-2 1.28,1.28 0 0 1 1.1,-0.45 c 0.35,0.06 0.25,0.91 0.4,1.22 a 14.45,14.45 0 0 1 1.21,6.78 z"
       id="path889" />
  </g>
  <g
     id="Outline"
     transform="translate(-17.32641,-12.820349)">
    <path
       class="cls-6"
       d="m 149.62,49.9 v 0 a 2.35,2.35 0 0 1 -0.73,1.31 0.88,0.88 0 0 1 -0.9,0 1.93,1.93 0 0 1 -0.53,-0.42 3.28,3.28 0 0 0 2.16,-0.89 z"
       id="path892" />
    <path
       class="cls-6"
       d="m 133.13,57.38 a 12.56,12.56 0 0 1 -0.17,2 c -0.48,2.94 -2,5.16 -4,5.46 a 1.89,1.89 0 0 1 -0.47,0.06 c -2.54,0 -4.61,-3.35 -4.61,-7.47 0,-4.12 2,-7.49 4.58,-7.5 2.58,-0.01 4.65,3.31 4.67,7.45 z"
       id="path894" />
    <path
       class="cls-2"
       d="m 128.57,65.37 v 0 c -2.8,0 -5.1,-3.58 -5.1,-8 0,-4.42 2.22,-8 5.08,-8 v 0 c 2.85,0 5.1,3.5 5.12,8 v 0 a 12.12,12.12 0 0 1 -0.18,2 c -0.51,3.19 -2.27,5.55 -4.36,5.88 a 2.12,2.12 0 0 1 -0.56,0.12 z m 0,-1 a 2.09,2.09 0 0 0 0.35,0 c 1.71,-0.27 3.13,-2.3 3.58,-5.06 a 12.67,12.67 0 0 0 0.16,-1.89 c 0,-3.85 -1.86,-7 -4.12,-7 v 0 c -2.26,0 -4.09,3.15 -4.08,7 0.01,3.85 1.89,7 4.11,7 z"
       id="path896" />
    <path
       class="cls-6"
       d="m 121.67,56.21 a 7.25,7.25 0 0 1 0,1 c -0.25,2.62 -1.48,4.72 -3,5.32 a 2.35,2.35 0 0 1 -0.9,0.16 c -2.22,0 -4,-2.91 -4,-6.52 0,-3.61 1.78,-6.52 4,-6.53 2.22,-0.01 3.9,2.97 3.9,6.57 z"
       id="path898" />
    <path
       class="cls-2"
       d="m 117.68,63.24 v 0 c -2.53,0 -4.51,-3.08 -4.52,-7 a 9.47,9.47 0 0 1 1.24,-4.87 3.93,3.93 0 0 1 3.26,-2.16 v 0 c 2.53,0 4.52,3.08 4.52,7 v 0 a 6.47,6.47 0 0 1 -0.06,1.11 c -0.26,2.79 -1.58,5 -3.36,5.72 a 2.86,2.86 0 0 1 -1.08,0.2 z m 0,-1 a 3.51,3.51 0 0 0 0.72,-0.13 c 1.4,-0.54 2.49,-2.51 2.72,-4.9 a 6.25,6.25 0 0 0 0,-1 v 0 c 0,-3.26 -1.61,-6 -3.52,-6 v 0 a 3,3 0 0 0 -2.41,1.68 8.53,8.53 0 0 0 -1.09,4.35 c 0,3.27 1.62,6 3.53,6 z"
       id="path900" />
    <path
       class="cls-2"
       d="m 121.62,57.26 c -0.25,2.62 -1.48,4.72 -3,5.32 a 4.55,4.55 0 0 1 -1.14,-3.2 c 0,-2.06 1,-3.73 2.28,-3.74 a 2.28,2.28 0 0 1 1.86,1.62 z"
       id="path902" />
    <path
       class="cls-2"
       d="m 133,59.35 c -0.48,2.94 -2,5.16 -4,5.46 a 5.69,5.69 0 0 1 -0.93,-3.25 c 0,-2.37 1.17,-4.28 2.62,-4.29 0.97,0 1.82,0.83 2.31,2.08 z"
       id="path904" />
    <ellipse
       class="cls-2"
       cx="101.62"
       cy="78.029999"
       rx="2.26"
       ry="1.46"
       transform="rotate(-78.18,101.6256,78.033471)"
       id="ellipse906" />
    <path
       class="cls-2"
       d="m 101.35,80.76 a 1.53,1.53 0 0 1 -0.3,0 1.78,1.78 0 0 1 -1.24,-1.17 3.56,3.56 0 0 1 -0.11,-1.93 c 0.32,-1.51 1.41,-2.53 2.48,-2.3 v 0 c 1.08,0.23 1.68,1.59 1.36,3.1 a 3.48,3.48 0 0 1 -0.88,1.73 1.87,1.87 0 0 1 -1.31,0.57 z m 0.54,-4.46 c -0.44,0 -1,0.59 -1.21,1.53 a 2.41,2.41 0 0 0 0.07,1.37 c 0.07,0.18 0.23,0.49 0.51,0.55 a 0.83,0.83 0 0 0 0.69,-0.3 2.43,2.43 0 0 0 0.61,-1.22 c 0.21,-1 -0.14,-1.83 -0.58,-1.92 z"
       id="path908" />
    <ellipse
       class="cls-2"
       cx="106.75"
       cy="81.309998"
       rx="3.23"
       ry="2.0799999"
       transform="rotate(-75.8,106.74957,81.307436)"
       id="ellipse910" />
    <path
       class="cls-2"
       d="m 106.3,85 a 1.82,1.82 0 0 1 -0.46,-0.06 c -1.4,-0.35 -2.1,-2.22 -1.59,-4.25 a 4.83,4.83 0 0 1 1.3,-2.3 2.1,2.1 0 0 1 3.66,0.93 4.71,4.71 0 0 1 0,2.64 C 108.8,83.74 107.56,85 106.3,85 Z m 0.9,-6.34 a 1.51,1.51 0 0 0 -1,0.46 3.8,3.8 0 0 0 -1,1.82 c -0.36,1.43 0,2.82 0.86,3 0.86,0.18 1.84,-0.82 2.2,-2.26 a 3.75,3.75 0 0 0 0,-2.08 1.37,1.37 0 0 0 -0.84,-1 v 0 a 0.78,0.78 0 0 0 -0.22,0.04 z"
       id="path912" />
    <circle
       class="cls-2"
       cx="131.14"
       cy="70.300003"
       r="0.69"
       id="circle914" />
    <circle
       class="cls-2"
       cx="135.50999"
       cy="71.379997"
       r="1.08"
       id="circle916" />
    <circle
       class="cls-2"
       cx="131.88"
       cy="74.419998"
       r="1.08"
       id="circle918" />
    <path
       class="cls-6"
       d="m 253.7,53.29 a 11.56,11.56 0 0 0 0.09,1.88 c 0.34,2.82 1.75,5 3.55,5.35 a 2.24,2.24 0 0 0 0.44,0.07 c 2.42,0.1 4.52,-3 4.68,-6.93 0.16,-3.93 -1.66,-7.21 -4.08,-7.31 -2.42,-0.1 -4.5,3 -4.68,6.94 z"
       id="path920" />
    <path
       class="cls-2"
       d="m 257.9,61.09 h -0.14 A 2.72,2.72 0 0 1 257.2,61 c -1.95,-0.39 -3.53,-2.71 -3.91,-5.77 a 12.52,12.52 0 0 1 -0.09,-2 v 0 c 0.19,-4.21 2.4,-7.43 5.07,-7.43 h 0.13 c 2.74,0.12 4.74,3.56 4.56,7.83 -0.18,4.27 -2.38,7.46 -5.06,7.46 z m -3.7,-7.78 a 11.76,11.76 0 0 0 0.08,1.8 c 0.33,2.63 1.59,4.61 3.16,4.92 a 1.34,1.34 0 0 0 0.36,0.06 h 0.09 c 2.07,0 3.93,-2.92 4.07,-6.45 0.14,-3.53 -1.46,-6.7 -3.6,-6.8 -2.14,-0.1 -4,2.82 -4.16,6.47 z"
       id="path922" />
    <path
       class="cls-6"
       d="m 264.65,52.61 a 6.63,6.63 0 0 0 0,1 c 0.13,2.5 1.22,4.55 2.69,5.17 a 2.25,2.25 0 0 0 0.85,0.2 c 2.11,0.09 3.93,-2.62 4.07,-6 0.14,-3.38 -1.44,-6.28 -3.55,-6.37 -2.11,-0.09 -3.92,2.57 -4.06,6 z"
       id="path924" />
    <path
       class="cls-2"
       d="m 268.31,59.48 h -0.12 a 2.67,2.67 0 0 1 -1,-0.24 c -1.67,-0.71 -2.85,-2.91 -3,-5.61 a 7,7 0 0 1 0,-1 c 0.15,-3.7 2.11,-6.53 4.48,-6.53 h 0.12 c 2.42,0.1 4.19,3.12 4,6.89 -0.19,3.77 -2.11,6.49 -4.48,6.49 z m 0.32,-12.42 c -1.77,0 -3.36,2.52 -3.48,5.57 v 0 a 7.18,7.18 0 0 0 0,0.93 c 0.13,2.3 1.09,4.21 2.39,4.76 a 1.87,1.87 0 0 0 0.67,0.16 c 1.79,0.09 3.44,-2.48 3.56,-5.57 0.12,-3.09 -1.28,-5.78 -3.07,-5.85 z m -4,5.55 z"
       id="path926" />
    <path
       class="cls-2"
       d="m 264.67,53.61 c 0.13,2.5 1.22,4.55 2.69,5.17 a 4.29,4.29 0 0 0 1.2,-3 c 0.08,-2 -0.84,-3.58 -2,-3.64 a 2.16,2.16 0 0 0 -1.89,1.47 z"
       id="path928" />
    <path
       class="cls-2"
       d="m 267.45,59.37 -0.29,-0.13 c -1.67,-0.71 -2.85,-2.91 -3,-5.61 V 53.51 53.4 a 2.55,2.55 0 0 1 2.34,-1.76 c 1.5,0.07 2.6,1.9 2.51,4.17 a 4.84,4.84 0 0 1 -1.37,3.35 z m -2.28,-5.66 c 0.14,2 1,3.77 2.09,4.46 a 4.27,4.27 0 0 0 0.8,-2.41 c 0.07,-1.79 -0.76,-3.08 -1.55,-3.12 -0.51,-0.02 -0.99,0.36 -1.34,1.07 z"
       id="path930" />
    <path
       class="cls-2"
       d="m 253.79,55.17 c 0.34,2.82 1.75,5 3.55,5.35 a 5.44,5.44 0 0 0 1,-3.06 c 0.09,-2.25 -1,-4.12 -2.33,-4.18 -0.91,-0.04 -1.74,0.72 -2.22,1.89 z"
       id="path932" />
    <path
       class="cls-2"
       d="m 257.55,61.07 -0.31,-0.06 c -2,-0.4 -3.57,-2.72 -4,-5.78 V 55.1 l 0.05,-0.12 a 3,3 0 0 1 2.71,-2.2 c 1.68,0.08 2.92,2.14 2.81,4.7 a 5.94,5.94 0 0 1 -1.12,3.35 z m -3.25,-5.83 c 0.32,2.4 1.44,4.22 2.83,4.71 a 5.1,5.1 0 0 0 0.72,-2.51 c 0.08,-1.94 -0.77,-3.61 -1.85,-3.66 v 0 c -0.67,0 -1.29,0.55 -1.7,1.46 z"
       id="path934" />
    <ellipse
       class="cls-2"
       cx="280.92001"
       cy="76.120003"
       rx="1.39"
       ry="2.1500001"
       transform="rotate(-9.54,280.91246,76.114856)"
       id="ellipse936" />
    <path
       class="cls-2"
       d="m 281.12,78.75 c -1,0 -1.84,-1 -2.07,-2.32 a 3.08,3.08 0 0 1 0.42,-2.26 1.56,1.56 0 0 1 1,-0.67 v 0 a 1.73,1.73 0 0 1 1.53,0.62 3.36,3.36 0 0 1 0.78,1.68 c 0.24,1.47 -0.39,2.75 -1.43,2.93 z m -0.41,-4.26 h -0.07 a 0.58,0.58 0 0 0 -0.36,0.26 2.12,2.12 0 0 0 -0.24,1.52 c 0.16,0.93 0.73,1.56 1.15,1.47 0.42,-0.09 0.77,-0.81 0.61,-1.77 a 2.34,2.34 0 0 0 -0.53,-1.18 0.79,0.79 0 0 0 -0.56,-0.3 z M 280.56,74 Z"
       id="path938" />
    <ellipse
       class="cls-2"
       cx="275.91"
       cy="79.040001"
       rx="1.98"
       ry="3.0699999"
       transform="rotate(-11.92,275.99235,79.068385)"
       id="ellipse940" />
    <path
       class="cls-2"
       d="m 276.27,82.58 a 2.35,2.35 0 0 1 -1.64,-0.77 4.59,4.59 0 0 1 -1.15,-2.26 4.52,4.52 0 0 1 0.14,-2.52 2.22,2.22 0 0 1 1.55,-1.49 v 0 c 1.37,-0.28 2.75,1 3.17,3 a 4.56,4.56 0 0 1 -0.14,2.53 2.2,2.2 0 0 1 -1.55,1.48 2.45,2.45 0 0 1 -0.38,0.03 z m -0.89,-6.06 a 1.27,1.27 0 0 0 -0.82,0.86 3.69,3.69 0 0 0 -0.1,2 3.59,3.59 0 0 0 0.89,1.76 1,1 0 0 0 1.91,-0.41 3.56,3.56 0 0 0 0.1,-2 c -0.29,-1.37 -1.19,-2.38 -2,-2.22 z"
       id="path942" />
    <circle
       class="cls-2"
       cx="255.11"
       cy="65.660004"
       r="0.66000003"
       id="circle944" />
    <circle
       class="cls-2"
       cx="250.91"
       cy="66.519997"
       r="1.03"
       id="circle946" />
    <circle
       class="cls-2"
       cx="254.25"
       cy="69.550003"
       r="1.03"
       id="circle948" />
    <path
       class="cls-6"
       d="m 184,38.15 a 10.41,10.41 0 0 0 0.42,1.83 c 0.84,2.71 2.61,4.6 4.45,4.63 a 1.7,1.7 0 0 0 0.45,0 c 2.4,-0.33 3.9,-3.77 3.36,-7.66 -0.54,-3.89 -2.92,-6.79 -5.32,-6.46 -2.4,0.33 -3.86,3.76 -3.36,7.66 z"
       id="path950" />
    <path
       class="cls-2"
       d="m 189.1,45.12 h -0.24 c -2,0 -4,-2 -4.88,-5 a 12.13,12.13 0 0 1 -0.44,-1.91 v 0 C 183,34 184.62,30.36 187.33,30 c 2.71,-0.36 5.29,2.65 5.88,6.88 a 10.21,10.21 0 0 1 -0.61,5.44 4.28,4.28 0 0 1 -3.17,2.79 z m -4.57,-7 a 11.22,11.22 0 0 0 0.4,1.75 c 0.79,2.54 2.39,4.26 4,4.28 h 0.36 a 3.3,3.3 0 0 0 2.4,-2.21 9.19,9.19 0 0 0 0.54,-4.89 c -0.5,-3.61 -2.64,-6.31 -4.76,-6 -2.12,0.31 -3.47,3.41 -2.94,7.03 z"
       id="path952" />
    <path
       class="cls-6"
       d="m 194.68,35.52 a 7.39,7.39 0 0 0 0.2,1 c 0.58,2.44 2,4.26 3.57,4.61 a 2.32,2.32 0 0 0 0.87,0 c 2.09,-0.29 3.41,-3.28 2.93,-6.68 -0.48,-3.4 -2.55,-5.92 -4.64,-5.63 -2.09,0.29 -3.4,3.3 -2.93,6.7 z"
       id="path954" />
    <path
       class="cls-2"
       d="m 199,41.68 a 3,3 0 0 1 -0.66,-0.08 c -1.77,-0.41 -3.32,-2.36 -4,-5 a 8.2,8.2 0 0 1 -0.2,-1 c -0.52,-3.73 0.95,-6.91 3.35,-7.25 a 3.78,3.78 0 0 1 3.43,1.65 9.05,9.05 0 0 1 1.83,4.45 c 0.52,3.73 -1,6.91 -3.36,7.25 A 2.56,2.56 0 0 1 199,41.68 Z m -1.06,-12.36 h -0.26 c -1.78,0.25 -2.93,3.06 -2.5,6.12 v 0 a 6.66,6.66 0 0 0 0.18,0.91 c 0.53,2.23 1.82,3.94 3.2,4.25 a 1.81,1.81 0 0 0 0.69,0 c 1.79,-0.25 2.93,-3.06 2.51,-6.12 a 8,8 0 0 0 -1.61,-3.95 3,3 0 0 0 -2.21,-1.21 z"
       id="path956" />
    <path
       class="cls-2"
       d="m 214.12,59.42 a 1.79,1.79 0 0 0 1.3,0.63 h 0.23 a 1.72,1.72 0 0 0 1.25,-1.05 3.44,3.44 0 0 0 0.18,-1.85 c -0.25,-1.46 -1.28,-2.48 -2.31,-2.3 v 0 c -1,0.18 -1.67,1.47 -1.42,2.93 a 3.34,3.34 0 0 0 0.77,1.64 z"
       id="path958" />
    <path
       class="cls-2"
       d="m 187.73,50.72 a 0.65,0.65 0 0 0 0.56,-0.74 0.66,0.66 0 0 0 -0.75,-0.56 0.65,0.65 0 0 0 -0.56,0.74 0.66,0.66 0 0 0 0.75,0.56 z"
       id="path960" />
    <path
       class="cls-2"
       d="m 183.8,52.68 a 1,1 0 1 0 -1.16,-0.87 1,1 0 0 0 1.16,0.87 z"
       id="path962" />
    <path
       class="cls-2"
       d="m 187.62,55.07 a 1.0097524,1.0097524 0 1 0 -0.28,-2 1,1 0 0 0 -0.87,1.15 1,1 0 0 0 1.15,0.85 z"
       id="path964" />
    <path
       class="cls-2"
       d="m 210.57,63.88 a 2.33,2.33 0 0 0 0.37,0 2.2,2.2 0 0 0 1.55,-1.48 4.57,4.57 0 0 0 0.14,-2.53 c -0.41,-2 -1.8,-3.27 -3.16,-3 -1.36,0.27 -2.11,2 -1.69,4 0.38,1.76 1.55,3.01 2.79,3.01 z"
       id="path966" />
    <path
       class="cls-2"
       d="m 362,145.29 c -0.48,-0.67 -2.41,-3.73 -4.45,-7 -2.55,-4 -5.43,-8.62 -6.34,-9.9 l -0.83,-1.17 -1.3,-1.83 -1.6,-2.26 -1.74,-2.45 -1.74,-2.4 c -0.52,-0.72 -1,-1.44 -1.54,-2.17 -0.83,-1.17 -1.68,-2.33 -2.41,-3.58 l -1.1,-1.9 a 4.54,4.54 0 0 0 -0.41,-0.63 0.52,0.52 0 0 0 -0.65,-0.12 c -0.27,0.14 -0.29,0.47 -0.32,0.74 a 11.82,11.82 0 0 0 0,1.46 c 0,0.73 0,1.45 0,2.17 v 1.7 0.13 a 32.53,32.53 0 0 1 -10.52,4.78 c -1.44,0.41 -2.91,0.77 -4.39,1.1 l -0.64,-1.27 c -0.49,-1 -1,-2 -1.47,-3 a 1.28,1.28 0 0 0 -0.36,-0.49 0.59,0.59 0 0 0 -0.58,-0.1 c -0.35,0.16 -0.33,0.56 -0.35,0.88 -0.08,1.24 -0.17,2.49 -0.26,3.73 0,0.2 0,0.39 -0.05,0.59 a 2.22,2.22 0 0 1 0,0.37 c -2.53,0.44 -5.09,0.77 -7.65,1 -2.56,0.23 -5.2,0.35 -7.81,0.36 -2.61,0.01 -5.21,-0.08 -7.81,-0.28 l -2.31,-0.18 a 0.35,0.35 0 0 1 -0.22,-0.1 0.42,0.42 0 0 1 -0.09,-0.24 c 0,-0.23 -0.08,-0.47 -0.13,-0.7 -0.05,-0.23 -0.17,-0.76 -0.25,-1.14 -0.08,-0.38 -0.17,-0.78 -0.26,-1.18 a 4.94,4.94 0 0 0 -0.27,-1.15 0.6,0.6 0 0 0 -1.13,0 7.39,7.39 0 0 0 -0.31,0.94 c -0.11,0.35 -0.23,0.7 -0.35,1.06 -0.23,0.69 -0.46,1.39 -0.7,2.08 -0.6,0 -1.2,-0.18 -1.79,-0.28 -0.59,-0.1 -1.29,-0.21 -1.93,-0.33 -1.27,-0.23 -2.55,-0.5 -3.81,-0.79 q -3.54,-0.83 -7,-2 c -1.5,-0.5 -3,-1 -4.45,-1.67 -0.3,-0.13 -0.68,-0.2 -0.75,-0.5 a 6.57,6.57 0 0 1 0.12,-1.23 26.22,26.22 0 0 0 -0.31,-3.75 0.58,0.58 0 0 0 -0.47,-0.52 c -0.82,-0.15 -1,1 -1.3,1.59 a 20.81,20.81 0 0 0 -1.5,3.78 77.91,77.91 0 0 1 -3.24,11 63.41,63.41 0 0 1 -6.28,11.78 q -1.77,2.63 -3.75,5.08 c -0.68,0.85 -1.37,1.67 -2.08,2.49 l -1.07,1.2 -0.55,0.6 c -0.13,0.14 -0.52,0.42 -0.56,0.59 0.62,-2.52 1.29,-5.07 1.93,-7.54 2.34,-9 4.55,-17.5 5.13,-25.73 A 109.38,109.38 0 0 0 255.1,93.6 c -0.05,-0.46 -0.11,-0.89 -0.16,-1.31 0,0 0,-0.09 0,-0.13 a 8.71,8.71 0 0 0 4.07,2.41 6.26,6.26 0 0 0 1.49,0.18 7.12,7.12 0 0 0 1,-0.08 v 0 a 2.21,2.21 0 0 0 0.35,-0.08 c 2.49,-0.57 4.49,-2.73 5.61,-6 v -0.07 a 18.22,18.22 0 0 0 6.94,0.91 15,15 0 0 0 2.11,-0.27 c 0.24,0 0.48,-0.1 0.72,-0.15 0.41,-0.1 0.82,-0.21 1.23,-0.34 a 19.28,19.28 0 0 0 3.72,-1.59 14.38,14.38 0 0 0 5.86,-6 c 3.44,-6.77 1.11,-14.08 -6.55,-20.57 a 14.41,14.41 0 0 1 -5,-9.27 12.6,12.6 0 0 0 -4.29,-7.59 10.83,10.83 0 0 0 -3.63,-13.14 l -0.21,-0.15 a 1.79,1.79 0 0 0 -2.12,0.05 1.86,1.86 0 0 0 -0.67,2.09 9.21,9.21 0 0 1 -0.37,6.5 c -3.44,-1.79 -9,-4 -14.66,-3.29 -0.22,0 -0.45,0.05 -0.67,0.09 a 12.13,12.13 0 0 0 -1.67,0.36 l -0.9,0.27 a 16,16 0 0 0 -1.78,0.74 15,15 0 0 0 -1.56,0.89 v 0 a 11.4,11.4 0 0 1 -2.41,-6.56 1.82,1.82 0 0 0 -1.3,-1.68 1.78,1.78 0 0 0 -1.25,0.07 h -0.1 a 1.79,1.79 0 0 0 -0.65,0.55 11.61,11.61 0 0 0 -0.67,1 13,13 0 0 0 0.82,14.62 c -1.63,4.9 -2.61,18.57 -2.81,21.51 0,0 0,0 0,0.06 -0.47,4.63 -1,9.19 -1.64,13.63 -2.22,0 -4,1.29 -4.18,3 -0.18,1.71 1.22,3 3.21,3.5 0,0 0,0 0,0 -0.11,0.68 -0.22,1.38 -0.34,2.1 -2.52,-0.27 -4.65,0.68 -5,2.37 a 3,3 0 0 0 1.08,2.75 6.72,6.72 0 0 0 2.75,1.47 c -0.07,0.41 -0.15,0.81 -0.23,1.21 -3.21,-0.49 -5.9,0.39 -6.28,2.15 a 3,3 0 0 0 1.44,2.91 9.72,9.72 0 0 0 3.39,1.62 c -0.09,0.37 -0.17,0.74 -0.26,1.1 l -0.18,0.69 c -2.72,-0.66 -5.1,-0.38 -6.22,0.67 l -0.17,0.16 -0.1,0.12 a 2,2 0 0 0 -0.33,0.65 c -0.51,1.78 1.55,3.86 4.86,5 l -0.54,1.57 h -0.13 a 5,5 0 0 0 -2.13,0 h -0.09 a 1,1 0 0 0 -0.25,0.07 2.19,2.19 0 0 0 -1.49,1.37 2.35,2.35 0 0 0 0.6,2.26 5,5 0 0 0 1.57,1.19 119.92,119.92 0 0 1 -10,18.47 v -0.12 a 91,91 0 0 0 -3.47,-10.23 c 0,-0.06 0,-0.13 -0.08,-0.19 -0.86,-2.11 -1.71,-4.21 -2.55,-6.32 -1.62,-4.06 -3.24,-8.22 -4.94,-12.63 l -1.54,-4 c -3.26,-8.55 -6.2,-18.29 -8.74,-26.93 0,-0.12 -0.07,-0.23 -0.1,-0.34 a 8.22,8.22 0 0 0 3.16,0.88 H 197 a 6.25,6.25 0 0 0 2.09,-0.36 5.83,5.83 0 0 0 0.91,-0.42 0.54,0.54 0 0 0 0.16,-0.1 c 1.91,-1.16 3.22,-3.4 3.7,-6.37 v -0.21 a 18.64,18.64 0 0 0 2.66,0.2 17.52,17.52 0 0 0 9.5,-2.76 h 0.07 a 20.53,20.53 0 0 0 2,-1.44 14.33,14.33 0 0 0 4.68,-6.95 c 2.17,-7.29 -1.42,-14.06 -10.12,-19.07 a 14.42,14.42 0 0 1 -6.6,-8.22 12.66,12.66 0 0 0 -5.58,-6.71 10.85,10.85 0 0 0 -5.92,-12.28 l -0.24,-0.11 a 1.81,1.81 0 0 0 -2.08,0.43 1.9,1.9 0 0 0 -0.5,1.32 2,2 0 0 0 0.22,0.86 9.17,9.17 0 0 1 1.08,5.05 v 0.32 a 8.33,8.33 0 0 1 -0.16,1 c -4.57,-1.42 -12.43,-2.87 -18.7,1 l -0.41,0.26 -0.57,0.4 a 14.1,14.1 0 0 0 -1.39,1.17 l -0.05,-0.05 a 11.46,11.46 0 0 1 -3.52,-6 1.81,1.81 0 0 0 -1.58,-1.41 1.74,1.74 0 0 0 -1.37,0.39 v 0 a 1.87,1.87 0 0 0 -0.47,0.6 c -0.17,0.36 -0.33,0.72 -0.47,1.1 a 12.88,12.88 0 0 0 -0.74,6.29 13.06,13.06 0 0 0 4.16,8 c -0.63,4.33 0.35,14.81 0.83,19.45 0.14,1.29 0.23,2.12 0.25,2.26 q 0.4,5 0.9,9.93 h -0.08 v 0 h -0.12 c -2,0.64 -3.34,2.28 -3,3.92 0.34,1.64 1.89,2.57 3.87,2.57 h 0.09 l 0.18,1.59 -0.48,0.08 -0.43,0.09 c -2.2,0.54 -3.71,1.94 -3.6,3.53 a 2.94,2.94 0 0 0 1.79,2.34 6.62,6.62 0 0 0 3,0.68 h 0.53 c 0.07,0.47 0.13,0.93 0.19,1.39 h -0.28 a 9.65,9.65 0 0 0 -3.54,1.32 1.14,1.14 0 0 0 -0.23,0.15 3,3 0 0 0 -1.59,2.72 2.76,2.76 0 0 0 1.83,2 l 0.52,0.2 0.23,0.07 0.42,0.11 c 0.15,0 0.32,0.07 0.48,0.09 l 0.32,0.05 a 10.21,10.21 0 0 0 1.38,0.09 c 0.39,0 0.8,0 1.2,-0.06 h 0.27 c 0.08,0.44 0.15,0.89 0.22,1.33 l -0.29,0.06 a 8.81,8.81 0 0 0 -4.12,1.82 v 0 l -0.24,0.23 -0.17,0.19 a 2.34,2.34 0 0 0 -0.61,1.77 c 0.12,1 1,1.82 2.37,2.29 l 0.44,0.13 0.61,0.14 a 11.13,11.13 0 0 0 2.07,0.19 8,8 0 0 0 0.83,0 h 0.28 l 0.21,1.27 -0.27,0.07 -0.43,0.14 -0.29,0.11 c -1.58,0.68 -2.53,1.92 -2.28,3.13 0.25,1.21 1.57,1.89 3.21,1.89 a 6.87,6.87 0 0 0 1,-0.09 c 1.72,9.75 3.47,19 5.32,27.84 0.19,0.88 0.4,1.76 0.62,2.65 0.79,3.18 1.6,6.48 0.69,9.58 a 5.29,5.29 0 0 1 -2.38,3.12 h -0.06 a 5.45,5.45 0 0 1 -1.75,0.62 8.63,8.63 0 0 1 -5.1,-1 c -3.65,-1.82 -6.79,-5.07 -9.34,-9.65 a 41.34,41.34 0 0 1 -3.24,-8.08 c 1.8,-0.77 2.87,-2.22 2.48,-3.52 a 2.35,2.35 0 0 0 -1.8,-1.5 4.86,4.86 0 0 0 -2.12,0 c -0.12,-0.43 -0.24,-0.87 -0.35,-1.3 2.86,-1 4.79,-2.81 4.59,-4.45 a 2.05,2.05 0 0 0 -0.94,-1.44 c -1.1,-0.75 -3.06,-0.93 -5.19,-0.49 l -0.3,-1.4 0.53,-0.17 c 2.78,-0.93 4.65,-2.72 4.4,-4.34 a 2.18,2.18 0 0 0 -1,-1.47 7.42,7.42 0 0 0 -5.16,-0.61 c -0.08,-0.47 -0.15,-1 -0.22,-1.47 v 0 l 0.31,-0.08 h 0.14 a 4.82,4.82 0 0 0 1.8,-1 2.15,2.15 0 0 0 -0.72,-3.86 5.1,5.1 0 0 0 -2.21,-0.27 c -0.06,-0.55 -0.12,-1.13 -0.18,-1.69 a 3.38,3.38 0 0 0 1.43,-1 2.4,2.4 0 0 0 0.62,-1.85 2.55,2.55 0 0 0 -1.18,-1.86 2.92,2.92 0 0 0 -0.76,-0.35 v 0 a 2.8,2.8 0 0 0 -0.31,-0.09 h -0.11 -0.14 -0.06 c -0.39,-0.28 -0.32,-2.63 -0.32,-2.94 -0.17,-8.15 -0.84,-16.3 -1.19,-24.44 -0.19,-4.32 -0.12,-8.69 -1,-12.95 a 25.39,25.39 0 0 0 -0.92,-3.42 13.62,13.62 0 0 0 1.1,-14.82 c -0.2,-0.37 -0.42,-0.73 -0.65,-1.07 a 1.85,1.85 0 0 0 -2,-0.76 v 0 h -0.05 a 1.86,1.86 0 0 0 -1.45,1.58 12.12,12.12 0 0 1 -2.85,6.87 h -0.06 a 13.85,13.85 0 0 0 -1.55,-1 18.51,18.51 0 0 0 -12,-1.67 c -0.8,0.12 -1.58,0.29 -2.34,0.48 l -1.06,0.28 a 37.35,37.35 0 0 0 -5.31,2 v 0 a 9.7,9.7 0 0 1 0,-6.8 1.93,1.93 0 0 0 -0.59,-2.18 1.88,1.88 0 0 0 -2.19,-0.14 l -0.23,0.15 a 11.34,11.34 0 0 0 -5,10.81 11.56,11.56 0 0 0 0.42,2 v 0 a 7.16,7.16 0 0 0 0.25,0.74 v 0.08 a 13.34,13.34 0 0 0 -4.81,7.77 15.21,15.21 0 0 1 -5.74,9.53 c -8.3,6.47 -11,14 -7.73,21.25 a 15.11,15.11 0 0 0 5.87,6.53 18.66,18.66 0 0 0 14,2.46 l 0.68,-0.16 0.68,-0.18 c 1.08,3.66 3.24,6.1 6,6.69 a 6.58,6.58 0 0 0 1.32,0.14 6.31,6.31 0 0 0 1.3,-0.14 4.37,4.37 0 0 0 0.49,-0.12 v 0 l 0.61,-0.2 0.47,-0.19 a 10.42,10.42 0 0 0 3.16,-2.19 l 0.18,-0.18 c -0.57,3.81 -1.42,7.53 -2.28,11.14 -0.57,2.43 -1.16,5 -1.65,7.45 -0.43,2.22 -0.85,5.92 -1.06,8.67 v 0 c -0.11,1.35 -0.17,2.46 -0.16,3.06 0.21,12.53 2,22.6 5.69,32.64 0.37,1 0.76,2 1.16,3 -3.33,-3.52 -9.7,-10.7 -13.11,-17.57 -0.19,-0.37 -0.36,-0.73 -0.53,-1.09 a 0.37,0.37 0 0 1 0,-0.11 c -0.16,-0.32 -0.31,-0.64 -0.46,-0.95 -0.06,-0.13 -0.12,-0.26 -0.17,-0.39 a 0.49,0.49 0 0 1 -0.06,-0.13 83.29,83.29 0 0 1 -5.59,-16.7 2.39,2.39 0 0 0 -1,-1.47 l -2.81,-4.09 -0.29,-0.33 -0.36,0.11 a 0.6,0.6 0 0 0 -0.4,0.59 l 0.24,4 a 72.72,72.72 0 0 1 -18.45,5 l -1.54,-4.39 -0.18,-0.4 h -0.38 a 0.58,0.58 0 0 0 -0.54,0.46 L 86.07,131 c -1.6,0.18 -3.27,0.32 -5,0.42 a 91.59,91.59 0 0 1 -20.64,-1 L 60,124.7 l -0.08,-0.43 -0.36,-0.08 a 0.6,0.6 0 0 0 -0.65,0.31 l -2.55,5.08 a 41.46,41.46 0 0 1 -12.7,-4.92 21.63,21.63 0 0 1 -1.92,-1.39 l -0.1,-5.8 a 0.58,0.58 0 0 0 -0.39,-0.55 l -0.48,-0.1 -2,3.36 L 17.4,153 v 0.08 a 1.22,1.22 0 0 0 -0.07,0.17 1.13,1.13 0 0 0 0,0.18 c 0,0 0,0.06 0,0.09 0,0.03 0,0.05 0,0.08 a 1.16,1.16 0 0 0 0,0.18 0.77,0.77 0 0 0 0.07,0.16 l 0.09,0.14 a 1.85,1.85 0 0 0 0.14,0.14 l 0.06,0.06 h 0.08 l 0.17,0.07 h 0.18 0.09 c 5.65,-0.08 12.39,1.68 18.91,4.94 a 48.42,48.42 0 0 1 14.34,10.71 0.91,0.91 0 0 0 1.3,0.07 1.06,1.06 0 0 0 0.2,-0.26 47,47 0 0 1 13.59,-4.43 c 9.67,-1.64 19.14,-0.42 24.13,3.11 l 0.39,0.29 0.42,-0.26 c 3.13,-1.87 7.74,-3.95 11,-4.36 a 33.57,33.57 0 0 1 11.72,1 56.45,56.45 0 0 1 20.79,9.44 46.11,46.11 0 0 1 7.45,6.88 c 1.9,2.19 3.72,4.14 5.49,5.85 a 31.06,31.06 0 0 0 -5.69,3.81 9.59,9.59 0 0 0 -3,6.76 c -3.77,-4.28 -6,-9.81 -9.84,-14.19 -6.72,-7.76 -18,-10.33 -26.33,-3.46 A 18.32,18.32 0 0 0 97,189.93 l -3,-0.61 a 0.52,0.52 0 0 0 -0.61,0.65 l 1.92,10.56 a 0.83,0.83 0 0 0 1.52,0.28 l 5.57,-8.85 a 0.69,0.69 0 0 0 -0.47,-1 l -1.8,-0.37 c 0.2,-0.36 0.41,-0.73 0.6,-1.09 l 0.12,-0.21 a 14.2,14.2 0 0 1 3,-4.06 11.44,11.44 0 0 1 5,-2.48 12.42,12.42 0 0 1 10,2.24 26.26,26.26 0 0 1 7.06,8.66 47.42,47.42 0 0 0 16,17 18.55,18.55 0 0 0 1.85,1 64.4,64.4 0 0 0 6.33,7.78 l -4.43,0.71 h -0.15 a 0.9,0.9 0 0 0 -0.16,0 l -0.78,0.15 -0.26,0.05 a 9.81,9.81 0 0 1 -3.51,0.33 c -0.42,-0.07 -0.81,-0.16 -1.2,-0.25 a 6.74,6.74 0 0 0 -4.11,-0.06 c -1.05,0.37 -4.25,2 -4.7,3.67 a 1.61,1.61 0 0 0 0.27,1.55 3.1,3.1 0 0 0 2.41,0.74 23.87,23.87 0 0 0 2.58,-0.2 l 0.42,-0.05 -0.15,0.24 -0.23,0.37 A 1.39,1.39 0 0 0 136,228 a 1.37,1.37 0 0 0 0.93,0.82 6.89,6.89 0 0 0 3.45,0.16 11.25,11.25 0 0 0 2.35,-1.05 9.21,9.21 0 0 1 1.51,-0.73 4.84,4.84 0 0 0 0.58,2.43 l 0.36,0.77 a 1.51,1.51 0 0 0 1.1,0.83 h 0.25 a 1.54,1.54 0 0 0 1.07,-0.44 4.75,4.75 0 0 1 1.64,-1.12 2.43,2.43 0 0 0 1.19,-1.06 h 0.12 c 0.1,0 9.56,-4.23 15.2,-1.2 a 1.72,1.72 0 0 0 1.85,0.08 1.88,1.88 0 0 0 0.67,-1.9 9.19,9.19 0 0 0 -5.6,-6.82 0.24,0.24 0 0 1 -0.06,-0.1 0.29,0.29 0 0 1 0,-0.24 16.78,16.78 0 0 0 1,-2.84 l 2.9,0.34 5.65,0.57 1.42,0.11 0.71,0.06 h 0.35 0.42 2 c 0.67,0 1.34,-0.1 2,-0.16 a 20.89,20.89 0 0 0 13.68,-7.75 19,19 0 0 0 2.87,-5.32 67.08,67.08 0 0 0 13.2,-2.83 h 0.11 0.14 c 1.85,-0.6 3.66,-1.28 5.4,-2 0,0.05 0,0.1 0,0.15 v 0.29 c 0,0.08 0,0.18 0,0.27 0,0.09 0,0.34 0,0.52 0,0.75 -0.05,1.61 0,2.55 q 0,0.39 0,0.81 c 0.06,1.06 0.15,2.18 0.27,3.33 0,0.3 0.07,0.61 0.11,0.91 a 1.1,1.1 0 0 0 0,0.18 c 0,0.34 0.09,0.68 0.14,1 0.05,0.32 0.11,0.81 0.18,1.21 0.07,0.4 0.13,0.79 0.2,1.18 0.07,0.39 0.15,0.78 0.22,1.16 0.07,0.38 0.13,0.65 0.2,1 a 23.67,23.67 0 0 0 1.65,5.31 0.025,0 -90 0 0 0,0.05 0.13,0.13 0 0 1 0,0.06 0.29,0.29 0 0 1 0,0.13 0.17,0.17 0 0 0 0,0.05 c 0,0 0,0 0,0 a 9.61,9.61 0 0 0 -5.32,5.61 c 0,0.12 -0.08,0.23 -0.11,0.34 a 0.74,0.74 0 0 1 0,0.14 4.63,4.63 0 0 0 -0.13,0.74 2.65,2.65 0 0 0 0,0.27 3,3 0 0 0 0,0.32 1.63,1.63 0 0 0 0.68,1.31 1.7,1.7 0 0 0 1.84,-0.08 c 5.64,-3 15.11,1.16 15.2,1.2 a 0.53,0.53 0 0 0 0.12,0 v 0 a 2.34,2.34 0 0 0 1.18,1.07 4.86,4.86 0 0 1 1.64,1.11 1.51,1.51 0 0 0 1.07,0.45 h 0.25 a 1.53,1.53 0 0 0 1.1,-0.84 l 0.36,-0.76 a 4.85,4.85 0 0 0 0.58,-2.44 11.21,11.21 0 0 1 1.51,0.73 11.31,11.31 0 0 0 2.35,1.06 6.89,6.89 0 0 0 3.45,-0.16 1.38,1.38 0 0 0 0.82,-2.06 c -0.17,-0.27 -0.36,-0.55 -0.56,-0.83 a 24.85,24.85 0 0 1 2.9,0.38 4.71,4.71 0 0 0 0.89,0.09 3.23,3.23 0 0 0 1.11,-0.19 1.63,1.63 0 0 0 1,-1.15 1.74,1.74 0 0 0 -0.37,-1.56 9,9 0 0 0 -1.58,-1.35 c -0.42,-0.3 -0.91,-0.66 -1.5,-1.15 -1.75,-1.45 -3.95,-0.9 -5.56,-0.49 -0.37,0.09 -0.72,0.18 -1,0.24 a 3.38,3.38 0 0 1 -1.92,-0.28 15,15 0 0 0 -2.69,-0.66 4.29,4.29 0 0 0 -4,-1 c 3.87,-4.19 8.22,-10.06 9.44,-14.25 1.22,-4.19 1.39,-10.28 -2.22,-13.38 a 32.26,32.26 0 0 0 -6.12,-4 41.88,41.88 0 0 0 5.35,-6.66 81,81 0 0 0 4.71,-9 l 0.29,-0.62 c 2.38,-5 10.37,-8.25 10.5,-8.31 6.26,-3.08 22.17,-9.37 34.9,-1.27 l 0.36,0.22 0.38,-0.18 c 11.28,-5.65 25.83,-5.07 38.11,1.45 a 1.05,1.05 0 0 0 0.2,0.27 1,1 0 0 0 0.61,0.23 0.93,0.93 0 0 0 0.69,-0.31 A 48.5,48.5 0 0 1 342,152.3 c 6.4,-3.19 13,-4.94 18.59,-4.94 H 361 a 0.92,0.92 0 0 0 0.92,-0.91 c 0,0 0,0 0,-0.07 a 0.89,0.89 0 0 0 0.08,-1.09 z m -20.73,5.36 a 50.9,50.9 0 0 0 -14,10.06 l -2.64,-16.77 a 0.46,0.46 0 0 1 0.07,-0.07 52.18,52.18 0 0 1 11.11,-7.4 47.19,47.19 0 0 1 15.32,-4.78 h 0.07 c 1.3,2 3.13,4.92 4.82,7.59 1.69,2.67 3.16,5 4,6.28 -5.79,0.07 -12.39,1.89 -18.8,5.09 z m 8.49,-21.2 c 0.2,0.28 0.51,0.73 0.88,1.31 a 48.22,48.22 0 0 0 -15.25,4.82 53.27,53.27 0 0 0 -10.92,7.2 l -3,-18.78 c 2,-0.41 4,-0.88 6,-1.43 3.81,-1.1 9.16,-2.94 12.8,-6.5 z m -26.34,13.1 a 50.31,50.31 0 0 0 -10.56,-3 c -8.82,-1.5 -17.35,-0.72 -22.93,2.08 l 1.29,-16.52 a 96.86,96.86 0 0 0 29.31,-0.91 z m -34.46,-1.22 c -0.53,-0.19 -1.13,-0.43 -1.79,-0.7 a 36.76,36.76 0 0 0 -11.65,-3.07 c -7.57,-0.49 -11.19,0.73 -16.2,2.41 l -0.16,0.06 a 61.77,61.77 0 0 0 8.73,-21.14 79.36,79.36 0 0 0 22.29,6.11 z m 0.88,1.47 0.12,-0.06 0.12,-0.06 c 5.38,-2.83 13.84,-3.62 22.61,-2.13 a 48.38,48.38 0 0 1 10.91,3.15 l 2.76,17.43 c -12.19,-6.26 -26.44,-6.89 -37.82,-1.68 z M 261.13,93.26 a 4.72,4.72 0 0 1 -1.91,-0.08 c -2.56,-0.61 -4.38,-2.91 -5.46,-4.72 A 37.77,37.77 0 0 1 250.9,81.9 c -0.31,-0.87 -0.68,-1.75 -1,-2.61 a 20.17,20.17 0 0 1 -1.82,-6 4.09,4.09 0 0 1 1.18,0.49 13.26,13.26 0 0 1 3.23,3.53 25.28,25.28 0 0 0 2,2.41 l 0.06,0.07 a 12.26,12.26 0 0 0 0.59,3.39 c 0.84,2.56 2.34,4.53 4,5.28 a 3.27,3.27 0 0 0 1.36,0.31 2.59,2.59 0 0 0 1.1,-0.23 3.43,3.43 0 0 0 1.69,-1.71 24,24 0 0 0 2.44,1.17 l 0.24,0.09 c -0.97,2.91 -2.73,4.8 -4.84,5.17 z m 5.76,-61.13 a 0.36,0.36 0 0 1 0.14,-0.43 0.29,0.29 0 0 1 0.38,0 l 0.18,0.13 a 9.32,9.32 0 0 1 3.32,10.87 31.17,31.17 0 0 0 -4.38,-3 10.7,10.7 0 0 0 0.36,-7.57 z M 198.62,76 a 4.57,4.57 0 0 1 -1.9,0.27 c -2.62,-0.15 -4.83,-2.08 -6.21,-3.67 a 37.2,37.2 0 0 1 -4,-5.94 c -0.46,-0.8 -1,-1.6 -1.48,-2.38 a 20.28,20.28 0 0 1 -2.89,-5.62 4,4 0 0 1 1.25,0.28 13,13 0 0 1 3.82,2.89 25.82,25.82 0 0 0 2.28,1.93 11.69,11.69 0 0 0 1.24,3.49 c 1.28,2.37 3.11,4 4.88,4.49 a 3.76,3.76 0 0 0 0.86,0.11 2.82,2.82 0 0 0 1.58,-0.47 3.55,3.55 0 0 0 1.38,-2.15 23.75,23.75 0 0 0 2.77,0.8 h 0.25 C 202,73.14 200.63,75.3 198.62,76 Z m -5.27,-61.17 a 0.38,0.38 0 0 1 0.05,-0.45 0.32,0.32 0 0 1 0.38,-0.07 l 0.2,0.09 a 9.33,9.33 0 0 1 5.21,10.1 31.24,31.24 0 0 0 -4.84,-2.12 10.74,10.74 0 0 0 -1,-7.52 z m -73.71,19.41 0.19,-0.12 a 0.4,0.4 0 0 1 0.21,-0.07 0.41,0.41 0 0 1 0.24,0.1 0.44,0.44 0 0 1 0.13,0.5 11.17,11.17 0 0 0 0.08,8 32.87,32.87 0 0 0 -4.79,3 9.85,9.85 0 0 1 3.94,-11.41 z m 9.43,63.22 a 7.32,7.32 0 0 1 -3.19,1.54 4.86,4.86 0 0 1 -2,0 c -2.23,-0.47 -4,-2.54 -4.91,-5.67 l 0.29,-0.1 a 25.27,25.27 0 0 0 2.69,-1.18 3.68,3.68 0 0 0 1.68,1.95 2.9,2.9 0 0 0 1.26,0.28 3.53,3.53 0 0 0 1.31,-0.28 c 1.77,-0.71 3.42,-2.71 4.4,-5.36 a 12.56,12.56 0 0 0 0.77,-3.55 28.36,28.36 0 0 0 2.29,-2.55 13.47,13.47 0 0 1 3.52,-3.54 4.31,4.31 0 0 1 1.31,-0.49 21.41,21.41 0 0 1 -2.18,6.34 c -0.41,0.88 -0.84,1.79 -1.19,2.69 a 40,40 0 0 1 -3.29,6.77 q -0.26,0.39 -0.54,0.78 a 13.14,13.14 0 0 1 -2.22,2.37 z m -109.22,55.14 9,-13.75 a 47.58,47.58 0 0 1 14.55,4.67 52.44,52.44 0 0 1 11.11,7.48 v 0 l -2.65,16.78 a 50.49,50.49 0 0 0 -14,-10.06 45.9,45.9 0 0 0 -18.01,-5.12 z m 22.78,-26.39 a 45.32,45.32 0 0 0 14.95,5.53 l -2.85,18.09 a 53.13,53.13 0 0 0 -10.92,-7.2 49.08,49.08 0 0 0 -14.4,-4.71 L 39,123.25 a 19.42,19.42 0 0 0 3.63,2.96 z m 45.37,6.38 1.26,16.09 c -5.59,-2.79 -14.11,-3.57 -22.93,-2.07 a 50.32,50.32 0 0 0 -10.57,3 l 2.79,-17.67 a 91.69,91.69 0 0 0 22.58,1.3 c 2.46,-0.15 4.72,-0.37 6.87,-0.65 z m -32.41,18.16 a 48.4,48.4 0 0 1 10.92,-3.15 c 8.77,-1.49 17.23,-0.7 22.61,2.13 l 0.11,0.05 0.13,0.07 1.31,16.85 c -5.51,-3.36 -14.7,-4.44 -24.37,-2.81 a 48.6,48.6 0 0 0 -13.46,4.29 z M 89,132.45 a 74.36,74.36 0 0 0 21.22,-5.86 0.56,0.56 0 0 1 0.5,0 0.56,0.56 0 0 1 0.31,0.4 86.51,86.51 0 0 0 6,17.62 c 0.33,0.69 0.66,1.38 1,2.09 a 32,32 0 0 0 -14.94,-2.14 34.37,34.37 0 0 0 -11.14,3.11 c -0.63,0.27 -1.17,0.49 -1.67,0.68 z m 88.28,71.47 -0.82,0.13 c -0.28,0 -0.56,0 -0.84,0 h -0.62 -0.71 -1.42 -5.69 c -0.34,0 -0.93,0 -1.66,0.1 a 32,32 0 0 0 0,-4.77 0.28,0.28 0 0 1 0,-0.09 q 2.19,1 4.45,1.72 l 0.2,0.06 a 54.73,54.73 0 0 0 9.31,2.23 8.46,8.46 0 0 1 -2.2,0.62 z M 276.13,156 275.7,155.95 a 34.74,34.74 0 0 0 -6.38,0 l -0.75,0.08 a 49.78,49.78 0 0 0 -16.73,5.14 c -0.36,0.14 -8.62,3.49 -11.25,9 l -0.3,0.63 a 79.43,79.43 0 0 1 -4.61,8.81 40.33,40.33 0 0 1 -5.5,6.78 84.37,84.37 0 0 0 -9.24,-3.59 0.74,0.74 0 0 0 -0.48,1.4 88.59,88.59 0 0 1 8.54,3.3 c 0.49,0.22 1,0.45 1.45,0.7 a 29.79,29.79 0 0 1 6.26,4.07 7.35,7.35 0 0 1 2.3,4.36 c 0.05,0.26 0.09,0.53 0.12,0.8 a 15.8,15.8 0 0 1 0,3.57 l -0.09,0.65 a 0.13,0.13 0 0 1 0,0.06 c 0,0.22 -0.07,0.44 -0.11,0.66 a 17.51,17.51 0 0 1 -0.41,1.73 c -1.52,5.23 -8.26,13.29 -12.35,16.86 a 1.09,1.09 0 0 0 -0.13,0.17 c -0.31,0.21 -0.54,0.36 -0.7,0.48 a 0.65,0.65 0 0 0 -0.17,0.92 0.67,0.67 0 0 0 0.55,0.29 0.68,0.68 0 0 0 0.38,-0.12 l 0.68,-0.46 a 0.76,0.76 0 0 0 0.37,-0.16 l 0.33,-0.31 1.11,-0.72 c 3.4,-2.23 5,-0.36 5.1,-0.24 0.1,0.12 0,0 0,0 a 0.36,0.36 0 0 0 0.16,0.14 0.54,0.54 0 0 0 0.24,0.09 12.56,12.56 0 0 1 2.68,0.65 4.71,4.71 0 0 0 2.58,0.32 c 0.35,-0.06 0.73,-0.16 1.14,-0.26 1.47,-0.37 3.15,-0.8 4.38,0.22 0.61,0.51 1.12,0.89 1.56,1.21 a 7.71,7.71 0 0 1 1.35,1.12 v 0 a 0.41,0.41 0 0 1 0.09,0.37 0.33,0.33 0 0 1 -0.13,0.19 h -0.06 a 2.43,2.43 0 0 1 -1.28,0 14.43,14.43 0 0 0 -4.22,-0.36 c -0.37,-0.4 -0.75,-0.79 -1.17,-1.18 -0.83,-0.74 -2.19,-0.95 -3.94,-0.61 a 0.67,0.67 0 0 0 0.25,1.31 3.38,3.38 0 0 1 2.79,0.29 11.92,11.92 0 0 1 2.5,3 v 0.07 h -0.05 a 5.79,5.79 0 0 1 -2.71,0.14 10.18,10.18 0 0 1 -2.06,-0.94 10,10 0 0 0 -1.89,-0.87 1.22,1.22 0 0 0 -1.13,0.24 1.14,1.14 0 0 0 -0.35,0.49 1.19,1.19 0 0 0 -0.1,0.65 A 3.41,3.41 0 0 1 234,229 l -0.36,0.77 a 0.13,0.13 0 0 1 -0.08,0.07 v 0 a 0.16,0.16 0 0 1 -0.14,0 6.14,6.14 0 0 0 -2.08,-1.41 c -1.2,-0.49 -0.63,-2.74 -0.62,-2.76 a 0.67,0.67 0 0 0 -0.47,-0.82 0.67,0.67 0 0 0 -0.81,0.47 5.71,5.71 0 0 0 -0.2,1.52 c -2.59,-1 -10.33,-3.62 -15.62,-0.79 -0.18,0.1 -0.3,0.13 -0.31,0.16 a 2.11,2.11 0 0 1 0.1,-1.2 8.21,8.21 0 0 1 4.57,-4.93 1.65,1.65 0 0 0 0.88,-1 1.8,1.8 0 0 0 -0.08,-1.42 c -1.89,-3.72 -3.5,-15.51 -2.65,-19.42 l 0.12,-0.51 a 16.42,16.42 0 0 1 0.6,-1.94 28.54,28.54 0 0 1 1.72,-3.75 0.74264729,0.74264729 0 0 0 -1.31,-0.7 27.3,27.3 0 0 0 -2.26,5.32 57.45,57.45 0 0 1 -6,2.34 l -0.28,0.1 c -0.73,0.24 -1.46,0.46 -2.19,0.67 a 66.33,66.33 0 0 1 -10.33,2.08 61.91,61.91 0 0 1 -14.58,0.09 h -0.18 a 56.71,56.71 0 0 1 -8.71,-1.77 c -0.73,-0.21 -1.46,-0.44 -2.17,-0.68 l -0.3,-0.11 a 52.12,52.12 0 0 1 -4.93,-2 25.8,25.8 0 0 0 -2.46,-6.06 0.73,0.73 0 0 0 -1,-0.3 0.74,0.74 0 0 0 -0.3,1 27.49,27.49 0 0 1 2,4.52 16.26,16.26 0 0 1 0.46,1.68 c 0,0.07 0,0.14 0.05,0.22 a 26.17,26.17 0 0 1 0.06,5.72 59.19,59.19 0 0 1 -1.88,11.12 14.89,14.89 0 0 1 -0.88,2.36 1.76,1.76 0 0 0 -0.08,1.42 1.6,1.6 0 0 0 0.87,1 8.23,8.23 0 0 1 4.58,4.93 4.78,4.78 0 0 1 0.16,1.17 0.87,0.87 0 0 1 -0.38,-0.13 c -5.26,-2.82 -13,-0.23 -15.62,0.8 a 6.2,6.2 0 0 0 -0.19,-1.53 0.67,0.67 0 0 0 -0.82,-0.46 0.65,0.65 0 0 0 -0.47,0.81 c 0,0 0.59,2.27 -0.62,2.76 a 6.29,6.29 0 0 0 -2.08,1.41 0.18,0.18 0 0 1 -0.14,0.05 0.19,0.19 0 0 1 -0.13,-0.1 L 146,229 a 3.43,3.43 0 0 1 -0.45,-1.8 1.28,1.28 0 0 0 -0.45,-1.13 1.22,1.22 0 0 0 -1.13,-0.25 10.61,10.61 0 0 0 -1.89,0.87 10.18,10.18 0 0 1 -2.06,0.94 4.94,4.94 0 0 1 -2.79,-0.23 l 0.23,-0.38 a 6.34,6.34 0 0 1 2.2,-2.53 4.88,4.88 0 0 1 2.69,0.08 h 0.15 a 0.66,0.66 0 0 0 0.78,-0.53 0.67,0.67 0 0 0 -0.53,-0.78 h -0.14 a 5.72,5.72 0 0 0 -3.57,0 5.33,5.33 0 0 0 -1.6,1.36 c -0.44,0 -1,0.08 -1.54,0.14 -1.2,0.14 -3.43,0.39 -3.83,-0.08 -0.06,-0.07 0,-0.24 0,-0.33 0.23,-0.84 2.54,-2.29 3.86,-2.77 a 5.63,5.63 0 0 1 3.37,0.1 c 0.41,0.1 0.83,0.19 1.27,0.27 a 10.91,10.91 0 0 0 4,-0.34 c 0.44,-0.09 0.87,-0.18 1.28,-0.24 l 5.37,-0.86 c 0.55,0.55 1.09,1.05 1.58,1.48 a 0.74,0.74 0 0 0 0.48,0.18 0.74,0.74 0 0 0 0.49,-1.3 58.11,58.11 0 0 1 -7.44,-8.22 30.22,30.22 0 0 1 -4.91,-8.64 18.57,18.57 0 0 1 -0.73,-4.71 c -0.06,-2.74 0.58,-5.47 2.5,-7.12 a 29.13,29.13 0 0 1 5.84,-3.86 c 0.47,-0.25 0.95,-0.49 1.44,-0.71 a 88.45,88.45 0 0 1 9,-3.48 0.74,0.74 0 0 0 0.46,-0.94 0.75,0.75 0 0 0 -0.94,-0.46 84.51,84.51 0 0 0 -9.67,3.79 c -1.86,-1.78 -3.75,-3.8 -5.76,-6.11 a 48.17,48.17 0 0 0 -7.69,-7.1 58,58 0 0 0 -21.33,-9.72 35,35 0 0 0 -12.25,-1 c -3.35,0.43 -7.6,2.33 -10.62,4 l -1.34,-17.25 c 0.58,-0.21 1.22,-0.48 2,-0.8 a 33.31,33.31 0 0 1 10.81,-3 c 7,-0.51 10.41,0.66 15.07,2.27 l 0.49,0.17 c 5.08,9.39 14.57,18.63 15,19 a 0.94,0.94 0 0 0 0.65,0.26 0.91,0.91 0 0 0 0.66,-0.29 0.89,0.89 0 0 0 0.24,-0.55 0.76,0.76 0 0 0 0.14,-0.83 c -0.82,-1.81 -1.6,-3.69 -2.3,-5.59 -3.67,-9.88 -5.4,-19.79 -5.6,-32.14 a 86.53,86.53 0 0 1 1.19,-11.43 c 0.48,-2.48 1.07,-5 1.64,-7.39 0.47,-2 0.95,-4 1.37,-6 0.22,-1 0.44,-2.1 0.63,-3.16 0.19,-1.06 0.31,-2 0.42,-3 a 5.51,5.51 0 0 1 0.54,-2 c 0.4,-0.73 0.88,-1.43 1.23,-2.18 0.35,-0.75 0.74,-1.52 1.08,-2.3 0.34,-0.78 0.65,-1.55 1,-2.33 0.35,-0.78 0.74,-1.71 1.16,-2.61 a 22.23,22.23 0 0 0 2.32,-6.9 1.48,1.48 0 0 1 0.86,0.67 4.36,4.36 0 0 1 0.41,2.1 56.36,56.36 0 0 1 -0.37,7.48 c -0.13,1.37 -0.26,2.78 -0.34,4.19 -0.23,4.31 -0.3,8.56 -0.22,12.61 0.07,3.71 0.27,7.2 0.58,10.52 a 34.58,34.58 0 0 1 -3.8,0.66 l -1.56,0.18 a 0.50089919,0.50089919 0 0 0 0.06,1 h 0.06 l 1.56,-0.18 a 34.63,34.63 0 0 0 3.78,-0.66 c 0.34,3.31 0.8,6.45 1.4,9.46 a 2.38,2.38 0 0 0 0.05,0.26 31.58,31.58 0 0 1 -5.6,1.15 0.5,0.5 0 0 0 -0.44,0.55 0.49,0.49 0 0 0 0.49,0.45 H 137 a 31,31 0 0 0 5.7,-1.17 67.55,67.55 0 0 0 2.62,9.24 l 0.1,0.25 a 29.67,29.67 0 0 1 -6.66,1.52 0.50062461,0.50062461 0 0 0 0.05,1 h 0.06 a 30.67,30.67 0 0 0 6.91,-1.58 72.2,72.2 0 0 0 4.54,9.61 27.65,27.65 0 0 1 -4.39,1.57 33.06,33.06 0 0 1 -4.64,0.92 0.50089919,0.50089919 0 0 0 0.06,1 h 0.06 a 33.85,33.85 0 0 0 4.78,-0.94 29,29 0 0 0 4.63,-1.67 68.61,68.61 0 0 0 6.33,9.08 26.45,26.45 0 0 1 -4,2.23 27.58,27.58 0 0 1 -8.94,2.51 0.50062461,0.50062461 0 1 0 0.05,1 27.72,27.72 0 0 0 9.3,-2.59 27.33,27.33 0 0 0 4.27,-2.37 57.69,57.69 0 0 0 7.76,7.58 25.36,25.36 0 0 1 -5.25,4.5 34.41,34.41 0 0 1 -6.44,3.34 0.5,0.5 0 0 0 -0.3,0.64 0.52,0.52 0 0 0 0.47,0.33 0.39,0.39 0 0 0 0.18,0 35.17,35.17 0 0 0 6.63,-3.43 26.09,26.09 0 0 0 5.49,-4.72 c 0.4,0.31 0.8,0.62 1.2,0.91 0.78,0.56 1.57,1.1 2.35,1.59 a 0.75,0.75 0 0 0 0.4,0.12 0.76,0.76 0 0 0 0.64,-0.35 0.75,0.75 0 0 0 -0.24,-1 c -0.75,-0.48 -1.52,-1 -2.27,-1.55 -9.28,-6.72 -17.19,-17.62 -21.68,-29.92 a 65.85,65.85 0 0 1 -2.82,-10.24 117.65,117.65 0 0 1 -2,-20.72 c -0.08,-4 0,-8.22 0.22,-12.5 0.07,-1.38 0.2,-2.78 0.33,-4.13 a 57.2,57.2 0 0 0 0.38,-7.67 5.71,5.71 0 0 0 -0.62,-2.81 3,3 0 0 0 -1.91,-1.43 5.39,5.39 0 0 0 -3.81,0.65 15.22,15.22 0 0 0 -4,3.94 33.09,33.09 0 0 1 -4.39,4.45 30.35,30.35 0 0 1 -9.32,5.78 l -0.92,0.31 A 17.44,17.44 0 0 1 103.03,90.5 13.59,13.59 0 0 1 97.74,84.62 c -4,-8.82 2.84,-16 7.29,-19.44 a 16.68,16.68 0 0 0 6.22,-10.48 c 0.43,-2.57 2,-5 4.73,-7.23 0,0 0,0 0,0 a 30.72,30.72 0 0 1 5.88,-3.68 l 0.09,-0.05 v 0 a 0.42,0.42 0 0 0 0.12,-0.06 c 4.4,-2.14 12.83,-5.18 19.86,-1.37 a 11.53,11.53 0 0 1 1.26,0.78 13,13 0 0 1 -1.47,1.17 0.75,0.75 0 0 0 -0.21,1 0.76,0.76 0 0 0 1,0.21 14,14 0 0 0 2.2,-1.83 0.63,0.63 0 0 0 0.23,-0.2 0.19,0.19 0 0 0 0.05,-0.1 13.55,13.55 0 0 0 3.56,-8.13 0.37,0.37 0 0 1 0.3,-0.34 0.37,0.37 0 0 1 0.41,0.15 c 0.2,0.31 0.4,0.62 0.58,1 a 12.13,12.13 0 0 1 -1.13,13.39 v 0 a 12,12 0 0 1 -2.33,2.23 0.75,0.75 0 0 0 0.88,1.21 14.52,14.52 0 0 0 1.67,-1.44 7.67,7.67 0 0 0 0.34,1.28 c 0.11,0.45 0.21,0.91 0.3,1.37 0.17,0.94 0.3,1.89 0.4,2.84 0.17,1.71 0.24,3.44 0.27,5.16 0,2 0.2,3.91 0.27,5.86 0.07,1.71 0.14,3.42 0.22,5.13 q 0.24,5.39 0.57,10.76 c 0.22,3.57 0.48,7.15 0.8,10.71 0.29,3.28 0.62,6.55 1.05,9.8 0.25,1.89 0.52,3.77 0.86,5.63 1,5.22 2,9.87 3.24,14.23 l 0.27,1 a 54.37,54.37 0 0 0 4.36,11.82 c 2.7,4.85 6.05,8.3 10,10.26 a 10.77,10.77 0 0 0 4.7,1.2 7.32,7.32 0 0 0 1.31,-0.11 6.74,6.74 0 0 0 5.39,-4.81 c 1,-3.5 0.16,-7 -0.67,-10.37 -0.22,-0.87 -0.43,-1.74 -0.61,-2.59 -2.56,-12.33 -4.95,-25.22 -7.3,-39.41 -1.89,-11.4 -3.35,-23.46 -4.32,-35.87 -0.62,-5.28 -1.58,-15.7 -1.19,-20.47 a 13,13 0 0 0 1.25,0.76 0.72,0.72 0 0 0 0.35,0.08 0.73,0.73 0 0 0 0.66,-0.4 0.75,0.75 0 0 0 -0.31,-1 A 11.5,11.5 0 0 1 165.76,20 c 0.13,-0.33 0.27,-0.65 0.42,-1 a 0.32,0.32 0 0 1 0.33,-0.17 0.33,0.33 0 0 1 0.3,0.25 12.94,12.94 0 0 0 7.07,8.92 0.75,0.75 0 0 0 0.65,-1.35 11,11 0 0 1 -1.49,-0.87 c 0.34,-0.31 0.7,-0.61 1.07,-0.89 6,-4.45 14.22,-2.82 18.63,-1.41 l 0.28,0.09 v 0 h 0.14 a 29.75,29.75 0 0 1 6.08,2.73 c 2.85,1.73 4.66,3.8 5.4,6.17 a 15.92,15.92 0 0 0 7.36,9.11 c 4.66,2.68 12.07,8.5 9.43,17.34 a 12.85,12.85 0 0 1 -4.19,6.22 16.59,16.59 0 0 1 -13.77,3.63 c -0.3,0 -0.61,-0.11 -0.91,-0.18 a 22,22 0 0 1 -3.07,-0.9 31.19,31.19 0 0 1 -6.47,-3.3 c -0.69,-0.46 -1.6,-1.06 -2.49,-1.72 a 23.56,23.56 0 0 1 -2.27,-1.92 14.54,14.54 0 0 0 -4.26,-3.17 5.39,5.39 0 0 0 -2.82,-0.34 v 0 h -0.05 a 3,3 0 0 0 -2.44,1.83 5.5,5.5 0 0 0 -0.21,2.75 c 0.88,8.64 3.27,17 5.49,24.14 5.34,17.09 10.35,33.86 12.91,51.1 0.35,2.4 0.62,4.59 0.82,6.71 a 57.25,57.25 0 0 1 -1.21,18.32 0.75,0.75 0 0 0 0.56,0.9 h 0.17 a 0.75,0.75 0 0 0 0.73,-0.58 58.43,58.43 0 0 0 1.24,-18.79 c -0.2,-2.15 -0.47,-4.37 -0.83,-6.79 -2.57,-17.35 -7.6,-34.18 -13,-51.33 -2.2,-7 -4.56,-15.34 -5.43,-23.85 a 4.21,4.21 0 0 1 0.11,-2 1.36,1.36 0 0 1 0.66,-0.7 21,21 0 0 0 3.1,6.17 c 0.51,0.79 1,1.54 1.43,2.3 a 38.87,38.87 0 0 0 4.17,6.19 15.61,15.61 0 0 0 2.18,2.08 v 0 c 1.75,6 3.69,12.53 5.79,18.9 l -0.54,0.27 a 32.4,32.4 0 0 1 -3.47,1.42 0.49,0.49 0 0 0 -0.36,0.72 0.5,0.5 0 0 0 0.48,0.34 h 0.16 a 33.51,33.51 0 0 0 3.66,-1.49 l 0.35,-0.18 c 1,2.84 1.93,5.63 2.93,8.31 l -1.15,0.59 a 35.13,35.13 0 0 1 -3.57,1.45 0.50635956,0.50635956 0 0 0 0.16,1 0.45,0.45 0 0 0 0.16,0 33.9,33.9 0 0 0 3.69,-1.49 c 0.33,-0.16 0.69,-0.35 1.06,-0.55 q 1.73,4.52 3.35,8.69 c -0.79,0.47 -1.6,0.92 -2.45,1.33 -0.85,0.41 -1.91,0.86 -2.86,1.21 a 0.5,0.5 0 0 0 -0.3,0.64 0.51,0.51 0 0 0 0.47,0.32 0.38,0.38 0 0 0 0.18,0 c 1,-0.35 2,-0.77 2.94,-1.23 0.94,-0.46 1.62,-0.84 2.39,-1.29 0.92,2.35 1.82,4.66 2.73,6.92 0.31,0.8 0.64,1.59 1,2.38 a 35.46,35.46 0 0 1 -3.58,2 32.65,32.65 0 0 1 -3.53,1.44 0.50635956,0.50635956 0 0 0 0.16,1 0.45,0.45 0 0 0 0.16,0 30.84,30.84 0 0 0 3.64,-1.48 34.74,34.74 0 0 0 3.53,-2 c 0.43,1.06 0.85,2.13 1.29,3.2 0.86,2.11 1.6,4.16 2.25,6.15 a 27.67,27.67 0 0 1 -3.36,1.89 30.27,30.27 0 0 1 -5.29,2 0.51,0.51 0 0 0 -0.36,0.62 0.5,0.5 0 0 0 0.49,0.37 h 0.12 a 32.86,32.86 0 0 0 5.47,-2 32.12,32.12 0 0 0 3.24,-1.81 76.12,76.12 0 0 1 2.53,10.78 29.49,29.49 0 0 1 -6.69,2.91 31.94,31.94 0 0 1 -3.42,0.82 l -0.58,0.09 a 0.5012235,0.5012235 0 0 0 0.07,1 h 0.08 l 0.6,-0.1 a 29.76,29.76 0 0 0 3.54,-0.85 30.9,30.9 0 0 0 6.56,-2.79 64.24,64.24 0 0 1 0.59,12.53 29.67,29.67 0 0 1 -7.92,2.11 c -0.62,0.09 -1.26,0.16 -1.89,0.2 a 0.5,0.5 0 0 0 0,1 v 0 c 0.66,-0.05 1.32,-0.12 2,-0.21 a 31.64,31.64 0 0 0 7.71,-2 56.27,56.27 0 0 1 -1.15,8.06 0.75,0.75 0 0 0 0.57,0.89 h 0.16 a 0.76,0.76 0 0 0 0.74,-0.59 64.87,64.87 0 0 0 -0.7,-29.26 c 8.14,-12.32 12.9,-23.25 15.52,-33.83 1.71,-6.92 2.88,-14 3.7,-19.29 0.94,-6 1.74,-12.32 2.4,-18.75 a 0.31,0.31 0 0 1 0,-0.08 c 0.15,-2.26 1.21,-15.24 2.49,-20.34 a 12.45,12.45 0 0 0 1.08,1 0.8,0.8 0 0 0 0.46,0.16 0.72,0.72 0 0 0 0.59,-0.29 0.75,0.75 0 0 0 -0.12,-1 11.51,11.51 0 0 1 -2.72,-15 10.38,10.38 0 0 1 0.59,-0.88 0.29,0.29 0 0 1 0.35,-0.11 0.32,0.32 0 0 1 0.24,0.3 12.93,12.93 0 0 0 5.38,10 0.74,0.74 0 0 0 1,-0.16 0.75,0.75 0 0 0 -0.16,-1.05 10.22,10.22 0 0 1 -1.21,-1.4 c 0.4,-0.24 0.8,-0.47 1.22,-0.67 6.79,-3.34 14.65,-0.17 18.72,2 l 0.1,0.05 h 0.07 l 0.12,0.07 a 29,29 0 0 1 5.5,3.77 c 2.49,2.21 3.9,4.57 4.2,7 a 16,16 0 0 0 5.55,10.23 c 4.09,3.47 10.34,10.52 6.17,18.74 a 12.87,12.87 0 0 1 -5.24,5.38 16.69,16.69 0 0 1 -15.06,0.77 23.05,23.05 0 0 1 -2.85,-1.44 31.53,31.53 0 0 1 -5.79,-4.41 c -0.88,-0.84 -1.54,-1.49 -2.13,-2.13 a 23.87,23.87 0 0 1 -1.9,-2.31 14.54,14.54 0 0 0 -3.68,-3.77 5.52,5.52 0 0 0 -2.72,-0.84 h -0.07 a 3,3 0 0 0 -2.71,1.36 5.55,5.55 0 0 0 -0.71,2.66 c -0.28,3.69 -0.33,7.41 -0.37,11 0,3 -0.06,6 -0.24,9.09 V 96 a 186,186 0 0 1 -10.39,50.71 c -2,5.75 -5.31,14.23 -10.27,21.48 a 0.74,0.74 0 0 0 0.19,1 0.73,0.73 0 0 0 1,-0.19 c 1.23,-1.8 2.36,-3.67 3.39,-5.55 a 26.6,26.6 0 0 0 3,1.27 35.67,35.67 0 0 0 6.59,1.63 h 0.06 a 0.5012235,0.5012235 0 0 0 0.07,-1 34.2,34.2 0 0 1 -6.39,-1.59 25.9,25.9 0 0 1 -2.87,-1.2 98.8,98.8 0 0 0 4.88,-10.56 c 0.68,0.3 1.38,0.58 2.08,0.83 a 34.91,34.91 0 0 0 6.85,1.66 h 0.06 a 0.50089919,0.50089919 0 0 0 0.06,-1 33.57,33.57 0 0 1 -6.64,-1.62 c -0.7,-0.24 -1.38,-0.52 -2,-0.82 0.52,-1.35 1,-2.63 1.39,-3.8 q 1,-2.92 2,-5.88 c 0.77,0.2 1.56,0.38 2.35,0.52 a 32.7,32.7 0 0 0 5.52,0.56 0.51,0.51 0 0 0 0.5,-0.5 0.49,0.49 0 0 0 -0.49,-0.5 32,32 0 0 1 -5.36,-0.54 c -0.74,-0.14 -1.49,-0.31 -2.22,-0.5 1,-3.21 1.92,-6.45 2.75,-9.69 a 30.85,30.85 0 0 0 7.28,1.05 0.5,0.5 0 0 0 0,-1 29.58,29.58 0 0 1 -7.06,-1 q 1.19,-4.69 2.11,-9.41 a 32.17,32.17 0 0 0 5.79,0.68 H 248 a 0.5,0.5 0 0 0 0.5,-0.5 0.5,0.5 0 0 0 -0.5,-0.5 h -0.6 a 31.29,31.29 0 0 1 -5.62,-0.66 q 1,-5.16 1.68,-10.28 a 34.56,34.56 0 0 0 4.54,0.56 0.5,0.5 0 0 0 0,-1 31.69,31.69 0 0 1 -4.44,-0.55 c 0.51,-4 0.89,-8 1.11,-12 v -0.27 c 0.18,-3.07 0.21,-6.16 0.24,-9.16 0,-3.57 0.09,-7.27 0.37,-10.91 a 4.18,4.18 0 0 1 0.47,-2 1.45,1.45 0 0 1 0.77,-0.58 21.07,21.07 0 0 0 1.95,6.63 c 0.37,0.87 0.71,1.7 1,2.53 0.5,1.4 1,2.8 1.62,4.16 0.29,0.64 0.63,1.22 1,1.82 a 7.61,7.61 0 0 1 0.69,2 42.91,42.91 0 0 1 0.68,5.3 c 0.38,3.74 0.79,7.48 0.89,11.24 0,0.16 0,0.32 0,0.47 q 0.09,4.72 -0.24,9.44 c -0.57,8.07 -2.76,16.49 -5.08,25.4 -0.72,2.76 -1.46,5.61 -2.14,8.43 a 1.52,1.52 0 0 0 0.75,1.72 1.55,1.55 0 0 0 0.75,0.19 1.58,1.58 0 0 0 1.11,-0.48 80.52,80.52 0 0 0 8.67,-10.66 l 1.45,-0.48 c 4.89,-1.65 8.42,-2.83 15.79,-2.37 a 36.11,36.11 0 0 1 11.32,3 c 0.8,0.32 1.49,0.59 2.1,0.8 l -1.34,17.19 A 28.18,28.18 0 0 0 276.19,156 Z"
       id="path968" />
    <path
       class="cls-2"
       d="m 176.65,177.37 a 33.09,33.09 0 0 0 10.92,2.34 h 1.38 a 32.66,32.66 0 0 0 12.56,-2.5 v 0 l 0.63,-0.27 a 0.5,0.5 0 1 0 -0.4,-0.91 l -0.61,0.26 v 0 a 32,32 0 0 1 -24.1,0.12 0.5,0.5 0 0 0 -0.65,0.28 0.49,0.49 0 0 0 0.27,0.68 z"
       id="path970" />
    <path
       class="cls-2"
       d="m 205.79,192.71 a 40.86,40.86 0 0 1 -18.21,3.58 41.47,41.47 0 0 1 -14.76,-3.2 0.51,0.51 0 0 0 -0.66,0.27 0.49,0.49 0 0 0 0.27,0.65 42.52,42.52 0 0 0 15.12,3.28 h 1.4 a 41.88,41.88 0 0 0 17.25,-3.69 0.52,0.52 0 0 0 0.25,-0.67 0.49,0.49 0 0 0 -0.66,-0.22 z"
       id="path972" />
    <path
       class="cls-2"
       d="m 173.83,185.76 a 39.71,39.71 0 0 0 13.73,2.93 c 0.45,0 0.91,0 1.36,0 a 39.17,39.17 0 0 0 15.69,-3.26 l 0.59,-0.26 a 0.5,0.5 0 0 0 0.24,-0.67 0.49,0.49 0 0 0 -0.66,-0.24 l -0.58,0.26 a 38.09,38.09 0 0 1 -16.61,3.15 38.72,38.72 0 0 1 -13.38,-2.86 0.50231962,0.50231962 0 0 0 -0.38,0.93 z"
       id="path974" />
    <path
       class="cls-2"
       d="m 189.2,31 h 0.3 a 8.56,8.56 0 0 1 2.08,3 10.63,10.63 0 0 1 0.6,1.78 9.56,9.56 0 0 1 0.29,1.71 2.42,2.42 0 0 1 -1.68,1.51 c -1.5,0.3 -3.06,-1.26 -3.5,-3.47 -0.44,-2.21 0.41,-4.25 1.91,-4.53 z"
       id="path976" />
    <path
       class="cls-2"
       d="m 199.17,30.23 a 1.63,1.63 0 0 1 0.76,0 8.44,8.44 0 0 1 1.42,2.57 7.16,7.16 0 0 1 0.3,1 10.9,10.9 0 0 1 0.26,1.55 2,2 0 0 1 -1.43,1.44 c -1.24,0.24 -2.51,-1 -2.87,-2.84 -0.36,-1.84 0.39,-3.48 1.56,-3.72 z"
       id="path978" />
  </g>
  <g
     id="Highlight_Dots"
     data-name="Highlight Dots"
     transform="translate(-17.32641,-12.820349)">
    <g
       class="cls-5"
       id="g983">
      <ellipse
         class="cls-2"
         cx="145.10001"
         cy="93.040001"
         rx="1.08"
         ry="1.89"
         transform="rotate(-2.92,145.24432,93.216234)"
         id="ellipse981" />
    </g>
    <g
       class="cls-5"
       id="g987">
      <ellipse
         class="cls-2"
         cx="149.12"
         cy="101.6"
         rx="1.08"
         ry="1.89"
         transform="rotate(-2.92,149.34519,101.7618)"
         id="ellipse985" />
    </g>
    <g
       class="cls-5"
       id="g991">
      <ellipse
         class="cls-2"
         cx="131.8"
         cy="43.040001"
         rx="1.89"
         ry="1.08"
         transform="rotate(-2.3,131.69983,43.010738)"
         id="ellipse989" />
    </g>
    <g
       class="cls-5"
       id="g995">
      <ellipse
         class="cls-2"
         cx="127.49"
         cy="43.849998"
         rx="0.94"
         ry="0.54000002"
         transform="rotate(-14.41,127.54396,43.850409)"
         id="ellipse993" />
    </g>
    <g
       class="cls-5"
       id="g999">
      <ellipse
         class="cls-2"
         cx="136.59"
         cy="43.040001"
         rx="0.54000002"
         ry="0.94"
         transform="rotate(-89.38,136.58463,43.049193)"
         id="ellipse997" />
    </g>
    <g
       class="cls-5"
       id="g1003">
      <ellipse
         class="cls-2"
         cx="182.69"
         cy="25.040001"
         rx="1.89"
         ry="1.08"
         transform="rotate(-0.23,186.78381,25.286175)"
         id="ellipse1001" />
    </g>
    <g
       class="cls-5"
       id="g1007">
      <ellipse
         class="cls-2"
         cx="178.92999"
         cy="26.27"
         rx="0.94"
         ry="0.54000002"
         transform="rotate(-12.35,178.89219,26.27461)"
         id="ellipse1005" />
    </g>
    <g
       class="cls-5"
       id="g1011">
      <ellipse
         class="cls-2"
         cx="187.47"
         cy="25.219999"
         rx="0.54000002"
         ry="0.94"
         transform="rotate(-87.31,187.47039,25.219802)"
         id="ellipse1009" />
    </g>
    <g
       class="cls-5"
       id="g1015">
      <ellipse
         class="cls-2"
         cx="254.89999"
         cy="39.419998"
         rx="1.08"
         ry="1.89"
         transform="rotate(-79.29,254.88931,39.427985)"
         id="ellipse1013" />
    </g>
    <g
       class="cls-5"
       id="g1019">
      <ellipse
         class="cls-2"
         cx="250.52"
         cy="39.240002"
         rx="0.94"
         ry="0.54000002"
         transform="rotate(-1.4,250.83042,39.082698)"
         id="ellipse1017" />
    </g>
    <g
       class="cls-5"
       id="g1023">
      <ellipse
         class="cls-2"
         cx="259.56"
         cy="40.5"
         rx="0.54000002"
         ry="0.94"
         transform="rotate(-76.36,259.57581,40.494566)"
         id="ellipse1021" />
    </g>
    <g
       class="cls-5"
       id="g1027">
      <ellipse
         class="cls-2"
         cx="147"
         cy="108.61"
         rx="1.08"
         ry="1.89"
         transform="rotate(-2.92,147.20343,108.77413)"
         id="ellipse1025" />
    </g>
    <g
       class="cls-5"
       id="g1031">
      <ellipse
         class="cls-2"
         cx="151.97"
         cy="115.48"
         rx="0.61000001"
         ry="1.0700001"
         transform="rotate(-2.92,152.134,115.57412)"
         id="ellipse1029" />
    </g>
    <g
       class="cls-5"
       id="g1035">
      <ellipse
         class="cls-2"
         cx="177.47"
         cy="75.25"
         rx="1.08"
         ry="1.89"
         transform="rotate(-13.86,177.45312,75.252393)"
         id="ellipse1033" />
    </g>
    <g
       class="cls-5"
       id="g1039">
      <ellipse
         class="cls-2"
         cx="177.28999"
         cy="84.709999"
         rx="1.08"
         ry="1.89"
         transform="rotate(-12.25,177.26673,84.675108)"
         id="ellipse1037" />
    </g>
    <g
       class="cls-5"
       id="g1043">
      <ellipse
         class="cls-2"
         cx="182.00999"
         cy="90.309998"
         rx="1.08"
         ry="1.89"
         transform="rotate(-12.69,181.96998,90.292087)"
         id="ellipse1041" />
    </g>
    <g
       class="cls-5"
       id="g1047">
      <ellipse
         class="cls-2"
         cx="180.27"
         cy="98.610001"
         rx="0.61000001"
         ry="1.0700001"
         transform="rotate(-10.96,180.25843,98.608913)"
         id="ellipse1045" />
    </g>
    <g
       class="cls-5"
       id="g1051">
      <ellipse
         class="cls-2"
         cx="239.49001"
         cy="81.900002"
         rx="1.89"
         ry="1.08"
         transform="rotate(-88.09,239.48456,81.89813)"
         id="ellipse1049" />
    </g>
    <g
       class="cls-5"
       id="g1055">
      <ellipse
         class="cls-2"
         cx="236.74001"
         cy="91.43"
         rx="1.89"
         ry="1.08"
         transform="rotate(-86.48,236.73639,91.433997)"
         id="ellipse1053" />
    </g>
    <g
       class="cls-5"
       id="g1059">
      <ellipse
         class="cls-2"
         cx="239.85001"
         cy="98.059998"
         rx="1.89"
         ry="1.08"
         transform="rotate(-86.92,239.835,98.060251)"
         id="ellipse1057" />
    </g>
    <g
       class="cls-5"
       id="g1063">
      <ellipse
         class="cls-2"
         cx="235.91"
         cy="105.58"
         rx="1.0700001"
         ry="0.61000001"
         transform="rotate(-85.19,235.9065,105.57714)"
         id="ellipse1061" />
    </g>
    <g
       class="cls-5"
       id="g1067">
      <ellipse
         class="cls-2"
         cx="143.23"
         cy="198.24001"
         rx="1.08"
         ry="1.89"
         transform="rotate(-2.92,143.34902,198.38654)"
         id="ellipse1065" />
    </g>
    <g
       class="cls-5"
       id="g1071">
      <ellipse
         class="cls-2"
         cx="145.78999"
         cy="193.91"
         rx="1.46"
         ry="0.83999997"
         transform="rotate(-45.85,145.81356,193.91647)"
         id="ellipse1069" />
    </g>
    <g
       class="cls-5"
       id="g1075">
      <ellipse
         class="cls-2"
         cx="144.14"
         cy="203.21001"
         rx="0.83999997"
         ry="1.46"
         transform="rotate(-19.23,144.13143,203.21755)"
         id="ellipse1073" />
    </g>
  </g>
</svg>
