<svg xmlns="http://www.w3.org/2000/svg" viewBox="0 0 512 512" style="enable-background:new 0 0 512 512" xml:space="preserve">
    <path style="fill:#d34317" d="M120.266 100.71c-2.722-.02-5.39.018-8.002.112-10.697.388-20.492 1.75-29.24 4.104-9.019 2.426-16.966 5.915-23.647 10.506-6.968 4.787-12.45 10.7-16.305 17.634-5.333 10.444-6.015 21.126-5.271 29.84.388 4.548 1.175 8.682 1.96 12.086 2.293 9.93 5.823 18.595 7.286 21.873a6.028 6.028 0 0 0 11.01-4.912c-1.396-3.128-4.85-10.61-6.498-19.441-.557-2.982-.971-6.478-.967-10.203.007-7.275 1.604-14.827 6.09-21.385 2.769-4.543 6.665-8.482 11.822-11.744 4.993-3.159 11.22-5.714 18.771-7.49 7.33-1.725 15.814-2.693 25.418-2.788 9.373-.092 19.727.646 30.957 2.282 21.933 3.193 46.924 9.764 73.762 19.869 3.566 1.342 7.22 2.898 10.838 4.361 5.579-2.884 11.158-5.759 16.635-8.367 2.816-1.341 5.54-2.48 8.324-3.748-9.713-4.15-19.351-8.055-28.775-11.416-28.167-10.046-54.682-16.507-78.282-19.404-9.072-1.114-17.72-1.703-25.886-1.768zm164.293 47.136c-2.87 1.111-5.662 2.104-8.584 3.3-5.708 2.337-11.554 4.918-17.438 7.583a565.59 565.59 0 0 1 40.996 21.873c27.908 16.39 52.963 34.253 74.39 52.445 21.764 18.477 39.505 37.053 52.763 54.576 6.765 8.942 12.298 17.523 16.617 25.62 4.417 8.28 7.497 15.929 9.369 22.855 1.925 7.12 2.527 13.301 2.129 18.572-.408 5.4-1.866 9.907-4.131 13.723-2.214 3.729-5.426 7.173-10.006 10.16-4.315 2.814-9.936 5.277-17.129 7.066-6.82 1.697-14.917 2.75-24.336 2.947-9.029.19-19.146-.409-30.289-1.92-21.365-2.896-46.106-9.093-73.107-19.007-26.032-9.558-53.805-22.445-81.922-38.686-26.88-15.538-51.498-32.675-72.781-50.219l-5.924-5.314a39.685 39.685 0 0 0 5.78-20.623 39.685 39.685 0 0 0-39.686-39.686 39.685 39.685 0 0 0-39.686 39.686 39.685 39.685 0 0 0 39.686 39.685 39.685 39.685 0 0 0 12.353-1.972l9.99 9.361c22.445 18.63 48.324 36.695 76.494 52.94 29.443 16.99 58.662 30.534 86.248 40.619 28.575 10.445 55.279 17.14 78.936 20.265 12.358 1.633 23.915 2.298 34.555 2.02 11.082-.29 21.227-1.605 30.322-3.945 9.599-2.47 18.09-6.1 25.291-10.93 7.773-5.214 13.841-11.694 18.123-19.219 4.373-7.684 6.749-16.224 7.246-25.324.478-8.737-.78-17.854-3.494-27.162-2.64-9.057-6.69-18.408-11.992-27.928-5.194-9.326-11.632-18.888-19.215-28.566-14.849-18.951-34.17-38.45-57.273-57.463-22.786-18.75-49.185-36.967-78.372-53.54-8.666-4.92-17.309-9.456-25.923-13.792z"/>
    <path style="fill:#ff5722" d="M433.082 257.193c-3.96-4.411-8.09-8.834-12.496-13.261-2.122-2.132-4.481-4.26-6.703-6.391-5.055 5.735-10.62 11.475-16.432 17.203 2 1.982 4.142 3.977 6.043 5.95a327.088 327.088 0 0 1 12.414 13.607c.12.138.214.272.332.41 5.915-5.795 11.577-11.63 16.842-17.518zm-16.842 17.518c-.118-.138-.213-.272-.332-.41a327.088 327.088 0 0 0-12.414-13.608c-1.9-1.972-4.044-3.967-6.043-5.949-7.72 7.61-15.933 15.191-24.836 22.643l-3.908 2.74a39.685 39.685 0 0 0-18.896-4.787 39.685 39.685 0 0 0-39.686 39.685 39.685 39.685 0 0 0 39.686 39.686 39.685 39.685 0 0 0 39.683-39.686 39.685 39.685 0 0 0-2.68-14.334l3.35-2.3c9.253-7.719 17.886-15.656 26.076-23.68zM395.623 96.33c-9.892.027-20.081.842-30.295 2.251-10.068 1.39-20.19 3.362-30.164 5.754-15.049 3.609-31.316 8.547-48.539 14.973-10.773 4.019-21.996 8.786-33.416 13.99a558.463 558.463 0 0 0-24.959 12.115c-9.052 4.68-18.178 9.597-27.426 15.02-28.446 16.68-54.697 35.245-77.654 54.771-1.046.89-1.983 1.797-3.014 2.69a39.685 39.685 0 0 1 .242.13 39.685 39.685 0 0 1 .463.258 39.685 39.685 0 0 1 .46.266 39.685 39.685 0 0 1 .454.27 39.685 39.685 0 0 1 .452.277 39.685 39.685 0 0 1 .447.283 39.685 39.685 0 0 1 .445.289 39.685 39.685 0 0 1 .44.293 39.685 39.685 0 0 1 .437.3 39.685 39.685 0 0 1 .432.307 39.685 39.685 0 0 1 .427.313 39.685 39.685 0 0 1 .424.316 39.685 39.685 0 0 1 .42.324 39.685 39.685 0 0 1 .416.329 39.685 39.685 0 0 1 .41.336 39.685 39.685 0 0 1 .407.34 39.685 39.685 0 0 1 .402.343 39.685 39.685 0 0 1 .396.352 39.685 39.685 0 0 1 .393.355 39.685 39.685 0 0 1 .387.361 39.685 39.685 0 0 1 .383.366 39.685 39.685 0 0 1 .378.37 39.685 39.685 0 0 1 .374.378 39.685 39.685 0 0 1 .367.38 39.685 39.685 0 0 1 .363.387 39.685 39.685 0 0 1 .357.391 39.685 39.685 0 0 1 .352.396 39.685 39.685 0 0 1 .348.4 39.685 39.685 0 0 1 .341.405 39.685 39.685 0 0 1 .336.41 39.685 39.685 0 0 1 .33.412 39.685 39.685 0 0 1 .327.42 39.685 39.685 0 0 1 .318.422 39.685 39.685 0 0 1 .314.426 39.685 39.685 0 0 1 .309.432 39.685 39.685 0 0 1 .3.435 39.685 39.685 0 0 1 .298.44 39.685 39.685 0 0 1 .29.441 39.685 39.685 0 0 1 .286.447 39.685 39.685 0 0 1 .277.451 39.685 39.685 0 0 1 .274.454 39.685 39.685 0 0 1 .265.459 39.685 39.685 0 0 1 .262.46 39.685 39.685 0 0 1 .254.465 39.685 39.685 0 0 1 .226.426c.558-.461 1.056-.928 1.618-1.389 22.201-18.205 47.588-35.582 75.109-51.214a557.004 557.004 0 0 1 45.371-23.078c8.897-4.03 17.546-7.6 26.022-10.883 3.669-1.421 7.398-2.934 10.974-4.22 16.387-5.886 31.688-10.331 45.674-13.534 9.275-2.124 18.558-3.836 27.666-5.012 10.582-1.366 20.797-1.99 30.328-1.725 8.981.25 17.159 1.285 24.309 3.127 6.847 1.765 12.515 4.208 16.996 7.205 4.293 2.872 7.507 6.257 9.748 10.163 2.193 3.822 3.528 8.277 3.85 13.527.32 5.244-.373 11.334-2.334 18.273-1.953 6.91-5.108 14.46-9.516 22.537-4.42 8.1-10.02 16.58-16.73 25.297-3.59 4.663-7.497 9.355-11.641 14.057 2.222 2.131 4.581 4.259 6.703 6.39 4.406 4.428 8.535 8.85 12.496 13.262 5.032-5.627 9.838-11.273 14.205-16.935 7.449-9.657 13.883-19.335 19.104-28.89 5.194-9.51 9.229-18.977 11.843-28.245 2.625-9.304 3.854-18.54 3.29-27.46-.576-9.092-3.009-17.72-7.528-25.522-4.611-7.962-10.957-14.313-18.379-19.217-7.607-5.027-16.286-8.502-25.424-10.793-9.555-2.396-19.823-3.55-30.35-3.764a181.49 181.49 0 0 0-4.22-.037zM83.131 288.093a39.685 39.685 0 0 1-.055-.028 39.685 39.685 0 0 1-.469-.246 39.685 39.685 0 0 1-.466-.252 39.685 39.685 0 0 1-.463-.257 39.685 39.685 0 0 1-.46-.266 39.685 39.685 0 0 1-.454-.27 39.685 39.685 0 0 1-.452-.277 39.685 39.685 0 0 1-.447-.283 39.685 39.685 0 0 1-.445-.29 39.685 39.685 0 0 1-.44-.292 39.685 39.685 0 0 1-.437-.3 39.685 39.685 0 0 1-.432-.308 39.685 39.685 0 0 1-.427-.312 39.685 39.685 0 0 1-.424-.316 39.685 39.685 0 0 1-.42-.325 39.685 39.685 0 0 1-.416-.328 39.685 39.685 0 0 1-.41-.336 39.685 39.685 0 0 1-.407-.34 39.685 39.685 0 0 1-.402-.343 39.685 39.685 0 0 1-.396-.352 39.685 39.685 0 0 1-.393-.355 39.685 39.685 0 0 1-.387-.362 39.685 39.685 0 0 1-.383-.365 39.685 39.685 0 0 1-.378-.371 39.685 39.685 0 0 1-.373-.377 39.685 39.685 0 0 1-.368-.38 39.685 39.685 0 0 1-.363-.388 39.685 39.685 0 0 1-.357-.39 39.685 39.685 0 0 1-.352-.397 39.685 39.685 0 0 1-.348-.4 39.685 39.685 0 0 1-.341-.404 39.685 39.685 0 0 1-.336-.41 39.685 39.685 0 0 1-.33-.413 39.685 39.685 0 0 1-.327-.42 39.685 39.685 0 0 1-.318-.421 39.685 39.685 0 0 1-.314-.426 39.685 39.685 0 0 1-.309-.432 39.685 39.685 0 0 1-.3-.435 39.685 39.685 0 0 1-.298-.44 39.685 39.685 0 0 1-.29-.441 39.685 39.685 0 0 1-.286-.448 39.685 39.685 0 0 1-.277-.45 39.685 39.685 0 0 1-.11-.182c-.069.092-.153.185-.222.277-7.308 9.716-13.505 19.333-18.463 28.717-5.003 9.468-8.766 18.734-11.133 27.66-2.406 9.077-3.384 17.858-2.715 26.154.689 8.541 3.113 16.43 7.334 23.438 3.18 5.193 7.179 9.577 11.737 13.226 4.755 3.808 10.093 6.798 15.736 9.12 12.437 5.117 26.675 7.124 40.64 7.38 18.03.331 36.091-2.239 51.012-5.256 7.828-1.582 14.899-3.309 20.733-4.84 18.241-4.785 33.635-10.143 38.814-12.011a6.166 6.166 0 0 0-4.183-11.6c-5.231 1.887-19.778 7.221-37.684 11.666a300.967 300.967 0 0 1-20.053 4.266c-14.482 2.558-31.532 4.392-48.1 3.424-12.922-.755-24.955-3.194-34.66-7.834-4.342-2.076-8.104-4.539-11.226-7.381-2.974-2.708-5.368-5.758-7.158-9.17-2.451-4.545-3.827-9.724-4.041-15.61-.211-5.782.7-12.316 2.908-19.581 2.172-7.148 5.564-14.887 10.226-23.12 4.37-7.716 9.89-15.8 16.358-24.097z"/>
    <path style="fill:#d34317" d="M284.559 147.846s-22.758-10.674-31.35-14.547c-4.288 1.643-17.76 8.044-24.959 12.115 10.37 4.14 30.287 13.315 30.287 13.315z"/>
</svg>
