<svg xmlns:osb="http://www.openswatchbook.org/uri/2009/osb" xmlns="http://www.w3.org/2000/svg" height="64" width="64" viewBox="0 0 120 120"><title>tsl</title><g class="nc-icon-wrapper" id="g861"><defs id="defs848"><linearGradient id="linearGradient2803" osb:paint="solid"><stop offset="0" id="stop2801" stop-color="#f60" stop-opacity="1"></stop></linearGradient></defs><path d="M89 100.79c-1.32 2.17-3.68 3.63-6.39 3.64a7.4 7.4 0 0 1-1.59-0.18 68.79 68.79 0 0 1-7.5 10.32 56.03 56.03 0 0 0 23.89-12.61 53.93 53.93 0 0 1-8.41-1.17z" id="path3035" fill="#ff7f2a" fill-opacity="1" stroke="none" stroke-width="1.89" stroke-linecap="square" stroke-linejoin="round" stroke-miterlimit="4" stroke-dasharray="none" stroke-opacity="1" paint-order="normal"></path><path d="M45.63 83.05c-7.81 6.34-14.54 13.69-19.33 21.97a55.99 55.99 0 0 0 33.7 11.2c2.43 0 4.82-0.17 7.17-0.47 3.9-3.63 7.42-8.13 10.48-13.25-1.54-1.38-2.54-3.36-2.54-5.57 0-0.27 0.05-0.53 0.09-0.8-7.15-3.24-14.18-7.68-20.79-13.02a7.42 7.42 0 0 1-4.35 1.43c-1.66 0-3.18-0.57-4.43-1.49z" id="path3031" fill="#ff7f2a" fill-opacity="1" stroke="none" stroke-width="1.89" stroke-linecap="square" stroke-linejoin="round" stroke-miterlimit="4" stroke-dasharray="none" stroke-opacity="1" paint-order="normal"></path><path d="M85.25 61.71a136.53 136.53 0 0 0-16.94 6.94 128.6 128.6 0 0 0-11.12 6.18c0.22 0.7 0.37 1.44 0.37 2.21 0 1.14-0.28 2.21-0.74 3.19 6.31 5.07 13.01 9.25 19.74 12.32a7.49 7.49 0 0 1 6.05-3.12c0.42 0 0.82 0.06 1.22 0.12a94.47 94.47 0 0 0 5.49-23.56c0.02-0.23 0.03-0.47 0.04-0.7a7.53 7.53 0 0 1-4.11-3.58z" id="path3027" fill="#f95" fill-opacity="1" stroke="none" stroke-width="1.89" stroke-linecap="square" stroke-linejoin="round" stroke-miterlimit="4" stroke-dasharray="none" stroke-opacity="1" paint-order="normal"></path><path d="M116.04 55.72c-5 0.1-10.68 0.81-16.73 2.1 0.01 0.15 0.04 0.28 0.05 0.43 0 3.68-2.7 6.75-6.22 7.37-0.02 0.25-0.04 0.5-0.06 0.75a98.37 98.37 0 0 1-5.78 24.76c1.7 1.38 2.82 3.46 2.81 5.8 0 0.07-0.02 0.14-0.02 0.22 3.79 0.82 7.51 1.23 11.09 1.12a56.01 56.01 0 0 0 15.04-38.27c0-1.44-0.07-2.87-0.18-4.28z" id="path3025" fill="#fca" fill-opacity="1" stroke="none" stroke-width="1.89" stroke-linecap="square" stroke-linejoin="round" stroke-miterlimit="4" stroke-dasharray="none" stroke-opacity="1" paint-order="normal"></path><path d="M25.08 47.63c-0.64 0.18-1.3 0.31-2 0.31-0.12 0-0.24-0.03-0.36-0.04-5.17 16.89-5.73 35.84-1.81 52.49 0.79 0.77 1.6 1.51 2.43 2.23 5.05-8.55 11.95-16.07 19.89-22.53a7.4 7.4 0 0 1-0.67-3.05c0-1.39 0.41-2.68 1.08-3.8-7.34-7.63-13.73-16.35-18.56-25.61z" id="path3021" fill="#ff7f2a" fill-opacity="1" stroke="none" stroke-width="1.89" stroke-linecap="square" stroke-linejoin="round" stroke-miterlimit="4" stroke-dasharray="none" stroke-opacity="1" paint-order="normal"></path><path d="M17.77 45.71c-5.01 3.11-9.7 6.74-13.89 11.04a55.98 55.98 0 0 0 12.1 38.22c-2.62-15.71-1.63-32.72 3.13-48.2a7.58 7.58 0 0 1-1.34-1.06z" id="path3019" fill="#ff7f2a" fill-opacity="1" stroke="none" stroke-width="1.89" stroke-linecap="square" stroke-linejoin="round" stroke-miterlimit="4" stroke-dasharray="none" stroke-opacity="1" paint-order="normal"></path><path d="M94.96 32.52a7.54 7.54 0 0 1-3.42 3.92c1 4.81 1.61 9.65 1.87 14.48a7.54 7.54 0 0 1 4.73 3.27c6.25-1.35 12.18-2.11 17.5-2.23a55.84 55.84 0 0 0-4.89-16.17c-4.72-1.36-10.07-2.46-15.79-3.27z" id="path3015" fill="#fca" fill-opacity="1" stroke="none" stroke-width="1.89" stroke-linecap="square" stroke-linejoin="round" stroke-miterlimit="4" stroke-dasharray="none" stroke-opacity="1" paint-order="normal"></path><path d="M76.52 31.09c-1.37-0.02-2.75-0.02-4.14 0.01a134.09 134.09 0 0 0-14.86 1.11c-9.23 1.22-18.42 3.49-27.06 7.02 0.07 0.39 0.12 0.79 0.12 1.21 0 2.07-0.86 3.95-2.23 5.31 4.64 8.94 10.85 17.41 17.97 24.83a7.39 7.39 0 0 1 3.74-1.04c1.99 0 3.79 0.8 5.14 2.08a133.78 133.78 0 0 1 11.44-6.36 140.76 140.76 0 0 1 17.74-7.26c0.11-3.24 2.3-5.95 5.27-6.88a92.82 92.82 0 0 0-1.74-13.72c-3.66-0.02-6.7-2.71-7.32-6.2a165.1 165.1 0 0 0-4.07-0.11z" id="path3013" fill="#f95" fill-opacity="1" stroke="none" stroke-width="1.89" stroke-linecap="square" stroke-linejoin="round" stroke-miterlimit="4" stroke-dasharray="none" stroke-opacity="1" paint-order="normal"></path><path d="M16.76 24.06a55.96 55.96 0 0 0-12.23 26.83 78.07 78.07 0 0 1 11.35-8.48 7.34 7.34 0 0 1-0.3-1.97c0-2.74 1.51-5.12 3.72-6.43a77.05 77.05 0 0 1-2.54-9.95z" id="path3009" fill="#ff7f2a" fill-opacity="1" stroke="none" stroke-width="1.89" stroke-linecap="square" stroke-linejoin="round" stroke-miterlimit="4" stroke-dasharray="none" stroke-opacity="1" paint-order="normal"></path><path d="M80.07 7.48a86.26 86.26 0 0 1 7.43 14.97c0.16-0.01 0.3-0.05 0.46-0.05 3.71 0 6.8 2.75 7.38 6.31a127.7 127.7 0 0 1 12.97 2.52 56.33 56.33 0 0 0-28.24-23.75z" id="path3007" fill="#fca" fill-opacity="1" stroke="none" stroke-width="1.89" stroke-linecap="square" stroke-linejoin="round" stroke-miterlimit="4" stroke-dasharray="none" stroke-opacity="1" paint-order="normal"></path><path d="M49.73 4.73a56.06 56.06 0 0 0-29.72 15.75c0.56 4.16 1.57 8.33 2.93 12.47 0.05 0 0.09-0.02 0.14-0.01 0.5 0 0.99 0.05 1.47 0.15 5.8-11.66 14.16-21.68 25.18-28.36z" id="path3005" fill="#ff7f2a" fill-opacity="1" stroke="none" stroke-width="1.89" stroke-linecap="square" stroke-linejoin="round" stroke-miterlimit="4" stroke-dasharray="none" stroke-opacity="1" paint-order="normal"></path><path d="M60.12 3.79c-14.58 5.69-25.27 17-32.21 30.97 0.36 0.31 0.69 0.65 0.99 1.02 9.02-3.71 18.59-6.06 28.13-7.32a138.44 138.44 0 0 1 15.27-1.15 137.92 137.92 0 0 1 8.61 0.13 7.55 7.55 0 0 1 2.98-3.82 81.88 81.88 0 0 0-9.59-18 56.38 56.38 0 0 0-14.18-1.83z" id="path3003" fill="#f95" fill-opacity="1" stroke="none" stroke-width="1.89" stroke-linecap="square" stroke-linejoin="round" stroke-miterlimit="4" stroke-dasharray="none" stroke-opacity="1" paint-order="normal"></path></g></svg>