<?xml version="1.0" encoding="UTF-8" standalone="no"?>
<svg
   xmlns:dc="http://purl.org/dc/elements/1.1/"
   xmlns:cc="http://creativecommons.org/ns#"
   xmlns:rdf="http://www.w3.org/1999/02/22-rdf-syntax-ns#"
   xmlns:svg="http://www.w3.org/2000/svg"
   xmlns="http://www.w3.org/2000/svg"
   xmlns:sodipodi="http://sodipodi.sourceforge.net/DTD/sodipodi-0.dtd"
   xmlns:inkscape="http://www.inkscape.org/namespaces/inkscape"
   version="1.1"
   id="Layer_1"
   x="0px"
   y="0px"
   viewBox="0 0 512.002 512.002"
   style="enable-background:new 0 0 512.002 512.002;"
   xml:space="preserve"
   sodipodi:docname="tsl_logo.svg"
   inkscape:version="1.0.1 (c497b03c, 2020-09-10)"><metadata
   id="metadata904"><rdf:RDF><cc:Work
       rdf:about=""><dc:format>image/svg+xml</dc:format><dc:type
         rdf:resource="http://purl.org/dc/dcmitype/StillImage" /></cc:Work></rdf:RDF></metadata><defs
   id="defs902"><inkscape:path-effect
     effect="powerstroke"
     id="path-effect889"
     is_visible="true"
     lpeversion="1"
     offset_points="0.15921461,6.1648943 | 2.4,13.22835 | 4.64,13.22835"
     sort_points="true"
     interpolator_type="CentripetalCatmullRom"
     interpolator_beta="0.2"
     start_linecap_type="round"
     linejoin_type="round"
     miter_limit="4"
     scale_width="1"
     end_linecap_type="round" /><inkscape:path-effect
     effect="powerstroke"
     id="path-effect880"
     is_visible="true"
     lpeversion="1"
     offset_points="0.31463688,6.0272007 | 3,13.22835 | 5.8,13.22835"
     sort_points="true"
     interpolator_type="CentripetalCatmullRom"
     interpolator_beta="0.2"
     start_linecap_type="round"
     linejoin_type="round"
     miter_limit="4"
     scale_width="1"
     end_linecap_type="round" /><inkscape:path-effect
     effect="skeletal"
     id="path-effect972"
     is_visible="true"
     lpeversion="1"
     pattern="M 0,5 C 0,2.24 2.24,0 5,0 7.76,0 10,2.24 10,5 10,7.76 7.76,10 5,10 2.24,10 0,7.76 0,5 Z"
     copytype="single_stretched"
     prop_scale="1"
     scale_y_rel="false"
     spacing="0"
     normal_offset="0"
     tang_offset="0"
     prop_units="false"
     vertical_pattern="false"
     hide_knot="false"
     fuse_tolerance="0" /><inkscape:path-effect
     effect="skeletal"
     id="path-effect968"
     is_visible="true"
     lpeversion="1"
     pattern="M 0,5 C 0,2.24 2.24,0 5,0 7.76,0 10,2.24 10,5 10,7.76 7.76,10 5,10 2.24,10 0,7.76 0,5 Z"
     copytype="single_stretched"
     prop_scale="1"
     scale_y_rel="false"
     spacing="0"
     normal_offset="0"
     tang_offset="0"
     prop_units="false"
     vertical_pattern="false"
     hide_knot="false"
     fuse_tolerance="0" /><inkscape:path-effect
     effect="skeletal"
     id="path-effect964"
     is_visible="true"
     lpeversion="1"
     pattern="M 0,5 C 0,2.24 2.24,0 5,0 7.76,0 10,2.24 10,5 10,7.76 7.76,10 5,10 2.24,10 0,7.76 0,5 Z"
     copytype="single_stretched"
     prop_scale="1"
     scale_y_rel="false"
     spacing="0"
     normal_offset="0"
     tang_offset="0"
     prop_units="false"
     vertical_pattern="false"
     hide_knot="false"
     fuse_tolerance="0" /></defs><sodipodi:namedview
   pagecolor="#ffffff"
   bordercolor="#666666"
   borderopacity="1"
   objecttolerance="10"
   gridtolerance="10"
   guidetolerance="10"
   inkscape:pageopacity="0"
   inkscape:pageshadow="2"
   inkscape:window-width="1792"
   inkscape:window-height="982"
   id="namedview900"
   showgrid="false"
   inkscape:zoom="0.40053188"
   inkscape:cx="275.83788"
   inkscape:cy="-251.20469"
   inkscape:window-x="0"
   inkscape:window-y="25"
   inkscape:window-maximized="0"
   inkscape:current-layer="Layer_1"
   inkscape:document-rotation="0" />














<g
   id="g869"
   transform="matrix(0.92822752,0,0,1.0178223,73.995312,-8.9659509)"
   style="stroke-width:27.21901189;stroke-miterlimit:4;stroke-dasharray:none">
</g>
<g
   id="g871"
   transform="matrix(0.92822752,0,0,1.0178223,73.995312,-8.9659509)"
   style="stroke-width:27.21901189;stroke-miterlimit:4;stroke-dasharray:none">
</g>
<g
   id="g873"
   transform="matrix(0.92822752,0,0,1.0178223,73.995312,-8.9659509)"
   style="stroke-width:27.21901189;stroke-miterlimit:4;stroke-dasharray:none">
</g>
<g
   id="g875"
   transform="matrix(0.92822752,0,0,1.0178223,73.995312,-8.9659509)"
   style="stroke-width:27.21901189;stroke-miterlimit:4;stroke-dasharray:none">
</g>
<g
   id="g877"
   transform="matrix(0.92822752,0,0,1.0178223,73.995312,-8.9659509)"
   style="stroke-width:27.21901189;stroke-miterlimit:4;stroke-dasharray:none">
</g>
<g
   id="g879"
   transform="matrix(0.92822752,0,0,1.0178223,73.995312,-8.9659509)"
   style="stroke-width:27.21901189;stroke-miterlimit:4;stroke-dasharray:none">
</g>
<g
   id="g881"
   transform="matrix(0.92822752,0,0,1.0178223,73.995312,-8.9659509)"
   style="stroke-width:27.21901189;stroke-miterlimit:4;stroke-dasharray:none">
</g>
<g
   id="g883"
   transform="matrix(0.92822752,0,0,1.0178223,73.995312,-8.9659509)"
   style="stroke-width:27.21901189;stroke-miterlimit:4;stroke-dasharray:none">
</g>
<g
   id="g885"
   transform="matrix(0.92822752,0,0,1.0178223,73.995312,-8.9659509)"
   style="stroke-width:27.21901189;stroke-miterlimit:4;stroke-dasharray:none">
</g>
<g
   id="g887"
   transform="matrix(0.92822752,0,0,1.0178223,73.995312,-8.9659509)"
   style="stroke-width:27.21901189;stroke-miterlimit:4;stroke-dasharray:none">
</g>
<g
   id="g889"
   transform="matrix(0.92822752,0,0,1.0178223,73.995312,-8.9659509)"
   style="stroke-width:27.21901189;stroke-miterlimit:4;stroke-dasharray:none">
</g>
<g
   id="g891"
   transform="matrix(0.92822752,0,0,1.0178223,73.995312,-8.9659509)"
   style="stroke-width:27.21901189;stroke-miterlimit:4;stroke-dasharray:none">
</g>
<g
   id="g893"
   transform="matrix(0.92822752,0,0,1.0178223,73.995312,-8.9659509)"
   style="stroke-width:27.21901189;stroke-miterlimit:4;stroke-dasharray:none">
</g>
<g
   id="g895"
   transform="matrix(0.92822752,0,0,1.0178223,73.995312,-8.9659509)"
   style="stroke-width:27.21901189;stroke-miterlimit:4;stroke-dasharray:none">
</g>
<g
   id="g897"
   transform="matrix(0.92822752,0,0,1.0178223,73.995312,-8.9659509)"
   style="stroke-width:27.21901189;stroke-miterlimit:4;stroke-dasharray:none">
</g>
<path
   id="path981"
   style="fill:#ff7f2a;fill-rule:nonzero;stroke:none;stroke-width:26.4567;stroke-linecap:square;stroke-linejoin:round;stroke-miterlimit:4;stroke-dasharray:none"
   d="M 395.62305 96.330078 C 385.73061 96.358485 375.54196 97.172802 365.32812 98.582031 C 355.26002 99.971155 345.13798 101.94412 335.16406 104.33594 C 320.11528 107.94474 303.84833 112.88305 286.625 119.30859 C 259.82478 129.30702 230.71736 142.90476 200.82422 160.43359 C 172.37828 177.11381 146.12663 195.67932 123.16992 215.20508 C 100.70885 234.30927 81.662902 254.11478 67.048828 273.54297 C 59.740713 283.25849 53.544484 292.87623 48.585938 302.25977 C 43.582833 311.72762 39.819831 320.99354 37.453125 329.91992 C 35.046578 338.99658 34.069468 347.7781 34.738281 356.07422 C 35.426824 364.61504 37.850643 372.50389 42.072266 379.51172 C 45.251741 384.70535 49.250787 389.08901 53.808594 392.73828 C 58.564204 396.54593 63.902302 399.53581 69.544922 401.85742 C 81.982118 406.97459 96.220241 408.98183 110.18555 409.23828 C 128.21509 409.56936 146.27611 406.99925 161.19727 403.98242 C 169.02475 402.39983 176.09592 400.67302 181.92969 399.14258 C 200.17132 394.35706 215.56532 388.99899 220.74414 387.13086 C 223.94691 385.97553 225.60649 382.44105 224.45117 379.23828 C 223.29584 376.03551 219.76333 374.37593 216.56055 375.53125 C 211.32993 377.41807 196.78314 382.75229 178.87695 387.19727 C 173.20987 388.60406 166.3746 390.12942 158.82422 391.46289 C 144.34171 394.02064 127.29159 395.85489 110.72461 394.88672 C 97.802017 394.13152 85.769103 391.69252 76.064453 387.05273 C 71.722283 384.97674 67.959593 382.51396 64.837891 379.67188 C 61.863658 376.96404 59.469991 373.914 57.679688 370.50195 C 55.228546 365.95714 53.853428 360.77842 53.638672 354.89258 C 53.427686 349.11002 54.338954 342.57564 56.546875 335.31055 C 58.719072 328.16302 62.111029 320.42376 66.773438 312.19141 C 71.388395 304.04285 77.191937 295.50846 84.144531 286.71875 C 98.067101 269.11736 116.31038 250.85389 138.05664 233.02148 C 160.2584 214.81557 185.64492 197.43881 213.16602 181.80664 C 242.08408 165.38099 270.03718 152.78643 295.5332 143.62695 C 311.91997 137.73998 327.22096 133.29482 341.20703 130.0918 C 350.48219 127.96765 359.76516 126.25578 368.87305 125.08008 C 379.45533 123.71405 389.67048 123.09006 399.20117 123.35547 C 408.18216 123.60557 416.35975 124.64014 423.50977 126.48242 C 430.35683 128.24664 436.02492 130.68985 440.50586 133.6875 C 444.79889 136.55944 448.01305 139.9437 450.25391 143.84961 C 452.4466 147.67156 453.78229 152.12737 454.10352 157.37695 C 454.4244 162.62099 453.73093 168.71141 451.76953 175.65039 C 449.81659 182.55942 446.66232 190.10986 442.25391 198.1875 C 437.83345 206.28722 432.2342 214.76681 425.52344 223.48438 C 411.74069 241.38876 393.7146 259.72656 372.61523 277.38672 L 368.70703 280.12695 A 39.68504 39.68504 0 0 0 349.81055 275.33984 A 39.68504 39.68504 0 0 0 310.125 315.02539 A 39.68504 39.68504 0 0 0 349.81055 354.71094 A 39.68504 39.68504 0 0 0 389.49414 315.02539 A 39.68504 39.68504 0 0 0 386.81445 300.69141 L 390.16406 298.39062 C 412.48665 279.76961 432.02358 260.04582 447.28711 240.25781 C 454.73572 230.60124 461.17032 220.92336 466.39062 211.36719 C 471.58483 201.85879 475.61981 192.39116 478.23438 183.12305 C 480.85901 173.81923 482.08786 164.58376 481.52344 155.66211 C 480.94832 146.57125 478.51525 137.94334 473.99609 130.14062 C 469.38485 122.17897 463.03865 115.82772 455.61719 110.92383 C 448.01013 105.89731 439.33075 102.42151 430.19336 100.13086 C 420.63794 97.735416 410.36998 96.58177 399.84375 96.367188 C 398.44343 96.338641 397.03625 96.32602 395.62305 96.330078 z " /><path
   id="ellipse904"
   style="fill:#d34317;fill-rule:nonzero;stroke:none;stroke-width:26.4567;stroke-linecap:square;stroke-linejoin:round;stroke-miterlimit:4;stroke-dasharray:none;fill-opacity:1"
   d="M 120.26562 100.71094 C 117.54377 100.6894 114.87608 100.7275 112.26367 100.82227 C 101.5672 101.21028 91.771704 102.57237 83.023438 104.92578 C 74.005342 107.35179 66.058219 110.84109 59.376953 115.43164 C 52.409358 120.21892 46.927441 126.13216 43.072266 133.06641 C 37.739151 143.50971 37.056915 154.19231 37.800781 162.90625 C 38.188971 167.45366 38.975977 171.58773 39.761719 174.99219 C 42.053576 184.92232 45.584301 193.58664 47.046875 196.86523 C 48.402999 199.90519 51.967851 201.27018 55.007812 199.91406 C 58.047776 198.55794 59.412764 194.9931 58.056641 191.95312 C 56.661258 188.82515 53.206321 181.34259 51.558594 172.51172 C 51.002216 169.52986 50.587862 166.03396 50.591797 162.30859 C 50.599497 155.03431 52.196464 147.48218 56.681641 140.92383 C 59.450601 136.38115 63.347117 132.44211 68.503906 129.17969 C 73.49658 126.02109 79.72321 123.4663 87.275391 121.68945 C 94.604763 119.96502 103.08904 118.9973 112.69336 118.90234 C 122.06636 118.80964 132.42049 119.54832 143.65039 121.18359 C 165.58261 124.37729 190.57376 130.9476 217.41211 141.05273 C 220.97807 142.39538 224.63271 143.95072 228.25 145.41406 C 233.82876 142.52979 239.40788 139.65513 244.88477 137.04688 C 247.70068 135.70585 250.42422 134.56781 253.20898 133.29883 C 243.49618 129.14811 233.85767 125.24393 224.43359 121.88281 C 196.26678 111.83706 169.75213 105.37557 146.15234 102.47852 C 137.08028 101.36486 128.43127 100.77556 120.26562 100.71094 z M 284.55859 147.8457 C 281.68866 148.95731 278.8967 149.9503 275.97461 151.14648 C 270.26744 153.48277 264.42102 156.06372 258.53711 158.72852 C 272.06576 165.24345 285.78296 172.52585 299.5332 180.60156 C 327.4412 196.99234 352.49617 214.85498 373.92383 233.04688 C 395.68709 251.52369 413.42791 270.10022 426.68555 287.62305 C 433.45093 296.56497 438.98422 305.14634 443.30273 313.24219 C 447.7197 321.52263 450.79969 329.17157 452.67188 336.09766 C 454.59661 343.21817 455.19902 349.39916 454.80078 354.66992 C 454.39278 360.06975 452.93519 364.57688 450.66992 368.39258 C 448.45589 372.12197 445.24391 375.56565 440.66406 378.55273 C 436.34915 381.367 430.72797 383.83012 423.53516 385.61914 C 416.71444 387.31561 408.61833 388.36864 399.19922 388.56641 C 390.17015 388.75599 380.05348 388.15723 368.91016 386.64648 C 347.5449 383.7499 322.80414 377.55276 295.80273 367.63867 C 269.77133 358.08074 241.99752 345.19379 213.88086 328.95312 C 187.00166 313.41476 162.38305 296.27837 141.09961 278.73438 L 135.17578 273.41992 A 39.68504 39.68504 0 0 0 140.95508 252.79688 A 39.68504 39.68504 0 0 0 101.26953 213.11133 A 39.68504 39.68504 0 0 0 61.583984 252.79688 A 39.68504 39.68504 0 0 0 101.26953 292.48242 A 39.68504 39.68504 0 0 0 113.62305 290.50977 L 123.61328 299.87109 C 146.05753 318.50138 171.93677 336.56584 200.10742 352.81055 C 229.54958 369.8015 258.76927 383.34548 286.35547 393.42969 C 314.92994 403.87517 341.63403 410.56977 365.29102 413.69531 C 377.64917 415.32805 389.20556 415.99347 399.8457 415.71484 C 410.9278 415.42463 421.07347 414.10994 430.16797 411.76953 C 439.76695 409.2993 448.25891 405.66923 455.45898 400.83984 C 463.23202 395.62615 469.30018 389.1457 473.58203 381.62109 C 477.95455 373.93712 480.33088 365.39732 480.82812 356.29688 C 481.30552 347.55982 480.04727 338.44303 477.33398 329.13477 C 474.69388 320.07761 470.64388 310.72676 465.3418 301.20703 C 460.14752 291.88085 453.71049 282.31916 446.12695 272.64062 C 431.27796 253.68953 411.95795 234.19076 388.85352 215.17773 C 366.06793 196.42707 339.66851 178.2114 310.48242 161.63867 C 301.8158 156.71751 293.17336 152.18178 284.55859 147.8457 z " /><ellipse
   style="fill:#808000;stroke:none;stroke-width:52.5743;stroke-linecap:square;stroke-linejoin:round;stroke-miterlimit:4;stroke-dasharray:none"
   id="path915"
   cx="76.598267"
   cy="221.80536"
   r="39.68504" /><ellipse
   style="fill:#808000;stroke:none;stroke-width:52.5743;stroke-linecap:square;stroke-linejoin:round;stroke-miterlimit:4;stroke-dasharray:none"
   id="ellipse988"
   cx="76.598267"
   cy="221.80536"
   r="39.68504" /><ellipse
   style="fill:#808000;stroke:none;stroke-width:52.5743;stroke-linecap:square;stroke-linejoin:round;stroke-miterlimit:4;stroke-dasharray:none"
   id="ellipse995"
   cx="76.598267"
   cy="221.80536"
   r="39.68504" /><ellipse
   style="fill:#808000;stroke:none;stroke-width:52.5743;stroke-linecap:square;stroke-linejoin:round;stroke-miterlimit:4;stroke-dasharray:none"
   id="ellipse997"
   cx="76.598267"
   cy="221.80536"
   r="39.68504" /><path
   id="path1010"
   style="fill:#ff5722;fill-rule:nonzero;stroke:none;stroke-width:26.4567;stroke-linecap:square;stroke-linejoin:round;stroke-miterlimit:4;stroke-dasharray:none;fill-opacity:1"
   d="m 433.08203,257.19336 c -3.96071,-4.41152 -8.08989,-8.83433 -12.49609,-13.26172 -2.12155,-2.13175 -4.48117,-4.25952 -6.70313,-6.39062 -5.05485,5.73502 -10.61947,11.47463 -16.43164,17.20312 1.99924,1.98199 4.14208,3.97688 6.04297,5.94922 4.40641,4.57204 8.54645,9.11302 12.41406,13.60742 0.11911,0.13841 0.21345,0.27184 0.33203,0.41016 5.91452,-5.79454 11.57699,-11.63041 16.8418,-17.51758 z m -16.8418,17.51758 c -0.11858,-0.13832 -0.21292,-0.27175 -0.33203,-0.41016 -3.86761,-4.4944 -8.00765,-9.03538 -12.41406,-13.60742 -1.90089,-1.97234 -4.04373,-3.96723 -6.04297,-5.94922 -7.72039,7.60924 -15.9334,15.19116 -24.83594,22.64258 l -3.9082,2.74023 a 39.68504,39.68504 0 0 0 -18.89648,-4.78711 39.68504,39.68504 0 0 0 -39.68555,39.68555 39.68504,39.68504 0 0 0 39.68555,39.68555 39.68504,39.68504 0 0 0 39.68359,-39.68555 39.68504,39.68504 0 0 0 -2.67969,-14.33398 l 3.34961,-2.30079 c 9.25303,-7.71866 17.88639,-15.65602 26.07617,-23.67968 z M 395.62305,96.330078 c -9.89244,0.02841 -20.08108,0.842724 -30.29493,2.251953 -10.0681,1.389124 -20.19014,3.362089 -30.16406,5.753909 -15.04878,3.6088 -31.31573,8.54711 -48.53906,14.97265 -10.77307,4.01914 -21.99615,8.78636 -33.41602,13.99024 -8.20105,3.73711 -16.51192,7.74802 -24.95898,12.11523 -9.05195,4.67995 -18.17841,9.59703 -27.42578,15.01953 -28.44594,16.68022 -54.69759,35.24573 -77.6543,54.77149 -1.04542,0.88918 -1.98314,1.79734 -3.01367,2.68945 a 39.68504,39.68504 0 0 1 0.24219,0.13086 39.68504,39.68504 0 0 1 0.46289,0.25781 39.68504,39.68504 0 0 1 0.45898,0.26563 39.68504,39.68504 0 0 1 0.45508,0.26953 39.68504,39.68504 0 0 1 0.45117,0.27734 39.68504,39.68504 0 0 1 0.44727,0.28321 39.68504,39.68504 0 0 1 0.44531,0.28906 39.68504,39.68504 0 0 1 0.43945,0.29297 39.68504,39.68504 0 0 1 0.4375,0.30078 39.68504,39.68504 0 0 1 0.43164,0.30664 39.68504,39.68504 0 0 1 0.42774,0.3125 39.68504,39.68504 0 0 1 0.42383,0.31641 39.68504,39.68504 0 0 1 0.41992,0.32421 39.68504,39.68504 0 0 1 0.41601,0.32813 39.68504,39.68504 0 0 1 0.41016,0.33594 39.68504,39.68504 0 0 1 0.40625,0.33984 39.68504,39.68504 0 0 1 0.40234,0.34375 39.68504,39.68504 0 0 1 0.39649,0.35156 39.68504,39.68504 0 0 1 0.39258,0.35547 39.68504,39.68504 0 0 1 0.38672,0.36133 39.68504,39.68504 0 0 1 0.38281,0.36523 39.68504,39.68504 0 0 1 0.3789,0.3711 39.68504,39.68504 0 0 1 0.37305,0.37695 39.68504,39.68504 0 0 1 0.36719,0.38086 39.68504,39.68504 0 0 1 0.36328,0.38672 39.68504,39.68504 0 0 1 0.35742,0.39062 39.68504,39.68504 0 0 1 0.35156,0.39649 39.68504,39.68504 0 0 1 0.34766,0.40039 39.68504,39.68504 0 0 1 0.3418,0.4043 39.68504,39.68504 0 0 1 0.33594,0.41015 39.68504,39.68504 0 0 1 0.33007,0.41211 39.68504,39.68504 0 0 1 0.32617,0.41992 39.68504,39.68504 0 0 1 0.31836,0.42188 39.68504,39.68504 0 0 1 0.31446,0.42578 39.68504,39.68504 0 0 1 0.30859,0.43164 39.68504,39.68504 0 0 1 0.30078,0.43555 39.68504,39.68504 0 0 1 0.29688,0.43945 39.68504,39.68504 0 0 1 0.29101,0.44141 39.68504,39.68504 0 0 1 0.28516,0.44726 39.68504,39.68504 0 0 1 0.27734,0.45117 39.68504,39.68504 0 0 1 0.27344,0.45313 39.68504,39.68504 0 0 1 0.26563,0.45898 39.68504,39.68504 0 0 1 0.26171,0.46094 39.68504,39.68504 0 0 1 0.25391,0.46485 39.68504,39.68504 0 0 1 0.22656,0.42578 c 0.55731,-0.46141 1.05519,-0.92782 1.61719,-1.38868 22.20176,-18.20591 47.58828,-35.58267 75.10938,-51.21484 15.49131,-8.79917 30.66299,-16.4169 45.37109,-23.07812 8.89648,-4.02918 17.54624,-7.6001 26.02148,-10.88282 3.66907,-1.42113 7.39813,-2.93389 10.97461,-4.21875 16.38677,-5.88697 31.68776,-10.33213 45.67383,-13.53515 9.27516,-2.12415 18.55813,-3.83602 27.66602,-5.01172 10.58228,-1.36603 20.79743,-1.99002 30.32812,-1.72461 8.98099,0.2501 17.15858,1.28467 24.3086,3.12695 6.84706,1.76422 12.51515,4.20743 16.99609,7.20508 4.29303,2.87194 7.50719,6.2562 9.74805,10.16211 2.19269,3.82195 3.52838,8.27776 3.84961,13.52734 0.32088,5.24404 -0.37259,11.33446 -2.33399,18.27344 -1.95294,6.90903 -5.10721,14.45947 -9.51562,22.53711 -4.42046,8.09972 -10.01971,16.57931 -16.73047,25.29688 -3.58931,4.66266 -7.49643,9.35481 -11.64063,14.05664 2.22196,2.1311 4.58158,4.25887 6.70313,6.39062 4.4062,4.42739 8.53538,8.8502 12.49609,13.26172 5.03227,-5.62714 9.8377,-11.27357 14.20508,-16.93555 7.44861,-9.65657 13.88322,-19.33445 19.10351,-28.89062 5.19421,-9.5084 9.22918,-18.97603 11.84376,-28.24414 2.62463,-9.30382 3.85348,-18.53929 3.28906,-27.46094 -0.57512,-9.09086 -3.00819,-17.71877 -7.52735,-25.52149 -4.61124,-7.96165 -10.95744,-14.3129 -18.3789,-19.21679 -7.60706,-5.02652 -16.28644,-8.50232 -25.42383,-10.79297 -9.55542,-2.395445 -19.82338,-3.54909 -30.34961,-3.763672 -1.40032,-0.02855 -2.8075,-0.04117 -4.2207,-0.03711 z M 83.130859,288.09375 a 39.68504,39.68504 0 0 1 -0.05469,-0.0273 39.68504,39.68504 0 0 1 -0.46875,-0.2461 39.68504,39.68504 0 0 1 -0.466797,-0.25195 39.68504,39.68504 0 0 1 -0.462891,-0.25781 39.68504,39.68504 0 0 1 -0.458984,-0.26563 39.68504,39.68504 0 0 1 -0.455078,-0.26953 39.68504,39.68504 0 0 1 -0.451172,-0.27734 39.68504,39.68504 0 0 1 -0.447266,-0.28321 39.68504,39.68504 0 0 1 -0.445312,-0.28906 39.68504,39.68504 0 0 1 -0.439453,-0.29297 39.68504,39.68504 0 0 1 -0.4375,-0.30078 39.68504,39.68504 0 0 1 -0.431641,-0.30664 39.68504,39.68504 0 0 1 -0.427734,-0.3125 39.68504,39.68504 0 0 1 -0.423828,-0.31641 39.68504,39.68504 0 0 1 -0.419922,-0.32421 39.68504,39.68504 0 0 1 -0.416016,-0.32813 39.68504,39.68504 0 0 1 -0.410156,-0.33594 39.68504,39.68504 0 0 1 -0.40625,-0.33984 39.68504,39.68504 0 0 1 -0.402344,-0.34375 39.68504,39.68504 0 0 1 -0.396484,-0.35156 39.68504,39.68504 0 0 1 -0.392578,-0.35547 39.68504,39.68504 0 0 1 -0.386719,-0.36133 39.68504,39.68504 0 0 1 -0.382813,-0.36523 39.68504,39.68504 0 0 1 -0.378906,-0.3711 39.68504,39.68504 0 0 1 -0.373047,-0.37695 39.68504,39.68504 0 0 1 -0.367187,-0.38086 39.68504,39.68504 0 0 1 -0.363282,-0.38672 39.68504,39.68504 0 0 1 -0.357421,-0.39062 39.68504,39.68504 0 0 1 -0.351563,-0.39649 39.68504,39.68504 0 0 1 -0.347656,-0.40039 39.68504,39.68504 0 0 1 -0.341797,-0.4043 39.68504,39.68504 0 0 1 -0.335937,-0.41015 39.68504,39.68504 0 0 1 -0.330079,-0.41211 39.68504,39.68504 0 0 1 -0.326171,-0.41992 39.68504,39.68504 0 0 1 -0.31836,-0.42188 39.68504,39.68504 0 0 1 -0.314453,-0.42578 39.68504,39.68504 0 0 1 -0.308594,-0.43164 39.68504,39.68504 0 0 1 -0.300781,-0.43555 39.68504,39.68504 0 0 1 -0.296875,-0.43945 39.68504,39.68504 0 0 1 -0.291016,-0.44141 39.68504,39.68504 0 0 1 -0.285156,-0.44726 39.68504,39.68504 0 0 1 -0.277344,-0.45117 39.68504,39.68504 0 0 1 -0.109375,-0.18165 c -0.0694,0.092 -0.153451,0.18535 -0.222656,0.27735 -7.308115,9.71552 -13.504345,19.33326 -18.46289,28.7168 -5.003105,9.46785 -8.766107,18.73377 -11.132813,27.66015 -2.406547,9.07666 -3.383657,17.85818 -2.714844,26.1543 0.688543,8.54082 3.112362,16.42967 7.333985,23.4375 3.179475,5.19363 7.178521,9.57729 11.736328,13.22656 4.75561,3.80765 10.093708,6.79753 15.736328,9.11914 12.437196,5.11717 26.675316,7.12441 40.640628,7.38086 18.02954,0.33108 36.09056,-2.23903 51.01172,-5.25586 7.82748,-1.58259 14.89865,-3.3094 20.73242,-4.83984 18.24163,-4.78552 33.63563,-10.14359 38.81445,-12.01172 3.20277,-1.15533 4.86235,-4.68981 3.70703,-7.89258 -1.15533,-3.20277 -4.68784,-4.86235 -7.89062,-3.70703 -5.23062,1.88682 -19.77741,7.22104 -37.6836,11.66602 -5.66708,1.40679 -12.50235,2.93215 -20.05273,4.26562 -14.48251,2.55775 -31.53263,4.392 -48.09961,3.42383 -12.922594,-0.7552 -24.955507,-3.1942 -34.660157,-7.83399 -4.34217,-2.07599 -8.10486,-4.53877 -11.226562,-7.38085 -2.974233,-2.70784 -5.367901,-5.75788 -7.158203,-9.16993 -2.451142,-4.54481 -3.82626,-9.72353 -4.041016,-15.60937 -0.210986,-5.78256 0.700282,-12.31694 2.908203,-19.58203 2.172197,-7.14753 5.564154,-14.88679 10.226563,-23.11914 4.370419,-7.71679 9.888656,-15.79967 16.357421,-24.09766 z" /><path
   id="path968"
   style="fill:#d34317;fill-rule:nonzero;stroke:none;stroke-width:26.4567;stroke-linecap:square;stroke-linejoin:round;stroke-miterlimit:4;stroke-dasharray:none;fill-opacity:1"
   d="m 284.55859,147.8457 c 0,0 -22.75798,-10.67366 -31.34961,-14.54687 -4.2881,1.6434 -17.76046,8.04412 -24.95898,12.11523 10.36955,4.14083 30.28711,13.31446 30.28711,13.31446 z"
   sodipodi:nodetypes="ccccc" /></svg>
