<?xml version="1.0" encoding="UTF-8" standalone="no"?>
<svg
   xmlns:dc="http://purl.org/dc/elements/1.1/"
   xmlns:cc="http://creativecommons.org/ns#"
   xmlns:rdf="http://www.w3.org/1999/02/22-rdf-syntax-ns#"
   xmlns:svg="http://www.w3.org/2000/svg"
   xmlns="http://www.w3.org/2000/svg"
   xmlns:sodipodi="http://sodipodi.sourceforge.net/DTD/sodipodi-0.dtd"
   xmlns:inkscape="http://www.inkscape.org/namespaces/inkscape"
   version="1.1"
   id="Layer_1"
   x="0px"
   y="0px"
   viewBox="0 0 1859.0137 345.33858"
   xml:space="preserve"
   sodipodi:docname="tsl_logo_text.svg"
   inkscape:version="1.0.1 (c497b03c, 2020-09-10)"
   width="1859.0137"
   height="345.33859"><metadata
   id="metadata904"><rdf:RDF><cc:Work
       rdf:about=""><dc:format>image/svg+xml</dc:format><dc:type
         rdf:resource="http://purl.org/dc/dcmitype/StillImage" /></cc:Work></rdf:RDF></metadata><defs
   id="defs902"><inkscape:path-effect
     effect="powerstroke"
     id="path-effect889"
     is_visible="true"
     lpeversion="1"
     offset_points="0.15921461,6.1648943 | 2.4,13.22835 | 4.64,13.22835"
     sort_points="true"
     interpolator_type="CentripetalCatmullRom"
     interpolator_beta="0.2"
     start_linecap_type="round"
     linejoin_type="round"
     miter_limit="4"
     scale_width="1"
     end_linecap_type="round" /><inkscape:path-effect
     effect="powerstroke"
     id="path-effect880"
     is_visible="true"
     lpeversion="1"
     offset_points="0.31463688,6.0272007 | 3,13.22835 | 5.8,13.22835"
     sort_points="true"
     interpolator_type="CentripetalCatmullRom"
     interpolator_beta="0.2"
     start_linecap_type="round"
     linejoin_type="round"
     miter_limit="4"
     scale_width="1"
     end_linecap_type="round" /><inkscape:path-effect
     effect="skeletal"
     id="path-effect972"
     is_visible="true"
     lpeversion="1"
     pattern="M 0,5 C 0,2.24 2.24,0 5,0 7.76,0 10,2.24 10,5 10,7.76 7.76,10 5,10 2.24,10 0,7.76 0,5 Z"
     copytype="single_stretched"
     prop_scale="1"
     scale_y_rel="false"
     spacing="0"
     normal_offset="0"
     tang_offset="0"
     prop_units="false"
     vertical_pattern="false"
     hide_knot="false"
     fuse_tolerance="0" /><inkscape:path-effect
     effect="skeletal"
     id="path-effect968"
     is_visible="true"
     lpeversion="1"
     pattern="M 0,5 C 0,2.24 2.24,0 5,0 7.76,0 10,2.24 10,5 10,7.76 7.76,10 5,10 2.24,10 0,7.76 0,5 Z"
     copytype="single_stretched"
     prop_scale="1"
     scale_y_rel="false"
     spacing="0"
     normal_offset="0"
     tang_offset="0"
     prop_units="false"
     vertical_pattern="false"
     hide_knot="false"
     fuse_tolerance="0" /><inkscape:path-effect
     effect="skeletal"
     id="path-effect964"
     is_visible="true"
     lpeversion="1"
     pattern="M 0,5 C 0,2.24 2.24,0 5,0 7.76,0 10,2.24 10,5 10,7.76 7.76,10 5,10 2.24,10 0,7.76 0,5 Z"
     copytype="single_stretched"
     prop_scale="1"
     scale_y_rel="false"
     spacing="0"
     normal_offset="0"
     tang_offset="0"
     prop_units="false"
     vertical_pattern="false"
     hide_knot="false"
     fuse_tolerance="0" /></defs><sodipodi:namedview
   pagecolor="#ffffff"
   bordercolor="#666666"
   borderopacity="1"
   objecttolerance="10"
   gridtolerance="10"
   guidetolerance="10"
   inkscape:pageopacity="0"
   inkscape:pageshadow="2"
   inkscape:window-width="1792"
   inkscape:window-height="982"
   id="namedview900"
   showgrid="false"
   inkscape:zoom="0.39118662"
   inkscape:cx="1088.5196"
   inkscape:cy="55.665357"
   inkscape:window-x="0"
   inkscape:window-y="25"
   inkscape:window-maximized="0"
   inkscape:current-layer="Layer_1"
   inkscape:document-rotation="0" />














<g
   id="g869"
   transform="matrix(0.92822752,0,0,1.0178223,39.462714,-105.29529)"
   style="stroke-width:27.219;stroke-miterlimit:4;stroke-dasharray:none">
</g>
<g
   id="g871"
   transform="matrix(0.92822752,0,0,1.0178223,39.462714,-105.29529)"
   style="stroke-width:27.219;stroke-miterlimit:4;stroke-dasharray:none">
</g>
<g
   id="g873"
   transform="matrix(0.92822752,0,0,1.0178223,39.462714,-105.29529)"
   style="stroke-width:27.219;stroke-miterlimit:4;stroke-dasharray:none">
</g>
<g
   id="g875"
   transform="matrix(0.92822752,0,0,1.0178223,39.462714,-105.29529)"
   style="stroke-width:27.219;stroke-miterlimit:4;stroke-dasharray:none">
</g>
<g
   id="g877"
   transform="matrix(0.92822752,0,0,1.0178223,39.462714,-105.29529)"
   style="stroke-width:27.219;stroke-miterlimit:4;stroke-dasharray:none">
</g>
<g
   id="g879"
   transform="matrix(0.92822752,0,0,1.0178223,39.462714,-105.29529)"
   style="stroke-width:27.219;stroke-miterlimit:4;stroke-dasharray:none">
</g>
<g
   id="g881"
   transform="matrix(0.92822752,0,0,1.0178223,39.462714,-105.29529)"
   style="stroke-width:27.219;stroke-miterlimit:4;stroke-dasharray:none">
</g>
<g
   id="g883"
   transform="matrix(0.92822752,0,0,1.0178223,39.462714,-105.29529)"
   style="stroke-width:27.219;stroke-miterlimit:4;stroke-dasharray:none">
</g>
<g
   id="g885"
   transform="matrix(0.92822752,0,0,1.0178223,39.462714,-105.29529)"
   style="stroke-width:27.219;stroke-miterlimit:4;stroke-dasharray:none">
</g>
<g
   id="g887"
   transform="matrix(0.92822752,0,0,1.0178223,39.462714,-105.29529)"
   style="stroke-width:27.219;stroke-miterlimit:4;stroke-dasharray:none">
</g>
<g
   id="g889"
   transform="matrix(0.92822752,0,0,1.0178223,39.462714,-105.29529)"
   style="stroke-width:27.219;stroke-miterlimit:4;stroke-dasharray:none">
</g>
<g
   id="g891"
   transform="matrix(0.92822752,0,0,1.0178223,39.462714,-105.29529)"
   style="stroke-width:27.219;stroke-miterlimit:4;stroke-dasharray:none">
</g>
<g
   id="g893"
   transform="matrix(0.92822752,0,0,1.0178223,39.462714,-105.29529)"
   style="stroke-width:27.219;stroke-miterlimit:4;stroke-dasharray:none">
</g>
<g
   id="g895"
   transform="matrix(0.92822752,0,0,1.0178223,39.462714,-105.29529)"
   style="stroke-width:27.219;stroke-miterlimit:4;stroke-dasharray:none">
</g>
<g
   id="g897"
   transform="matrix(0.92822752,0,0,1.0178223,39.462714,-105.29529)"
   style="stroke-width:27.219;stroke-miterlimit:4;stroke-dasharray:none">
</g>
<path
   id="path981"
   style="fill:#ff7f2a;fill-rule:nonzero;stroke:none;stroke-width:26.4567;stroke-linecap:square;stroke-linejoin:round;stroke-miterlimit:4;stroke-dasharray:none"
   d="M 361.09045,7.425255e-4 C 351.19801,0.02915253 341.00936,0.84346653 330.79552,2.2526955 c -10.0681,1.389124 -20.19014,3.362089 -30.16406,5.753909 -15.04878,3.6088005 -31.31573,8.5471105 -48.53906,14.9726505 -26.80022,9.99843 -55.90764,23.59617 -85.80078,41.125 -28.44594,16.68022 -54.69759,35.24573 -77.654298,54.771485 -22.46107,19.10419 -41.507018,38.9097 -56.121092,58.33789 -7.308115,9.71552 -13.504344,19.33326 -18.46289,28.7168 -5.0031052,9.46785 -8.7661072,18.73377 -11.1328132,27.66015 -2.40654704,9.07666 -3.38365704,17.85818 -2.71484404,26.1543 0.688543,8.54082 3.11236204,16.42967 7.33398504,23.4375 3.1794752,5.19363 7.1785212,9.57729 11.7363282,13.22656 4.75561,3.80765 10.093708,6.79753 15.736328,9.11914 12.437196,5.11717 26.675319,7.12441 40.640628,7.38086 18.02954,0.33108 36.090558,-2.23903 51.011718,-5.25586 7.82748,-1.58259 14.89865,-3.3094 20.73242,-4.83984 18.24163,-4.78552 33.63563,-10.14359 38.81445,-12.01172 3.20277,-1.15533 4.86235,-4.68981 3.70703,-7.89258 -1.15533,-3.20277 -4.68784,-4.86235 -7.89062,-3.70703 -5.23062,1.88682 -19.77741,7.22104 -37.6836,11.66602 -5.66708,1.40679 -12.50235,2.93215 -20.05273,4.26562 -14.48251,2.55775 -31.532628,4.392 -48.099608,3.42383 -12.922593,-0.7552 -24.955507,-3.1942 -34.660157,-7.83399 -4.34217,-2.07599 -8.10486,-4.53877 -11.226562,-7.38085 -2.974233,-2.70784 -5.3679,-5.75788 -7.158203,-9.16993 -2.451142,-4.54481 -3.82626,-9.72353 -4.041016,-15.60937 -0.210986,-5.78256 0.700282,-12.31694 2.908203,-19.58203 2.172197,-7.14753 5.564154,-14.88679 10.226563,-23.11914 4.614957,-8.14856 10.418499,-16.68295 17.371093,-25.47266 13.92257,-17.60139 32.165849,-35.86486 53.912107,-53.69727 22.20176,-18.20591 47.58828,-35.58267 75.10938,-51.214835 28.91806,-16.42565 56.87116,-29.02021 82.36718,-38.17969 16.38677,-5.88697 31.68776,-10.33213 45.67383,-13.53515 9.27516,-2.12415 18.55813,-3.83602 27.66602,-5.01172 10.58228,-1.36603 20.79743,-1.99002 30.32812,-1.72461 8.98099,0.2501 17.15858,1.28467 24.3086,3.12695 6.84706,1.76422 12.51515,4.20743 16.99609,7.20508 4.29303,2.87194 7.50719,6.2562 9.74805,10.16211 2.19269,3.82195 3.52838,8.27776 3.84961,13.52734 0.32088,5.24404 -0.37259,11.33446 -2.33399,18.27344 -1.95294,6.90903 -5.10721,14.45947 -9.51562,22.537105 -4.42046,8.09972 -10.01971,16.57931 -16.73047,25.29688 -13.78275,17.90438 -31.80884,36.24218 -52.90821,53.90234 l -3.9082,2.74023 a 39.68504,39.68504 0 0 0 -18.89648,-4.78711 39.68504,39.68504 0 0 0 -39.68555,39.68555 39.68504,39.68504 0 0 0 39.68555,39.68555 39.68504,39.68504 0 0 0 39.68359,-39.68555 39.68504,39.68504 0 0 0 -2.67969,-14.33398 l 3.34961,-2.30079 c 22.32259,-18.62101 41.85952,-38.3448 57.12305,-58.13281 7.44861,-9.65657 13.88321,-19.33445 19.10351,-28.89062 5.19421,-9.5084 9.22919,-18.976025 11.84376,-28.244135 2.62463,-9.30382 3.85348,-18.53929 3.28906,-27.46094 -0.57512,-9.09086 -3.00819,-17.71877 -7.52735,-25.52149 -4.61124,-7.96165 -10.95744,-14.3129 -18.3789,-19.21679 -7.60706,-5.0265205 -16.28644,-8.5023205 -25.42383,-10.7929705 -9.55542,-2.395444 -19.82338,-3.54908997 -30.34961,-3.76367197 -1.40032,-0.02855 -2.8075,-0.04117 -4.2207,-0.0371100045 z" /><path
   id="ellipse904"
   style="fill:#d34317;fill-rule:nonzero;stroke:none;stroke-width:26.4567;stroke-linecap:square;stroke-linejoin:round;stroke-miterlimit:4;stroke-dasharray:none;fill-opacity:1"
   d="m 85.733022,4.3816045 c -2.72185,-0.0215 -5.38954,0.0166 -8.00195,0.11133 -10.69647,0.38801 -20.491966,1.7501 -29.240232,4.10351 -9.018096,2.4260105 -16.965219,5.9153105 -23.646485,10.5058605 -6.967595,4.78728 -12.449512,10.70052 -16.3046872,17.63477 -5.333115,10.4433 -6.015351,21.1259 -5.271485,29.83984 0.38819,4.54741 1.175196,8.68148 1.960938,12.08594 2.291857,9.93013 5.8225822,18.59445 7.2851562,21.873035 1.356124,3.03996 4.920976,4.40495 7.960937,3.04883 3.039964,-1.35612 4.404952,-4.920955 3.048829,-7.960935 -1.395383,-3.12797 -4.85032,-10.61053 -6.498047,-19.4414 -0.556378,-2.98186 -0.970732,-6.47776 -0.966797,-10.20313 0.0077,-7.27428 1.604667,-14.82641 6.089844,-21.38476 2.76896,-4.54268 6.665476,-8.48172 11.822265,-11.74414 4.992674,-3.1586 11.219304,-5.71339 18.771485,-7.49024 7.329372,-1.72443 15.813649,-2.69215 25.417969,-2.78711 9.373,-0.0927 19.72713,0.64598 30.957028,2.28125 21.93222,3.1937 46.92337,9.76401 73.76172,19.86914 3.56596,1.34265 7.2206,2.89799 10.83789,4.36133 5.57876,-2.88427 11.15788,-5.75893 16.63477,-8.36718 2.81591,-1.34103 5.53945,-2.47907 8.32421,-3.74805 -9.7128,-4.15072 -19.35131,-8.0549 -28.77539,-11.41602 C 161.73418,15.507725 135.21953,9.0462345 111.61974,6.1491845 102.54768,5.0355245 93.898672,4.4462245 85.733022,4.3816045 Z M 250.02599,51.516365 c -2.86993,1.11161 -5.66189,2.1046 -8.58398,3.30078 -5.70717,2.33629 -11.55359,4.91724 -17.4375,7.58204 13.52865,6.51493 27.24585,13.79733 40.99609,21.87304 27.908,16.390775 52.96297,34.253415 74.39063,52.445315 21.76326,18.47681 39.50408,37.05334 52.76172,54.57617 6.76538,8.94192 12.29867,17.52329 16.61718,25.61914 4.41697,8.28044 7.49696,15.92938 9.36915,22.85547 1.92473,7.12051 2.52714,13.3015 2.1289,18.57226 -0.408,5.39983 -1.86559,9.90696 -4.13086,13.72266 -2.21403,3.72939 -5.42601,7.17307 -10.00586,10.16015 -4.31491,2.81427 -9.93609,5.27739 -17.1289,7.06641 -6.82072,1.69647 -14.91683,2.7495 -24.33594,2.94727 -9.02907,0.18958 -19.14574,-0.40918 -30.28906,-1.91993 -21.36526,-2.89658 -46.10602,-9.09372 -73.10743,-19.00781 -26.0314,-9.55793 -53.80521,-22.44488 -81.92187,-38.68555 -26.8792,-15.53836 -51.49781,-32.67475 -72.78125,-50.21874 l -5.92383,-5.31446 a 39.68504,39.68504 0 0 0 5.7793,-20.62304 39.68504,39.68504 0 0 0 -39.685548,-39.68555 39.68504,39.68504 0 0 0 -39.685546,39.68555 39.68504,39.68504 0 0 0 39.685546,39.68554 39.68504,39.68504 0 0 0 12.35352,-1.97265 l 9.99023,9.36132 c 22.444248,18.63029 48.323488,36.69475 76.494138,52.93946 29.44216,16.99095 58.66185,30.53493 86.24805,40.61914 28.57447,10.44548 55.27856,17.14008 78.93555,20.26562 12.35815,1.63274 23.91454,2.29816 34.55468,2.01953 11.0821,-0.29021 21.22777,-1.6049 30.32227,-3.94531 9.59898,-2.47023 18.09094,-6.1003 25.29101,-10.92969 7.77304,-5.21369 13.8412,-11.69414 18.12305,-19.21875 4.37252,-7.68397 6.74885,-16.22377 7.24609,-25.32421 0.4774,-8.73706 -0.78085,-17.85385 -3.49414,-27.16211 -2.6401,-9.05716 -6.6901,-18.40801 -11.99218,-27.92774 -5.19428,-9.32618 -11.63131,-18.88787 -19.21485,-28.56641 -14.84899,-18.95109 -34.169,-38.44986 -57.27343,-57.46289 -22.78559,-18.75066 -49.18501,-36.966325 -78.3711,-53.539055 -8.66662,-4.92116 -17.30906,-9.45689 -25.92383,-13.79297 z" /><circle
   style="fill:#808000;stroke:none;stroke-width:52.5743;stroke-linecap:square;stroke-linejoin:round;stroke-miterlimit:4;stroke-dasharray:none"
   id="path915"
   cx="42.06567"
   cy="125.47602"
   r="0" /><circle
   style="fill:#808000;stroke:none;stroke-width:52.5743;stroke-linecap:square;stroke-linejoin:round;stroke-miterlimit:4;stroke-dasharray:none"
   id="ellipse988"
   cx="42.06567"
   cy="125.47602"
   r="0" /><circle
   style="fill:#808000;stroke:none;stroke-width:52.5743;stroke-linecap:square;stroke-linejoin:round;stroke-miterlimit:4;stroke-dasharray:none"
   id="ellipse995"
   cx="42.06567"
   cy="125.47602"
   r="0" /><circle
   style="fill:#808000;stroke:none;stroke-width:52.5743;stroke-linecap:square;stroke-linejoin:round;stroke-miterlimit:4;stroke-dasharray:none"
   id="ellipse997"
   cx="42.06567"
   cy="125.47602"
   r="0" /><path
   id="path1010"
   style="fill:#ff5722;fill-rule:nonzero;stroke:none;stroke-width:26.4567;stroke-linecap:square;stroke-linejoin:round;stroke-miterlimit:4;stroke-dasharray:none;fill-opacity:1"
   d="m 398.54943,160.86402 c -3.96071,-4.41152 -8.08989,-8.83433 -12.49609,-13.26172 -2.12155,-2.13175 -4.48117,-4.25952 -6.70313,-6.39062 -5.05485,5.73502 -10.61947,11.47463 -16.43164,17.20312 1.99924,1.98199 4.14208,3.97688 6.04297,5.94922 4.40641,4.57204 8.54645,9.11302 12.41406,13.60742 0.11911,0.13841 0.21345,0.27184 0.33203,0.41016 5.91452,-5.79454 11.57699,-11.63041 16.8418,-17.51758 z m -16.8418,17.51758 c -0.11858,-0.13832 -0.21292,-0.27175 -0.33203,-0.41016 -3.86761,-4.4944 -8.00765,-9.03538 -12.41406,-13.60742 -1.90089,-1.97234 -4.04373,-3.96723 -6.04297,-5.94922 -7.72039,7.60924 -15.9334,15.19116 -24.83594,22.64258 l -3.9082,2.74023 a 39.68504,39.68504 0 0 0 -18.89648,-4.78711 39.68504,39.68504 0 0 0 -39.68555,39.68555 39.68504,39.68504 0 0 0 39.68555,39.68555 39.68504,39.68504 0 0 0 39.68359,-39.68555 39.68504,39.68504 0 0 0 -2.67969,-14.33398 l 3.34961,-2.30079 c 9.25303,-7.71866 17.88639,-15.65602 26.07617,-23.67968 z M 361.09045,7.425255e-4 C 351.19801,0.02915253 341.00937,0.84346653 330.79552,2.2526955 c -10.0681,1.389124 -20.19014,3.362089 -30.16406,5.753909 -15.04878,3.6088005 -31.31573,8.5471105 -48.53906,14.9726505 -10.77307,4.01914 -21.99615,8.78636 -33.41602,13.99024 -8.20105,3.73711 -16.51192,7.74802 -24.95898,12.11523 -9.05195,4.67995 -18.17841,9.59703 -27.42578,15.01953 -28.44594,16.68022 -54.69759,35.24573 -77.654298,54.771485 -1.04542,0.88918 -1.98314,1.79734 -3.01367,2.68945 a 39.68504,39.68504 0 0 1 0.24219,0.13086 39.68504,39.68504 0 0 1 0.46289,0.25781 39.68504,39.68504 0 0 1 0.45898,0.26563 39.68504,39.68504 0 0 1 0.45508,0.26953 39.68504,39.68504 0 0 1 0.45117,0.27734 39.68504,39.68504 0 0 1 0.44727,0.28321 39.68504,39.68504 0 0 1 0.44531,0.28906 39.68504,39.68504 0 0 1 0.43945,0.29297 39.68504,39.68504 0 0 1 0.4375,0.30078 39.68504,39.68504 0 0 1 0.43164,0.30664 39.68504,39.68504 0 0 1 0.42774,0.3125 39.68504,39.68504 0 0 1 0.42383,0.31641 39.68504,39.68504 0 0 1 0.41992,0.32421 39.68504,39.68504 0 0 1 0.41601,0.32813 39.68504,39.68504 0 0 1 0.41016,0.33594 39.68504,39.68504 0 0 1 0.40625,0.33984 39.68504,39.68504 0 0 1 0.40234,0.34375 39.68504,39.68504 0 0 1 0.39649,0.35156 39.68504,39.68504 0 0 1 0.39258,0.35547 39.68504,39.68504 0 0 1 0.38672,0.36133 39.68504,39.68504 0 0 1 0.38281,0.36523 39.68504,39.68504 0 0 1 0.3789,0.3711 39.68504,39.68504 0 0 1 0.37305,0.37695 39.68504,39.68504 0 0 1 0.36719,0.38086 39.68504,39.68504 0 0 1 0.36328,0.38672 39.68504,39.68504 0 0 1 0.35742,0.39062 39.68504,39.68504 0 0 1 0.35156,0.39649 39.68504,39.68504 0 0 1 0.34766,0.40039 39.68504,39.68504 0 0 1 0.3418,0.4043 39.68504,39.68504 0 0 1 0.33594,0.41015 39.68504,39.68504 0 0 1 0.33007,0.41211 39.68504,39.68504 0 0 1 0.32617,0.41992 39.68504,39.68504 0 0 1 0.31836,0.42188 39.68504,39.68504 0 0 1 0.31446,0.42578 39.68504,39.68504 0 0 1 0.30859,0.43164 39.68504,39.68504 0 0 1 0.30078,0.43555 39.68504,39.68504 0 0 1 0.29688,0.43945 39.68504,39.68504 0 0 1 0.291008,0.44141 39.68504,39.68504 0 0 1 0.28516,0.44726 39.68504,39.68504 0 0 1 0.27734,0.45117 39.68504,39.68504 0 0 1 0.27344,0.45313 39.68504,39.68504 0 0 1 0.26563,0.45898 39.68504,39.68504 0 0 1 0.26171,0.46094 39.68504,39.68504 0 0 1 0.25391,0.46485 39.68504,39.68504 0 0 1 0.22656,0.42578 c 0.55731,-0.46141 1.05519,-0.92782 1.61719,-1.38868 22.20176,-18.20591 47.58828,-35.58267 75.10938,-51.214835 15.49131,-8.79917 30.66299,-16.4169 45.37109,-23.07812 8.89648,-4.02918 17.54624,-7.6001 26.02148,-10.88282 3.66907,-1.42113 7.39813,-2.93389 10.97461,-4.21875 16.38677,-5.88697 31.68776,-10.33213 45.67383,-13.53515 9.27516,-2.12415 18.55813,-3.83602 27.66602,-5.01172 10.58228,-1.36603 20.79743,-1.99002 30.32812,-1.72461 8.98099,0.2501 17.15858,1.28467 24.3086,3.12695 6.84706,1.76422 12.51515,4.20743 16.99609,7.20508 4.29303,2.87194 7.50719,6.2562 9.74805,10.16211 2.19269,3.82195 3.52838,8.27776 3.84961,13.52734 0.32088,5.24404 -0.37259,11.33446 -2.33399,18.27344 -1.95294,6.90903 -5.10721,14.45947 -9.51562,22.537105 -4.42046,8.09972 -10.01971,16.57931 -16.73047,25.29688 -3.58931,4.66266 -7.49643,9.35481 -11.64063,14.05664 2.22196,2.1311 4.58158,4.25887 6.70313,6.39062 4.4062,4.42739 8.53538,8.8502 12.49609,13.26172 5.03227,-5.62714 9.8377,-11.27357 14.20508,-16.93555 7.44861,-9.65657 13.88322,-19.33445 19.10351,-28.89062 5.19421,-9.5084 9.22918,-18.976025 11.84376,-28.244135 2.62463,-9.30382 3.85348,-18.53929 3.28906,-27.46094 -0.57512,-9.09086 -3.00819,-17.71877 -7.52735,-25.52149 -4.61124,-7.96165 -10.95744,-14.3129 -18.3789,-19.21679 -7.60706,-5.0265205 -16.28644,-8.5023205 -25.42383,-10.7929705 -9.55542,-2.395445 -19.82338,-3.54908997 -30.34961,-3.76367197 -1.40032,-0.02855 -2.8075,-0.04117 -4.2207,-0.0371100045 z M 48.598261,191.76441 a 39.68504,39.68504 0 0 1 -0.05469,-0.0273 39.68504,39.68504 0 0 1 -0.46875,-0.2461 39.68504,39.68504 0 0 1 -0.466797,-0.25195 39.68504,39.68504 0 0 1 -0.462891,-0.25781 39.68504,39.68504 0 0 1 -0.458984,-0.26563 39.68504,39.68504 0 0 1 -0.455078,-0.26953 39.68504,39.68504 0 0 1 -0.451172,-0.27734 39.68504,39.68504 0 0 1 -0.447266,-0.28321 39.68504,39.68504 0 0 1 -0.445312,-0.28906 39.68504,39.68504 0 0 1 -0.439453,-0.29297 39.68504,39.68504 0 0 1 -0.4375,-0.30078 39.68504,39.68504 0 0 1 -0.431641,-0.30664 39.68504,39.68504 0 0 1 -0.427734,-0.3125 39.68504,39.68504 0 0 1 -0.423828,-0.31641 39.68504,39.68504 0 0 1 -0.419922,-0.32421 39.68504,39.68504 0 0 1 -0.416016,-0.32813 39.68504,39.68504 0 0 1 -0.410156,-0.33594 39.68504,39.68504 0 0 1 -0.40625,-0.33984 39.68504,39.68504 0 0 1 -0.402344,-0.34375 39.68504,39.68504 0 0 1 -0.396484,-0.35156 39.68504,39.68504 0 0 1 -0.392578,-0.35547 39.68504,39.68504 0 0 1 -0.386719,-0.36133 39.68504,39.68504 0 0 1 -0.382813,-0.36523 39.68504,39.68504 0 0 1 -0.378906,-0.3711 39.68504,39.68504 0 0 1 -0.373047,-0.37695 39.68504,39.68504 0 0 1 -0.367187,-0.38086 39.68504,39.68504 0 0 1 -0.363282,-0.38672 39.68504,39.68504 0 0 1 -0.357421,-0.39062 39.68504,39.68504 0 0 1 -0.351563,-0.39649 39.68504,39.68504 0 0 1 -0.347656,-0.40039 39.68504,39.68504 0 0 1 -0.341797,-0.4043 39.68504,39.68504 0 0 1 -0.335937,-0.41015 39.68504,39.68504 0 0 1 -0.330079,-0.41211 39.68504,39.68504 0 0 1 -0.326171,-0.41992 39.68504,39.68504 0 0 1 -0.31836,-0.42188 39.68504,39.68504 0 0 1 -0.314453,-0.42578 39.68504,39.68504 0 0 1 -0.308594,-0.43164 39.68504,39.68504 0 0 1 -0.300781,-0.43555 39.68504,39.68504 0 0 1 -0.296875,-0.43945 39.68504,39.68504 0 0 1 -0.291016,-0.44141 39.68504,39.68504 0 0 1 -0.285156,-0.44726 39.68504,39.68504 0 0 1 -0.277344,-0.45117 39.68504,39.68504 0 0 1 -0.109375,-0.18165 c -0.0694,0.092 -0.153451,0.18535 -0.222656,0.27735 -7.308115,9.71552 -13.504345,19.33326 -18.46289,28.7168 -5.0031052,9.46785 -8.7661072,18.73377 -11.1328132,27.66015 -2.40654704,9.07666 -3.38365704,17.85818 -2.71484404,26.1543 0.688543,8.54082 3.11236204,16.42967 7.33398504,23.4375 3.1794752,5.19363 7.1785212,9.57729 11.7363282,13.22656 4.75561,3.80765 10.093708,6.79753 15.736328,9.11914 12.437196,5.11717 26.675316,7.12441 40.640631,7.38086 18.02954,0.33108 36.090558,-2.23903 51.011718,-5.25586 7.82748,-1.58259 14.89865,-3.3094 20.73242,-4.83984 18.24163,-4.78552 33.63563,-10.14359 38.81445,-12.01172 3.20277,-1.15533 4.86235,-4.68981 3.70703,-7.89258 -1.15533,-3.20277 -4.68784,-4.86235 -7.89062,-3.70703 -5.23062,1.88682 -19.77741,7.22104 -37.6836,11.66602 -5.66708,1.40679 -12.50235,2.93215 -20.05273,4.26562 -14.48251,2.55775 -31.532628,4.392 -48.099608,3.42383 -12.922597,-0.7552 -24.95551,-3.1942 -34.66016,-7.83399 -4.34217,-2.07599 -8.10486,-4.53877 -11.226562,-7.38085 -2.974233,-2.70784 -5.367901,-5.75788 -7.158203,-9.16993 -2.451142,-4.54481 -3.82626,-9.72353 -4.041016,-15.60937 -0.210986,-5.78256 0.700282,-12.31694 2.908203,-19.58203 2.172197,-7.14753 5.564154,-14.88679 10.226563,-23.11914 4.370419,-7.71679 9.888656,-15.79967 16.357421,-24.09766 z" /><path
   id="path968"
   style="fill:#d34317;fill-rule:nonzero;stroke:none;stroke-width:26.4567;stroke-linecap:square;stroke-linejoin:round;stroke-miterlimit:4;stroke-dasharray:none;fill-opacity:1"
   d="m 250.02599,51.516365 c 0,0 -22.75798,-10.67366 -31.34961,-14.54687 -4.2881,1.6434 -17.76046,8.04412 -24.95898,12.11523 10.36955,4.14083 30.28711,13.31446 30.28711,13.31446 z"
   sodipodi:nodetypes="ccccc" /><text
   xml:space="preserve"
   style="font-style:normal;font-variant:normal;font-weight:bold;font-stretch:normal;font-size:186.66700000000000159px;line-height:0.85;font-family:Arial;-inkscape-font-specification:'Arial Bold';fill:#ff5722;fill-opacity:1;stroke:none;"
   x="512.24036"
   y="149.84865"
   id="text879"><tspan
     sodipodi:role="line"
     id="tspan877"
     x="512.24036"
     y="149.84865">Torch</tspan><tspan
     sodipodi:role="line"
     x="512.24036"
     y="308.51559"
     id="tspan881">Spatiotemporal</tspan></text></svg>
