<svg xmlns="http://www.w3.org/2000/svg" viewBox="0 0 1869.733 342.449" xml:space="preserve" width="1869.732" height="342.449">
    <path style="fill:#d34317" d="M85.733 4.382c-2.722-.022-5.39.016-8.002.11-10.696.389-20.492 1.751-29.24 4.104-9.018 2.426-16.965 5.916-23.647 10.506-6.967 4.788-12.45 10.7-16.304 17.635-5.333 10.443-6.016 21.126-5.272 29.84.388 4.547 1.175 8.681 1.961 12.086 2.292 9.93 5.823 18.594 7.285 21.873a6.028 6.028 0 0 0 11.01-4.912c-1.395-3.128-4.85-10.61-6.498-19.442-.556-2.981-.97-6.477-.967-10.203.008-7.274 1.605-14.826 6.09-21.385 2.769-4.542 6.666-8.481 11.822-11.744 4.993-3.158 11.22-5.713 18.772-7.49 7.33-1.724 15.813-2.692 25.418-2.787 9.373-.093 19.727.646 30.957 2.281 21.932 3.194 46.923 9.764 73.762 19.87 3.565 1.342 7.22 2.897 10.837 4.36 5.58-2.884 11.158-5.758 16.635-8.366 2.816-1.341 5.54-2.48 8.324-3.749-9.712-4.15-19.35-8.054-28.775-11.416C161.734 15.508 135.22 9.046 111.62 6.15c-9.072-1.113-17.721-1.703-25.887-1.767Zm164.293 47.134c-2.87 1.112-5.662 2.105-8.584 3.301-5.707 2.336-11.554 4.917-17.437 7.582A565.59 565.59 0 0 1 265 84.272c27.908 16.391 52.963 34.254 74.39 52.446 21.763 18.476 39.504 37.053 52.762 54.576 6.765 8.942 12.299 17.523 16.617 25.619 4.417 8.28 7.497 15.93 9.37 22.855 1.924 7.12 2.526 13.302 2.128 18.573-.408 5.4-1.865 9.907-4.13 13.722-2.215 3.73-5.427 7.173-10.007 10.16-4.314 2.815-9.936 5.278-17.128 7.067-6.821 1.696-14.917 2.75-24.336 2.947-9.03.19-19.146-.41-30.29-1.92-21.365-2.896-46.105-9.094-73.107-19.008-26.031-9.558-53.805-22.445-81.922-38.685-26.879-15.539-51.498-32.675-72.781-50.219l-5.924-5.314a39.685 39.685 0 0 0 5.78-20.623 39.685 39.685 0 0 0-39.686-39.686 39.685 39.685 0 0 0-39.686 39.686 39.685 39.685 0 0 0 39.686 39.685 39.685 39.685 0 0 0 12.353-1.973l9.99 9.362c22.445 18.63 48.324 36.695 76.495 52.94 29.442 16.99 58.662 30.534 86.248 40.618 28.574 10.446 55.278 17.14 78.935 20.266 12.359 1.633 23.915 2.298 34.555 2.02 11.082-.29 21.228-1.605 30.322-3.946 9.6-2.47 18.091-6.1 25.291-10.93 7.773-5.213 13.842-11.694 18.123-19.218 4.373-7.684 6.75-16.224 7.247-25.324.477-8.738-.781-17.854-3.495-27.163-2.64-9.057-6.69-18.408-11.992-27.927-5.194-9.326-11.631-18.888-19.215-28.567-14.849-18.95-34.169-38.45-57.273-57.463-22.786-18.75-49.185-36.966-78.371-53.539-8.667-4.92-17.31-9.457-25.924-13.793z"/>
    <path style="fill:#ff5722" d="M398.55 160.864c-3.961-4.411-8.09-8.834-12.497-13.262-2.121-2.131-4.48-4.26-6.703-6.39-5.055 5.735-10.62 11.474-16.431 17.203 1.999 1.982 4.142 3.977 6.043 5.949a327.088 327.088 0 0 1 12.414 13.607c.119.139.213.272.332.41 5.914-5.794 11.577-11.63 16.841-17.517zm-16.842 17.518c-.119-.139-.213-.272-.332-.41a327.088 327.088 0 0 0-12.414-13.608c-1.901-1.972-4.044-3.967-6.043-5.95-7.72 7.61-15.934 15.192-24.836 22.643l-3.909 2.74a39.685 39.685 0 0 0-18.896-4.786 39.685 39.685 0 0 0-39.686 39.685 39.685 39.685 0 0 0 39.686 39.686 39.685 39.685 0 0 0 39.684-39.686 39.685 39.685 0 0 0-2.68-14.334l3.35-2.3c9.252-7.72 17.886-15.657 26.076-23.68zM361.09 0c-9.892.028-20.08.842-30.294 2.252-10.069 1.389-20.19 3.362-30.165 5.754-15.048 3.608-31.315 8.547-48.539 14.972-10.773 4.02-21.996 8.787-33.416 13.99a558.463 558.463 0 0 0-24.959 12.116c-9.052 4.68-18.178 9.597-27.425 15.02-28.446 16.68-54.698 35.245-77.655 54.77-1.045.89-1.983 1.798-3.013 2.69a39.685 39.685 0 0 1 .242.131 39.685 39.685 0 0 1 .463.258 39.685 39.685 0 0 1 .459.265 39.685 39.685 0 0 1 .455.27 39.685 39.685 0 0 1 .451.277 39.685 39.685 0 0 1 .447.284 39.685 39.685 0 0 1 .446.289 39.685 39.685 0 0 1 .439.293 39.685 39.685 0 0 1 .437.3 39.685 39.685 0 0 1 .432.307 39.685 39.685 0 0 1 .428.313 39.685 39.685 0 0 1 .424.316 39.685 39.685 0 0 1 .42.324 39.685 39.685 0 0 1 .416.328 39.685 39.685 0 0 1 .41.336 39.685 39.685 0 0 1 .406.34 39.685 39.685 0 0 1 .402.344 39.685 39.685 0 0 1 .397.351 39.685 39.685 0 0 1 .392.356 39.685 39.685 0 0 1 .387.361 39.685 39.685 0 0 1 .383.365 39.685 39.685 0 0 1 .379.371 39.685 39.685 0 0 1 .373.377 39.685 39.685 0 0 1 .367.381 39.685 39.685 0 0 1 .363.387 39.685 39.685 0 0 1 .358.39 39.685 39.685 0 0 1 .351.397 39.685 39.685 0 0 1 .348.4 39.685 39.685 0 0 1 .342.405 39.685 39.685 0 0 1 .336.41 39.685 39.685 0 0 1 .33.412 39.685 39.685 0 0 1 .326.42 39.685 39.685 0 0 1 .318.422 39.685 39.685 0 0 1 .315.426 39.685 39.685 0 0 1 .308.431 39.685 39.685 0 0 1 .301.436 39.685 39.685 0 0 1 .297.44 39.685 39.685 0 0 1 .291.44 39.685 39.685 0 0 1 .285.448 39.685 39.685 0 0 1 .278.451 39.685 39.685 0 0 1 .273.453 39.685 39.685 0 0 1 .266.46 39.685 39.685 0 0 1 .261.46 39.685 39.685 0 0 1 .254.465 39.685 39.685 0 0 1 .227.426c.557-.462 1.055-.928 1.617-1.389 22.202-18.206 47.588-35.583 75.11-51.215a557.004 557.004 0 0 1 45.37-23.078c8.897-4.029 17.547-7.6 26.022-10.883 3.67-1.42 7.398-2.934 10.975-4.218 16.386-5.887 31.687-10.333 45.673-13.536 9.276-2.124 18.559-3.836 27.666-5.011 10.583-1.366 20.798-1.99 30.329-1.725 8.98.25 17.158 1.285 24.308 3.127 6.847 1.764 12.515 4.208 16.996 7.205 4.293 2.872 7.507 6.256 9.748 10.162 2.193 3.822 3.529 8.278 3.85 13.528.32 5.244-.373 11.334-2.334 18.273-1.953 6.91-5.107 14.46-9.516 22.537-4.42 8.1-10.02 16.58-16.73 25.297-3.59 4.663-7.497 9.355-11.64 14.057 2.221 2.13 4.58 4.259 6.702 6.39 4.407 4.428 8.536 8.85 12.496 13.262 5.033-5.627 9.838-11.274 14.206-16.936 7.448-9.656 13.883-19.334 19.103-28.89 5.194-9.509 9.23-18.976 11.844-28.244 2.624-9.304 3.853-18.54 3.289-27.461-.575-9.091-3.008-17.719-7.528-25.522-4.61-7.961-10.957-14.313-18.378-19.217-7.607-5.026-16.287-8.502-25.424-10.792-9.556-2.396-19.824-3.55-30.35-3.764a181.49 181.49 0 0 0-4.22-.037zM48.598 191.764a39.685 39.685 0 0 1-.054-.027 39.685 39.685 0 0 1-.47-.246 39.685 39.685 0 0 1-.466-.252 39.685 39.685 0 0 1-.463-.258 39.685 39.685 0 0 1-.459-.265 39.685 39.685 0 0 1-.455-.27 39.685 39.685 0 0 1-.451-.277 39.685 39.685 0 0 1-.447-.283 39.685 39.685 0 0 1-.446-.29 39.685 39.685 0 0 1-.44-.292 39.685 39.685 0 0 1-.437-.301 39.685 39.685 0 0 1-.431-.307 39.685 39.685 0 0 1-.428-.312 39.685 39.685 0 0 1-.424-.317 39.685 39.685 0 0 1-.42-.324 39.685 39.685 0 0 1-.416-.328 39.685 39.685 0 0 1-.41-.336 39.685 39.685 0 0 1-.406-.34 39.685 39.685 0 0 1-.403-.344 39.685 39.685 0 0 1-.396-.351 39.685 39.685 0 0 1-.393-.356 39.685 39.685 0 0 1-.386-.361 39.685 39.685 0 0 1-.383-.365 39.685 39.685 0 0 1-.379-.371 39.685 39.685 0 0 1-.373-.377 39.685 39.685 0 0 1-.367-.381 39.685 39.685 0 0 1-.364-.387 39.685 39.685 0 0 1-.357-.39 39.685 39.685 0 0 1-.352-.397 39.685 39.685 0 0 1-.347-.4 39.685 39.685 0 0 1-.342-.405 39.685 39.685 0 0 1-.336-.41 39.685 39.685 0 0 1-.33-.412 39.685 39.685 0 0 1-.326-.42 39.685 39.685 0 0 1-.319-.422 39.685 39.685 0 0 1-.314-.426 39.685 39.685 0 0 1-.309-.431 39.685 39.685 0 0 1-.3-.436 39.685 39.685 0 0 1-.297-.44 39.685 39.685 0 0 1-.291-.44 39.685 39.685 0 0 1-.285-.448 39.685 39.685 0 0 1-.278-.451 39.685 39.685 0 0 1-.11-.182c-.069.092-.153.186-.222.278-7.308 9.715-13.504 19.333-18.463 28.716-5.003 9.468-8.766 18.734-11.132 27.66-2.407 9.078-3.384 17.86-2.715 26.156.688 8.54 3.112 16.43 7.334 23.437 3.18 5.194 7.178 9.578 11.736 13.227 4.756 3.808 10.094 6.798 15.736 9.12 12.438 5.116 26.676 7.124 40.641 7.38 18.03.331 36.09-2.239 51.012-5.256 7.827-1.582 14.898-3.31 20.732-4.84 18.242-4.785 33.636-10.143 38.815-12.011a6.166 6.166 0 0 0-4.184-11.6c-5.23 1.887-19.777 7.221-37.684 11.666a300.967 300.967 0 0 1-20.052 4.266c-14.483 2.557-31.533 4.392-48.1 3.423-12.923-.755-24.955-3.194-34.66-7.834-4.342-2.076-8.105-4.538-11.227-7.38-2.974-2.708-5.368-5.758-7.158-9.17-2.451-4.545-3.826-9.724-4.04-15.61-.212-5.782.7-12.317 2.907-19.582 2.172-7.147 5.564-14.887 10.227-23.119 4.37-7.717 9.888-15.8 16.357-24.098z"/>
    <path style="fill:#d34317" d="M250.026 51.516s-22.758-10.673-31.35-14.547c-4.288 1.644-17.76 8.045-24.959 12.116 10.37 4.14 30.288 13.314 30.288 13.314z"/>
    <g aria-label="Torch" style="fill:#ff5722">
        <path d="M554.613 41.209v108.64h29.307V41.209h39.947v-24.64h-109.2v24.64zM639.386 101.689q0-5.787 1.12-11.387 1.12-5.6 3.734-9.893 2.8-4.293 7.28-6.907 4.48-2.8 11.2-2.8 6.72 0 11.2 2.8 4.667 2.614 7.28 6.907 2.8 4.293 3.92 9.893 1.12 5.6 1.12 11.387 0 5.787-1.12 11.387-1.12 5.413-3.92 9.893-2.613 4.293-7.28 6.907-4.48 2.613-11.2 2.613-6.72 0-11.2-2.613-4.48-2.614-7.28-6.907-2.614-4.48-3.734-9.893-1.12-5.6-1.12-11.387zm-26.506 0q0 11.573 3.546 20.907 3.547 9.333 10.08 16.053 6.534 6.533 15.68 10.08 9.147 3.547 20.534 3.547 11.387 0 20.533-3.547 9.334-3.547 15.867-10.08 6.533-6.72 10.08-16.053 3.547-9.334 3.547-20.907T709.2 80.782q-3.547-9.52-10.08-16.053-6.533-6.72-15.867-10.267-9.146-3.733-20.533-3.733t-20.534 3.733q-9.146 3.547-15.68 10.267-6.533 6.533-10.08 16.053-3.546 9.334-3.546 20.907zM730.133 53.342v96.507h26.507v-43.493q0-6.534 1.306-12.134 1.307-5.6 4.294-9.706 3.173-4.294 8.213-6.72 5.04-2.427 12.32-2.427 2.427 0 5.04.373 2.613.187 4.48.56v-24.64q-3.173-.933-5.787-.933-5.04 0-9.706 1.493-4.667 1.493-8.774 4.293-4.106 2.614-7.28 6.534-3.173 3.733-5.04 8.213h-.373v-17.92ZM864.889 87.316h25.947q-.56-9.334-4.48-16.054-3.92-6.906-10.267-11.386-6.16-4.667-14.187-6.907-7.84-2.24-16.427-2.24-11.76 0-20.906 3.92-9.147 3.92-15.494 11.013-6.346 6.907-9.706 16.614-3.174 9.52-3.174 20.72 0 10.826 3.547 19.973 3.547 8.96 9.893 15.493 6.347 6.534 15.307 10.267 9.147 3.547 19.973 3.547 19.227 0 31.547-10.08t14.934-29.307h-25.574q-1.307 8.96-6.533 14.373-5.04 5.227-14.56 5.227-6.16 0-10.454-2.8-4.293-2.8-6.906-7.093-2.427-4.48-3.547-9.894-1.12-5.413-1.12-10.64 0-5.413 1.12-10.826 1.12-5.6 3.733-10.08 2.8-4.667 7.094-7.467 4.293-2.987 10.64-2.987 16.986 0 19.6 16.614zM906.227 16.569v133.28h26.507V99.262q0-14.746 4.853-21.093 4.853-6.533 15.68-6.533 9.52 0 13.253 5.973 3.734 5.787 3.734 17.733v54.507h26.506v-59.36q0-8.96-1.68-16.24-1.493-7.467-5.413-12.507-3.92-5.227-10.827-8.027-6.72-2.986-17.36-2.986-7.466 0-15.306 3.92-7.84 3.733-12.88 12.133h-.56V16.57Z"/>
    </g>
    <g aria-label="Spatiotemporal" style="fill:#d34317">
        <path d="M545.093 264.422H516.72q-.187 12.32 4.48 21.28 4.667 8.96 12.507 14.747 8.026 5.786 18.293 8.4 10.453 2.8 21.467 2.8 13.626 0 23.893-3.174 10.454-3.173 17.36-8.773 7.094-5.787 10.64-13.627 3.547-7.84 3.547-16.986 0-11.2-4.853-18.294-4.667-7.28-11.2-11.573-6.534-4.293-13.254-6.16-6.533-2.053-10.267-2.8-12.506-3.173-20.346-5.227-7.654-2.053-12.134-4.107-4.293-2.053-5.786-4.48-1.494-2.426-1.494-6.346 0-4.294 1.867-7.094 1.867-2.8 4.667-4.666 2.986-1.867 6.533-2.614 3.547-.746 7.093-.746 5.414 0 9.894.933 4.666.933 8.213 3.173 3.547 2.24 5.6 6.16 2.24 3.92 2.613 9.894h28.374q0-11.574-4.48-19.6-4.293-8.214-11.76-13.44-7.467-5.227-17.174-7.467-9.52-2.427-19.973-2.427-8.96 0-17.92 2.427t-16.053 7.467q-7.094 5.04-11.574 12.693-4.293 7.467-4.293 17.733 0 9.147 3.36 15.68 3.547 6.347 9.147 10.64 5.6 4.294 12.693 7.094 7.093 2.613 14.56 4.48 7.28 2.053 14.373 3.733 7.094 1.68 12.694 3.92 5.6 2.24 8.96 5.6 3.546 3.36 3.546 8.774 0 5.04-2.613 8.4-2.613 3.173-6.533 5.04-3.92 1.866-8.4 2.613-4.48.56-8.4.56-5.787 0-11.2-1.307-5.414-1.493-9.52-4.293-3.92-2.987-6.347-7.653-2.427-4.667-2.427-11.387zM692.082 291.302q-6.347 0-10.827-2.613-4.48-2.614-7.28-6.72-2.613-4.294-3.92-9.894-1.12-5.6-1.12-11.386 0-5.974 1.12-11.574t3.734-9.893q2.8-4.293 7.093-6.907 4.48-2.8 11.013-2.8 6.347 0 10.64 2.8 4.48 2.614 7.28 7.094 2.8 4.293 3.92 9.893 1.307 5.6 1.307 11.387 0 5.786-1.12 11.386t-3.92 9.894q-2.613 4.106-7.093 6.72-4.294 2.613-10.827 2.613zm-48.72-79.147V342.45h26.507v-45.734h.373q4.853 7.094 12.32 10.827 7.653 3.547 16.613 3.547 10.64 0 18.48-4.107 8.027-4.107 13.254-11.013 5.413-6.907 8.026-15.867 2.614-8.96 2.614-18.667 0-10.266-2.614-19.6-2.613-9.52-8.026-16.613-5.414-7.094-13.627-11.387-8.213-4.293-19.6-4.293-8.96 0-16.427 3.546-7.466 3.547-12.32 11.387h-.373v-12.32zM756.357 241.835q.56-9.333 4.666-15.493 4.107-6.16 10.454-9.894 6.346-3.733 14.186-5.226 8.027-1.68 16.054-1.68 7.28 0 14.746 1.12 7.467.933 13.627 3.92 6.16 2.986 10.08 8.4 3.92 5.227 3.92 14v50.213q0 6.534.747 12.507t2.613 8.96h-26.88q-.747-2.24-1.307-4.48-.373-2.427-.56-4.853-6.346 6.533-14.933 9.146-8.587 2.614-17.547 2.614-6.906 0-12.88-1.68-5.973-1.68-10.453-5.227-4.48-3.547-7.093-8.96-2.427-5.413-2.427-12.88 0-8.213 2.8-13.44 2.987-5.413 7.467-8.587 4.666-3.173 10.453-4.666 5.973-1.68 11.947-2.614 5.973-.933 11.76-1.493 5.786-.56 10.266-1.68 4.48-1.12 7.094-3.173 2.613-2.24 2.426-6.347 0-4.293-1.493-6.72-1.307-2.613-3.733-3.92-2.24-1.493-5.414-1.867-2.986-.56-6.533-.56-7.84 0-12.32 3.36t-5.227 11.2zm61.226 19.6q-1.68 1.494-4.293 2.427-2.427.747-5.413 1.307-2.8.56-5.974.933-3.173.373-6.346.933-2.987.56-5.974 1.494-2.8.933-5.04 2.613-2.053 1.493-3.36 3.92-1.306 2.427-1.306 6.16 0 3.547 1.306 5.973 1.307 2.427 3.547 3.92 2.24 1.307 5.227 1.867 2.986.56 6.16.56 7.84 0 12.133-2.613 4.293-2.614 6.347-6.16 2.053-3.734 2.426-7.467.56-3.733.56-5.973zM898.264 212.155v-28.933h-26.506v28.933h-16.054v17.734h16.054v56.933q0 7.28 2.426 11.76 2.427 4.48 6.534 6.907 4.293 2.426 9.706 3.173 5.6.933 11.76.933 3.92 0 8.027-.186 4.107-.187 7.467-.747v-20.533q-1.867.373-3.92.56-2.054.186-4.294.186-6.72 0-8.96-2.24-2.24-2.24-2.24-8.96V229.89h19.414v-17.734zM957.543 197.222v-21.84h-26.507v21.84zm-26.507 14.933v96.507h26.507v-96.507zM1001.935 260.502q0-5.787 1.12-11.387 1.12-5.6 3.733-9.893 2.8-4.293 7.28-6.907 4.48-2.8 11.2-2.8 6.72 0 11.2 2.8 4.667 2.614 7.28 6.907 2.8 4.293 3.92 9.893 1.12 5.6 1.12 11.387 0 5.787-1.12 11.387-1.12 5.413-3.92 9.893-2.613 4.293-7.28 6.907-4.48 2.613-11.2 2.613-6.72 0-11.2-2.613-4.48-2.614-7.28-6.907-2.613-4.48-3.733-9.893-1.12-5.6-1.12-11.387zm-26.507 0q0 11.573 3.547 20.907 3.546 9.333 10.08 16.053 6.533 6.533 15.68 10.08 9.146 3.547 20.533 3.547t20.533-3.547q9.334-3.547 15.867-10.08 6.533-6.72 10.08-16.053 3.547-9.334 3.547-20.907t-3.547-20.907q-3.547-9.52-10.08-16.053-6.533-6.72-15.867-10.267-9.146-3.733-20.533-3.733t-20.533 3.733q-9.147 3.547-15.68 10.267-6.534 6.533-10.08 16.053-3.547 9.334-3.547 20.907zM1126.13 212.155v-28.933h-26.507v28.933h-16.054v17.734h16.054v56.933q0 7.28 2.426 11.76 2.427 4.48 6.534 6.907 4.293 2.426 9.706 3.173 5.6.933 11.76.933 3.92 0 8.027-.186 4.107-.187 7.467-.747v-20.533q-1.867.373-3.92.56-2.054.186-4.294.186-6.72 0-8.96-2.24-2.24-2.24-2.24-8.96V229.89h19.414v-17.734zM1223.115 250.049h-43.12q.186-2.8 1.12-6.347 1.12-3.547 3.546-6.72 2.613-3.173 6.72-5.227 4.293-2.24 10.64-2.24 9.707 0 14.374 5.227 4.853 5.227 6.72 15.307zm-43.12 16.8h69.626q.747-11.2-1.866-21.467-2.614-10.267-8.587-18.293-5.787-8.027-14.933-12.694-9.147-4.853-21.467-4.853-11.013 0-20.16 3.92-8.96 3.92-15.493 10.826-6.534 6.72-10.08 16.054-3.547 9.333-3.547 20.16 0 11.2 3.36 20.533 3.546 9.334 9.893 16.054 6.347 6.72 15.493 10.453 9.147 3.547 20.534 3.547 16.427 0 28-7.467t17.173-24.827h-23.333q-1.307 4.48-7.093 8.587-5.787 3.92-13.814 3.92-11.2 0-17.173-5.787-5.974-5.786-6.534-18.666zM1266.089 212.155v96.507h26.507v-56q0-7.093 2.053-11.387 2.053-4.48 4.853-6.72 2.987-2.426 5.974-3.173 3.173-.933 5.04-.933 6.346 0 9.52 2.24 3.36 2.053 4.666 5.6 1.494 3.546 1.68 7.84.187 4.106.187 8.4v54.133h26.507v-53.76q0-4.48.56-8.773.746-4.48 2.613-7.84 2.053-3.547 5.413-5.6 3.547-2.24 9.147-2.24t8.773 1.866q3.36 1.867 5.04 5.04 1.68 3.174 2.054 7.467.373 4.293.373 9.147v54.693h26.507v-64.587q0-9.333-2.614-15.866-2.613-6.72-7.28-10.827-4.666-4.107-11.2-5.974-6.533-1.866-14.186-1.866-10.08 0-17.547 4.853-7.28 4.853-11.573 11.2-3.92-8.96-11.574-12.507-7.466-3.546-16.613-3.546-9.52 0-16.987 4.106-7.28 4.107-12.506 11.574h-.374v-13.067zM1483.23 291.302q-6.347 0-10.827-2.613-4.48-2.614-7.28-6.72-2.614-4.294-3.92-9.894-1.12-5.6-1.12-11.386 0-5.974 1.12-11.574t3.733-9.893q2.8-4.293 7.093-6.907 4.48-2.8 11.014-2.8 6.346 0 10.64 2.8 4.48 2.614 7.28 7.094 2.8 4.293 3.92 9.893 1.306 5.6 1.306 11.387 0 5.786-1.12 11.386t-3.92 9.894q-2.613 4.106-7.093 6.72-4.293 2.613-10.827 2.613zm-48.72-79.147V342.45h26.506v-45.734h.373q4.853 7.094 12.32 10.827 7.654 3.547 16.614 3.547 10.64 0 18.48-4.107 8.026-4.107 13.253-11.013 5.413-6.907 8.027-15.867 2.613-8.96 2.613-18.667 0-10.266-2.613-19.6-2.614-9.52-8.027-16.613-5.413-7.094-13.627-11.387-8.213-4.293-19.6-4.293-8.96 0-16.426 3.546-7.467 3.547-12.32 11.387h-.374v-12.32zM1572.144 260.502q0-5.787 1.12-11.387 1.12-5.6 3.733-9.893 2.8-4.293 7.28-6.907 4.48-2.8 11.2-2.8 6.72 0 11.2 2.8 4.667 2.614 7.28 6.907 2.8 4.293 3.92 9.893 1.12 5.6 1.12 11.387 0 5.787-1.12 11.387-1.12 5.413-3.92 9.893-2.613 4.293-7.28 6.907-4.48 2.613-11.2 2.613-6.72 0-11.2-2.613-4.48-2.614-7.28-6.907-2.613-4.48-3.733-9.893-1.12-5.6-1.12-11.387zm-26.507 0q0 11.573 3.547 20.907 3.547 9.333 10.08 16.053 6.533 6.533 15.68 10.08 9.147 3.547 20.533 3.547 11.387 0 20.534-3.547 9.333-3.547 15.866-10.08 6.534-6.72 10.08-16.053 3.547-9.334 3.547-20.907t-3.546-20.907q-3.547-9.52-10.08-16.053-6.534-6.72-15.867-10.267-9.147-3.733-20.534-3.733-11.386 0-20.533 3.733-9.147 3.547-15.68 10.267-6.533 6.533-10.08 16.053-3.547 9.334-3.547 20.907zM1662.739 212.155v96.507h26.506v-43.493q0-6.534 1.307-12.134 1.307-5.6 4.293-9.706 3.174-4.294 8.214-6.72 5.04-2.427 12.32-2.427 2.427 0 5.04.373 2.613.187 4.48.56v-24.64q-3.173-.933-5.787-.933-5.04 0-9.707 1.493-4.666 1.493-8.773 4.293-4.107 2.614-7.28 6.534-3.173 3.733-5.04 8.213h-.373v-17.92zM1734.171 241.835q.56-9.333 4.667-15.493 4.106-6.16 10.453-9.894 6.347-3.733 14.187-5.226 8.026-1.68 16.053-1.68 7.28 0 14.747 1.12 7.466.933 13.626 3.92 6.16 2.986 10.08 8.4 3.92 5.227 3.92 14v50.213q0 6.534.747 12.507t2.613 8.96h-26.88q-.746-2.24-1.306-4.48-.374-2.427-.56-4.853-6.347 6.533-14.934 9.146-8.586 2.614-17.546 2.614-6.907 0-12.88-1.68-5.974-1.68-10.454-5.227-4.48-3.547-7.093-8.96-2.427-5.413-2.427-12.88 0-8.213 2.8-13.44 2.987-5.413 7.467-8.587 4.667-3.173 10.453-4.666 5.974-1.68 11.947-2.614 5.973-.933 11.76-1.493t10.267-1.68q4.48-1.12 7.093-3.173 2.613-2.24 2.427-6.347 0-4.293-1.494-6.72-1.306-2.613-3.733-3.92-2.24-1.493-5.413-1.867-2.987-.56-6.534-.56-7.84 0-12.32 3.36t-5.226 11.2zm61.227 19.6q-1.68 1.494-4.294 2.427-2.426.747-5.413 1.307-2.8.56-5.973.933-3.174.373-6.347.933-2.987.56-5.973 1.494-2.8.933-5.04 2.613-2.054 1.493-3.36 3.92-1.307 2.427-1.307 6.16 0 3.547 1.307 5.973 1.306 2.427 3.546 3.92 2.24 1.307 5.227 1.867t6.16.56q7.84 0 12.133-2.613 4.294-2.614 6.347-6.16 2.053-3.734 2.427-7.467.56-3.733.56-5.973zM1843.225 175.382v133.28h26.507v-133.28Z"/>
    </g>
</svg>
